<svg width="279" height="140" viewBox="0 0 279 140" fill="none" xmlns="http://www.w3.org/2000/svg">
<path fill-rule="evenodd" clip-rule="evenodd" d="M203.848 42.3543C209.772 56.0296 211.407 73.706 206.986 88.5579C203.401 101.32 196.425 113.253 185.702 122.502C175.44 131.479 163.58 136.911 150.434 139.223C125.827 142.718 103.311 134.308 86.9757 116.289C70.1751 97.7306 64.6287 68.607 74.1185 44.9611C79.8009 28.6734 94.5662 12.7986 110.651 6.14587C124.814 -0.38117 143.504 -2.02834 158.921 2.75169C176.415 7.44388 193.73 21.4037 201.94 38.3105L203.848 42.3543Z" fill="#7E90A7"/>
<path fill-rule="evenodd" clip-rule="evenodd" d="M200.002 42.6067C206.387 56.2796 207.717 74.4601 202.951 89.2368C198.42 105.055 186.268 120.259 171.305 128.295C156.769 136.755 136.196 139.031 119.621 133.523C102.702 128.558 86.1955 114.4 79.0631 97.7577C72.6035 84.4713 71.237 66.8322 75.4273 52.0971C79.8001 35.4692 92.8292 18.7932 108.831 10.9432C124.597 2.32272 146.869 1.00283 163.759 8.05376C178.913 13.7617 193.57 27.4666 200.002 42.6067Z" fill="#151B22"/>
<path fill-rule="evenodd" clip-rule="evenodd" d="M180.968 44.7971C189.001 57.2256 190.22 76.101 183.831 89.6898C180.029 98.2057 173.226 106.43 164.865 111.38C164.132 111.268 164.022 112.117 163.407 112.276C157.308 115.668 150.664 117.945 143.356 118.41C124.011 119.945 105.911 110.044 96.6593 92.8732C89.6654 80.478 88.9499 62.1791 95.498 49.4003C101.202 37.0124 113.264 26.4037 126.175 23.2049C141.349 18.7968 157.952 22.4893 169.817 32.0774C174.108 35.683 178.172 40.1404 180.968 44.7971Z" fill="#7E90A7"/>
<path fill-rule="evenodd" clip-rule="evenodd" d="M139.358 115.185C164.101 115.185 184.16 95.0543 184.16 70.2229C184.16 45.3912 164.101 25.2609 139.358 25.2609C114.615 25.2609 94.5554 45.3912 94.5554 70.2229C94.5554 95.0543 114.615 115.185 139.358 115.185Z" fill="#B3C3D4"/>
<path fill-rule="evenodd" clip-rule="evenodd" d="M143.513 6.50528C145.213 7.61558 145.3 9.66177 145.272 11.515C145.014 13.4087 144.796 15.8422 142.605 16.3563C135.562 15.9704 129.026 16.8558 122.919 18.975C122.77 19.7091 123.312 20.4018 123.355 21.2119L119.361 22.7013L119.09 22.4323L114.757 10.9881C120.054 8.56502 125.894 7.14255 131.931 6.37585C135.276 5.97154 138.739 5.87509 142.126 6.0492L143.513 6.50528ZM157.299 8.55301C156.514 12.65 155.305 16.7113 154.288 20.8098L149.703 19.6764C150.566 15.5788 151.351 11.3659 152.482 7.30495C154.101 7.68214 155.719 8.05933 157.299 8.55301Z" fill="#B3C3D4"/>
<path fill-rule="evenodd" clip-rule="evenodd" d="M140.145 9.76769C140.455 10.229 140.689 10.8456 140.462 11.4647L139.964 11.9698C133.5 11.8897 127.311 13.0817 121.511 14.8514C121.046 14.1975 120.925 13.2715 120.613 12.5011L120.881 12.229C126.758 10.3822 133.138 9.14983 139.681 9.42255L140.145 9.76769Z" fill="#151B22"/>
<path fill-rule="evenodd" clip-rule="evenodd" d="M170.179 14.0042L179.282 31.948C179.437 32.2947 179.821 32.099 180.012 31.944L185.984 26.3119C187.182 27.2706 187.997 28.5017 189.003 29.6934L188.813 30.0031L179.894 38.3545C178.423 36.818 176.989 35.0497 175.518 33.4361L167.473 18.6523C167.396 18.5759 167.318 18.4603 167.203 18.4998C165.983 20.5913 165.111 22.7972 163.89 24.8505L159.955 22.9799L159.991 22.5553C161.742 18.877 163.414 15.1607 165.163 11.4827C166.899 12.1299 168.52 13.0476 170.179 14.0042ZM115.753 24.3821C109.883 27.465 104.329 32.0133 99.7412 37.406C96.5319 34.6053 93.5168 31.9575 90.384 29.0786L90.4973 28.6919C91.4916 27.5664 92.4473 26.4025 93.5192 25.4314L100.17 31.4185L100.554 31.3005C104.533 27.1855 109.056 23.9556 113.813 21.4197C114.549 22.3041 115.209 23.3815 115.753 24.3821Z" fill="#B3C3D4"/>
<path fill-rule="evenodd" clip-rule="evenodd" d="M112.486 38.9573C113.88 40.6485 115.731 41.4495 117.962 41.2442L162.479 41.1918C163.94 40.9133 165.439 40.5965 166.432 39.2011C168.944 41.1173 171.111 43.5771 172.933 46.077C172.666 46.5417 172.014 46.8545 171.748 47.3965C171.062 48.4813 170.799 49.7571 170.729 51.1088L170.817 88.2935C170.192 93.549 167.718 98.5053 163.041 101.659C156.718 106.405 148.096 105.68 141.694 110.078C140.928 110.661 140.162 111.477 139.667 112.252C134.285 106.142 125.633 107.116 119.034 103.523C111.745 100.474 108.048 92.9262 108.161 85.2796L108.123 50.2955C107.807 48.7528 107.22 47.0566 105.715 46.2545L105.752 45.9451C107.662 43.3472 109.804 41.1351 112.293 38.9585L112.486 38.9573Z" fill="#151B22"/>
<path fill-rule="evenodd" clip-rule="evenodd" d="M97.6412 40.3518C96.4952 41.8649 95.5814 43.5688 94.4738 45.0422L91.9364 45.481C88.4702 51.9483 86.5089 59.0639 85.9737 66.7515L86.0523 67.0985C86.8261 67.8665 87.6374 68.4415 88.1803 69.2492C88.2279 70.8705 88.1601 72.5701 88.2454 74.114L87.9758 74.0385L75.8381 63.7955C76.5659 56.1847 78.5275 49.0687 81.7235 42.448L82.0306 42.2918L97.5242 40.044L97.6781 40.043L97.6412 40.3518ZM197.038 42.5075C200.268 49.0151 202.308 56.1092 202.926 63.7126L192.704 72.8822L190.52 74.7479C190.587 72.9713 190.537 70.8471 190.721 69.0702L192.787 67.1666C192.514 59.2907 190.396 52.1202 187.012 45.4973C186.087 45.2323 185.086 45.1217 184.123 44.8955L181.096 40.0079L197.038 42.5075Z" fill="#B3C3D4"/>
<path fill-rule="evenodd" clip-rule="evenodd" d="M120.705 43.1591L138.635 43.2152L138.764 45.6088L138.763 108.743C130.344 102.997 117.619 105.114 112.137 94.6025C110.58 91.4441 109.906 87.857 110.001 84.0727L109.97 50.3238C109.807 48.7028 109.338 47.2384 108.254 46.0085C109.398 44.2642 110.815 42.9825 112.384 41.5064C114.702 43.1157 117.703 43.1761 120.705 43.1591Z" fill="#5C7188"/>
<path fill-rule="evenodd" clip-rule="evenodd" d="M166.638 41.8254C167.991 43.0149 169.27 44.4754 170.432 45.9746C169.018 47.7974 168.838 50.154 168.852 52.5867L168.968 87.7637C168.576 93.4417 164.95 98.9065 159.692 101.407C154.129 104.333 147.436 104.679 141.873 107.606L140.264 108.773L140.144 108.079L140.098 43.2843C140.366 43.1287 140.866 43.1259 141.29 43.2011L162.259 43.0855C163.875 43.0374 165.217 42.3736 166.638 41.8251V41.8254Z" fill="#2C3744"/>
<path fill-rule="evenodd" clip-rule="evenodd" d="M86.4404 46.5535C84.2365 51.7788 82.6895 57.2704 81.9135 63.0671L81.6826 63.0677L79.5945 61.149C80.2977 56.2026 81.5416 51.4848 83.4418 47.0333C84.324 46.6429 85.4018 46.6752 86.363 46.4768L86.4404 46.5535ZM195.331 46.8416C197.433 51.3865 198.692 56.3222 199.297 61.4544C198.608 62.0763 197.843 62.9299 196.999 63.3589C196.12 57.5333 194.705 51.9421 192.406 46.7033L192.52 46.3939L195.331 46.8416ZM155.76 50.7665C155.957 51.6925 155.847 52.6969 155.891 53.7006L156.317 54.0845L156.371 57.0189C157.909 56.7786 156.88 58.6378 157.269 59.3694C158.194 59.6347 159.424 59.435 160.502 59.5444C160.698 60.1231 160.702 60.9718 160.437 61.5919L153.742 61.6285C153.59 62.0538 153.708 62.5937 153.672 63.096L153.904 63.2492L160.523 63.2902C160.679 63.8298 160.606 64.4868 160.57 65.0659C159.571 65.2261 158.455 65.1164 157.416 65.1608C157.072 65.6643 157.308 66.5127 157.235 67.1701C157.468 67.5158 158.043 67.204 158.352 67.4335C159.086 67.9704 160.202 68.1183 160.63 68.8884C160.554 69.0822 160.672 69.4292 160.363 69.4308C160.135 69.8179 160.216 70.5125 160.257 70.976C160.68 71.0117 160.606 71.4373 160.607 71.6693L160.608 71.8619C159.533 72.3704 158.576 73.1858 157.345 73.1538C157.194 73.8111 157.236 74.5831 157.279 75.278C158.549 75.233 159.478 76.1538 160.518 76.6124C160.712 76.7652 160.598 77.0749 160.638 77.3061C159.869 77.4263 160.374 78.3116 160.223 78.8152C160.416 79.0839 160.803 79.3523 160.652 79.8549C160.039 80.3603 159.272 80.7893 158.465 81.0639C158.081 81.1819 157.309 80.7613 157.274 81.418C157.47 81.9582 156.785 83.4288 157.901 83.3453L160.556 83.3693C160.713 83.9897 160.717 84.6394 160.566 85.2615L153.949 85.3367C153.797 85.8005 153.762 86.4575 153.995 86.8806L160.498 86.9222C160.731 87.4224 160.621 88.2344 160.585 88.8137C159.547 89.0125 158.393 88.8643 157.316 88.9863C157.165 89.6433 157.247 90.4538 157.289 91.1102C157.599 91.4942 158.634 90.8708 158.485 91.7213C158.411 92.3007 158.724 93.1485 158.225 93.4606L150.991 93.3842C150.834 92.7676 150.829 91.9956 150.98 91.3765C151.209 91.0273 152.097 91.5639 152.132 90.9065C152.089 90.2507 152.202 89.5552 152.006 88.9768C150.889 88.8285 149.963 88.2156 148.998 87.7194C148.919 87.3718 148.916 86.7542 149.416 86.7509C149.491 86.3647 149.449 85.9019 149.447 85.4772C149.138 85.2861 148.868 85.133 148.981 84.6692C149.979 84.161 150.665 82.9995 151.974 83.2624L152.128 83.1453L152.117 81.1767C151.154 80.911 150.001 81.1875 148.999 80.9619C148.958 80.3825 148.877 79.6497 149.105 79.1079L155.876 79.0707C156.105 78.6441 156.025 78.0266 155.984 77.5637L155.752 77.4109L149.095 77.4084C148.823 76.8697 148.973 76.1732 148.931 75.5563L149.123 75.3615L151.97 75.3076C152.159 74.6506 152.039 73.9174 152.074 73.2219C151.187 72.9566 149.995 73.1563 149.033 73.0453C148.876 72.4669 148.91 71.7723 148.946 71.1929L149.33 71.036L155.832 71C155.945 70.4977 156.018 69.8021 155.784 69.3396L149.012 69.3001C148.894 68.6832 148.774 67.873 149.078 67.3303C150.041 67.3248 151.08 67.3966 152.002 67.2369L152.03 65.3059C151.721 64.9987 151.184 65.272 150.875 65.081C150.256 64.4665 148.295 64.7861 148.979 63.3152C149.633 63.1182 149.204 62.2326 149.317 61.6911C148.74 61.6942 148.928 60.9983 148.966 60.6892C149.771 60.1826 150.575 59.5604 151.575 59.439C151.763 58.782 151.606 57.9721 151.717 57.2756C152.024 56.9268 152.718 57.3866 152.908 56.8833L152.892 54.1037L153.237 53.7154C153.308 52.7107 153.071 51.5924 153.413 50.7409L155.76 50.7665Z" fill="#151B22"/>
<path fill-rule="evenodd" clip-rule="evenodd" d="M154.775 53.5913C154.698 53.6304 154.737 53.7072 154.737 53.7845C154.546 53.8631 154.314 53.8255 154.122 53.8267C153.965 53.2098 154.036 52.2828 154.071 51.5491C154.842 51.8533 154.694 52.8585 154.775 53.5913Z" fill="#B3C3D4"/>
<path fill-rule="evenodd" clip-rule="evenodd" d="M123.409 52.2966C123.912 52.834 122.949 52.6463 122.836 53.0331C122.147 53.6935 122.229 54.6972 122.235 55.6239L121.942 72.4614C122.289 72.7295 122.788 72.4953 123.174 72.6472C123.484 73.1477 122.837 74.3871 123.722 74.3819L126.223 74.3686C126.605 73.8642 125.906 72.6324 126.791 72.6278C127.098 72.5492 127.522 72.7396 127.713 72.4675C127.641 66.2514 127.454 60.2674 127.228 54.0134C127.109 53.5505 126.876 53.0497 126.413 52.7819C126.259 52.7826 126.104 52.745 125.989 52.5915C125.949 52.4368 126.102 52.2818 126.218 52.2812L136.953 52.299C137.107 52.3755 137.031 52.5305 137.032 52.6852C136.532 52.7653 135.957 53.1542 135.844 53.695C135.725 59.9127 135.643 66.0527 135.678 72.4629L136.333 72.691L136.348 75.3936L136.042 75.666L136.08 82.6932C136.428 82.9619 137.004 82.7653 137.39 82.879C137.549 83.8824 137.516 85.0023 137.445 86.0452C137.14 86.549 135.944 85.7832 136.064 86.709C136.259 87.2492 135.612 88.488 136.65 88.4055C136.692 88.9065 136.772 89.5629 136.544 90.0274L126.424 90.0064C126.268 89.5435 126.341 88.9253 126.377 88.4615L127.03 88.2649C127.181 87.6467 127.138 86.9127 127.058 86.2954C126.671 85.9885 125.559 86.5358 125.823 85.6073C125.322 85.3398 124.63 85.4982 124.014 85.4631C123.745 85.5413 123.901 85.9268 123.786 86.1207C123.442 86.3928 122.747 85.933 122.595 86.4748C122.638 87.0923 122.487 87.827 122.721 88.3275C123.028 88.2486 123.299 88.4785 123.186 88.7879L123.153 89.9472C119.73 90.1586 116.69 90.0212 113.265 90.0008C113.109 89.5771 113.182 88.9589 113.218 88.4961C114.18 88.4132 113.711 87.1031 113.784 86.4076C113.512 85.9453 112.554 86.5685 112.473 85.913L112.496 83.0165C112.878 82.6279 114.036 83.3173 113.839 82.4294L113.802 75.6343L113.415 75.2882L113.478 72.7396C113.708 72.5452 114.402 72.7729 114.206 72.1563L113.837 53.9326C113.719 53.4701 113.409 53.047 112.985 52.8174C112.792 52.7413 112.33 52.7822 112.521 52.3952C112.904 52.1998 113.444 52.3517 113.866 52.2334L123.409 52.2966Z" fill="#151B22"/>
<path fill-rule="evenodd" clip-rule="evenodd" d="M120.157 55.79C120.111 61.3504 120.026 66.9885 119.826 72.5496L114.708 72.5783L114.629 72.1536L114.298 53.6988L114.373 53.5438C116.511 53.6073 119.445 53.7515 120.157 55.79ZM132.694 54.6011C133.314 55.3314 133.741 56.1397 133.709 57.144L133.446 72.4744L128.29 72.5034C127.872 66.2505 127.99 59.8398 127.726 53.663L127.917 53.5077C129.61 53.5755 131.51 53.4257 132.694 54.6011ZM154.742 54.6726C155.245 55.3262 155.327 56.214 155.217 57.0639L153.947 57.071C153.942 56.1443 153.783 55.296 153.893 54.2914C154.24 54.2513 154.471 54.4809 154.742 54.6726Z" fill="#B3C3D4"/>
<path fill-rule="evenodd" clip-rule="evenodd" d="M119.513 57.4926L119.278 70.815C119.279 71.0088 119.126 71.1638 118.934 71.2803C118.55 71.3598 118.279 71.0523 118.2 70.7056L118.513 57.5366C118.512 57.3437 118.664 57.1499 118.857 57.0328C119.202 56.9536 119.473 57.2223 119.513 57.4926ZM133.133 57.4177C133.158 61.8195 133.068 66.5691 132.938 70.8945C132.862 71.1262 132.747 71.2427 132.517 71.3216C132.209 71.4005 132.015 71.0538 131.975 70.8227L132.171 57.3456C132.283 56.8433 133.092 56.8772 133.133 57.4177Z" fill="#151B22"/>
<path fill-rule="evenodd" clip-rule="evenodd" d="M155.031 58.2233C155.341 58.569 155.574 58.9154 155.538 59.3789C154.692 59.5764 153.729 59.3888 152.729 59.3943L152.757 57.5792C153.565 57.5361 154.413 57.6865 155.031 58.2233ZM160.164 61.1296C156.472 61.3431 152.931 61.1696 149.353 61.1893C149.276 61.1123 149.275 61.0353 149.274 60.9579L151.154 59.982L160.12 60.0103L160.164 61.1296ZM152.095 63.1046C151.557 63.2623 150.903 63.2272 150.364 63.1529L150.395 61.8402C151.088 61.9132 151.784 62.45 152.095 63.1046ZM160.101 63.6395C160.257 63.9477 160.144 64.3729 160.184 64.7206C157.223 64.891 154.144 64.7541 151.142 64.7316L149.33 63.9699L149.328 63.6993C152.829 63.6029 156.83 63.5807 160.101 63.6395ZM155.696 67.2163C154.966 67.3747 154.004 67.3032 153.196 67.3076L153.041 67.2308C153.076 66.6515 152.957 65.996 153.146 65.4543C154.225 65.4869 155.306 66.176 155.696 67.2163ZM158.162 67.8207C158.818 68.1646 159.589 68.4308 160.13 68.8909L149.395 68.9115C149.431 68.4863 149.081 67.7165 149.735 67.7128L158.162 67.8207ZM158.986 70.8283L158.987 70.9824L156.487 70.9959C156.33 70.6107 156.326 69.9544 156.478 69.4906C157.478 69.5232 158.557 69.7883 158.986 70.8283ZM160.183 71.5164C159.57 72.0218 158.764 72.3737 158.035 72.725L149.377 72.6572C149.298 72.2714 149.334 71.7303 149.524 71.4203L160.183 71.5164ZM120.022 73.244L119.89 73.419L113.886 73.3361L113.865 73.085C115.944 73.1506 118.097 72.9068 120.022 73.244ZM132.546 73.1176C132.642 73.1737 132.797 73.2119 132.913 73.3269L126.911 73.3602L126.929 73.1099L132.546 73.1176ZM121.008 73.9145C121.104 74.0489 121.374 74.1247 121.337 74.3564C121.106 74.3192 120.837 74.398 120.8 74.6295L120.763 74.9768L113.876 75.015C113.836 74.6298 113.794 74.166 113.967 73.8763L121.008 73.9145ZM133.859 73.8828C134.187 74.1309 134.574 74.5537 134.653 74.9777L128.728 75.0107C128.837 73.8131 127.494 74.631 126.916 74.325C126.876 74.1712 126.759 73.8631 127.01 73.8427L133.859 73.8828ZM155.971 75.2855C155.048 75.329 154.009 75.4119 153.085 75.2627C153.121 74.7598 153.002 74.2205 153.193 73.7558C154.309 73.7882 155.542 74.1678 155.971 75.2855ZM127.659 76.5613C125.64 76.5718 123.449 76.7795 121.387 76.5952C121.231 76.0559 121.266 75.3996 121.34 74.8584C123.442 74.7691 125.547 74.7572 127.65 74.823L127.659 76.5613Z" fill="#B3C3D4"/>
<path fill-rule="evenodd" clip-rule="evenodd" d="M121.924 76.2843C121.848 76.4005 121.772 76.5552 121.617 76.4402C121.461 76.0165 121.457 75.4372 121.609 75.0119C122.187 75.0859 121.806 75.8594 121.924 76.2843ZM122.765 75.2366C122.728 75.623 122.885 76.1241 122.618 76.4347L122.425 76.4356C122.307 76.0116 122.265 75.3943 122.494 75.007C122.647 74.9281 122.726 75.121 122.765 75.2366ZM123.501 76.1592C123.54 76.2748 123.426 76.5074 123.271 76.4307C123.077 76.0461 123.073 75.3894 123.263 75.0021C123.687 75.1158 123.422 75.7734 123.501 76.1592ZM124.27 76.0399C124.309 76.2325 124.271 76.3872 124.118 76.4264L123.925 76.4279C123.807 76.0033 123.689 75.3093 123.995 74.9981C124.495 75.0726 124.191 75.6926 124.27 76.0399ZM124.918 74.9931C125.036 75.4175 125.116 76.0347 124.887 76.4224C124.541 76.4631 124.655 76.0757 124.615 75.8828L124.687 74.9944L124.918 74.9928V74.9931ZM125.847 75.9922C125.848 76.1466 125.849 76.3013 125.734 76.4174C125.542 76.4957 125.387 76.3419 125.386 76.1872C125.461 75.8008 125.227 75.223 125.572 74.9897C125.958 75.0649 125.845 75.6446 125.847 75.9922ZM126.465 76.4137L126.311 76.4147C126.193 75.99 126.112 75.296 126.418 74.9848C126.69 75.37 126.732 75.9484 126.465 76.4137ZM127.382 75.2498C127.269 75.6369 127.619 76.3293 127.119 76.4486C126.886 76.0634 126.883 75.4076 127.112 75.0193C127.265 74.9414 127.343 75.1343 127.382 75.2498Z" fill="black"/>
<path fill-rule="evenodd" clip-rule="evenodd" d="M158.128 75.7748C158.822 76.1191 159.594 76.4238 160.212 76.8836L160.058 76.9616L149.4 76.9819C149.36 76.5961 149.28 76.0944 149.433 75.7462L158.128 75.7748ZM120.825 79.4176C121.139 80.4198 120.914 81.5797 120.843 82.6228C120.072 82.3948 118.994 82.208 118.304 82.7522C118.225 82.3667 118.491 81.6311 118.526 81.0521C118.522 80.4345 118.326 79.7014 117.747 79.2802C117.243 78.7421 116.512 78.6306 115.82 78.7119C115.128 78.793 114.553 79.3363 114.287 79.9563L114.331 80.9593L116.174 87.1657C116.251 87.2427 116.406 87.5124 116.482 87.2797C116.085 85.0425 115.303 82.8459 114.791 80.6096L116.368 80.4848L116.85 84.2659C117.006 84.497 117.274 84.3408 117.466 84.2628L117.809 83.7205C117.971 85.0705 117.748 86.5398 118.024 87.8122C118.37 87.7715 118.214 87.3478 118.251 87.0769L118.273 84.1426C118.891 84.5642 119.777 84.6748 120.585 84.5929C120.63 85.8286 120.175 87.0668 120.297 88.2628C118.296 88.3518 116.218 88.3626 114.256 88.296C114.119 84.3198 114.173 80.188 114.267 76.2488C116.77 76.5437 119.772 76.7594 120.825 79.4176ZM133.249 78.5384C132.099 79.3165 132.607 80.8974 132.306 82.0958C132.231 82.4823 132.272 82.9069 132.121 83.294C131.425 82.7571 130.576 82.2986 129.616 82.6126C129.116 82.6927 128.657 83.1972 128.428 83.6234C128.282 84.9756 128.789 86.2471 129.027 87.5195L129.181 87.5188C129.291 86.5139 128.824 85.6668 128.857 84.6631C129.512 84.8529 130.397 84.6936 131.011 84.4197C131.208 85.3072 131.099 86.4277 131.143 87.4692C131.298 87.6233 131.491 87.8538 131.721 87.6982C132.409 86.7676 133.173 85.7593 132.974 84.6406L132.546 83.7938L132.911 80.1233C133.373 80.1982 133.799 80.5822 134.414 80.4626C134.002 82.5883 133.283 84.7164 132.871 86.881L133.956 88.1876C131.802 88.354 129.839 88.2877 127.569 88.3C127.358 84.7873 127.535 82.0832 127.515 78.5313L129.939 78.4411C130.206 77.9375 130.087 77.32 130.122 76.7024C131.39 76.3092 132.665 77.4223 133.249 78.5384Z" fill="#B3C3D4"/>
<path fill-rule="evenodd" clip-rule="evenodd" d="M126.969 77.1055C127.132 78.9193 127.106 81.0817 127.038 82.743C126.693 82.8989 126.153 82.6703 125.847 82.9427C126.045 84.0613 124.695 83.3738 124.157 83.5695C123.695 83.5337 124.113 82.6049 123.383 82.8404L122.691 82.767L122.66 77.2069L122.967 77.0889L126.969 77.1055Z" fill="#5C7188"/>
<path fill-rule="evenodd" clip-rule="evenodd" d="M158.991 78.8216L158.992 79.0145L156.491 79.0284C156.374 78.6047 156.255 77.9871 156.561 77.6386C157.522 77.6719 158.487 77.936 158.991 78.8216ZM160.227 79.6256L160.228 79.7412L158.348 80.7168L149.421 80.6891C149.304 80.3424 149.262 79.8022 149.453 79.4922C152.955 79.588 156.725 79.3751 160.227 79.6256ZM155.899 83.1636C155.13 83.3993 154.052 83.289 153.167 83.2557C153.126 82.7544 153.084 82.1753 153.235 81.6718C154.351 81.6274 155.355 82.2012 155.899 83.1636ZM113.778 85.2492C113.701 85.4036 113.509 85.2893 113.394 85.3281C113.352 84.8267 113.233 84.1325 113.461 83.706L113.77 83.7436L113.778 85.2492ZM127.046 84.0946L127.014 85.2921C126.744 85.2548 126.207 85.4508 126.281 84.987C126.239 84.546 126.276 84.101 126.39 83.673C126.659 83.7106 127.274 83.5913 127.046 84.0946ZM160.211 83.6804C160.366 84.0271 160.292 84.5297 160.256 84.8767C156.64 85.0129 152.983 84.9556 149.405 84.8597C149.864 84.3556 150.516 83.9266 151.168 83.653L160.211 83.6804ZM136.671 85.1617C136.634 85.432 136.364 85.2406 136.21 85.318C135.977 84.7793 136.205 84.3149 136.202 83.8129C136.703 84.0801 136.592 84.6597 136.671 85.1617ZM125.817 84.5648L125.781 84.913L124.011 84.9614C123.818 84.8465 124.009 84.652 124.008 84.4976C124.429 84.0323 125.122 84.1824 125.699 84.1408L125.817 84.5648ZM122.935 85.2375C122.897 85.3149 122.782 85.2764 122.705 85.2776L122.662 84.5044C123.009 84.5423 123.049 84.9657 122.935 85.2375ZM151.878 86.7771C151.394 86.857 150.901 86.8596 150.416 86.7848C150.376 86.4757 150.296 85.9355 150.526 85.7032C151.065 85.8542 151.606 86.276 151.878 86.7771ZM160.192 87.3102C160.464 87.656 160.235 88.1204 160.237 88.5068L151.272 88.5179L149.381 87.4467L149.495 87.2529L160.192 87.3102ZM119.804 89.5792C117.842 89.7441 115.649 89.679 113.648 89.6522L113.643 88.8017C115.606 88.8683 118.027 88.3148 119.649 89.4254L119.804 89.5792ZM132.963 89.5841C131.04 89.7487 128.885 89.7222 126.884 89.6559C126.652 89.4636 126.765 89.0772 126.803 88.8455L126.956 88.7284C128.881 88.8732 131.378 88.2415 132.963 89.5841ZM155.98 91.0787L155.866 91.2334C154.942 91.1998 153.942 91.3219 153.095 91.1326C153.131 90.6306 152.974 90.014 153.202 89.6273C154.356 89.5817 155.436 90.0772 155.98 91.0787ZM156.914 92.9656C155.298 93.0516 153.682 93.0611 151.95 92.9933C151.909 92.5684 151.791 91.9899 152.02 91.6411C153.791 91.7859 156.058 91.1554 156.914 92.9656Z" fill="#B3C3D4"/>
</svg>
