<svg width="280" height="28" viewBox="0 0 280 28" fill="none" xmlns="http://www.w3.org/2000/svg">
<g clip-path="url(#clip0_345_5716)">
<path d="M21.5282 0.000477447C20.7966 1.92931e-07 19.8374 0.485844 19.3968 1.07955L0.221606 26.9128C-0.219505 27.506 0.0188827 27.9919 0.75047 27.9919H23.02C23.7511 27.9919 24.7108 27.506 25.1519 26.9128L44.3444 1.08862C44.7855 0.494912 44.5476 0.00906765 43.816 0.0085904L21.5282 0.000477447ZM61.4384 1.07955C61.8791 0.485844 61.6407 0 60.9091 0H50.4449C49.7133 0 48.7541 0.485844 48.313 1.07955L29.1294 26.9128C28.6883 27.506 28.9262 27.9919 29.6578 27.9919H40.1318C40.8629 27.9919 41.8226 27.506 42.2632 26.9128L61.4384 1.07955ZM67.7308 0C66.9988 0 66.0396 0.485844 65.599 1.07955L46.4153 26.9128C45.9742 27.506 46.2121 27.9919 46.9437 27.9919H54.9245C55.6561 27.9919 56.6158 27.506 57.0564 26.9128L76.2401 1.07955C76.6812 0.485844 76.4432 0 75.7117 0H67.7308ZM62.3812 26.9214C61.9401 27.5156 62.178 28.001 62.91 28L68.4071 27.9938C69.1386 27.9928 70.0973 27.506 70.5385 26.9128L89.7127 1.08862C90.1538 0.494912 89.9164 0.00859047 89.1848 0.00763596L83.6873 0.00190888C82.9562 0.000477115 81.997 0.485844 81.5569 1.0805L62.3812 26.9214ZM76.6812 26.9142C76.2401 27.507 76.4761 27.9919 77.2082 27.9919H81.2016C81.9332 27.9919 82.8933 27.507 83.3349 26.9138L102.506 1.1812C102.948 0.587977 102.711 0.10261 101.979 0.10261H98.0047C97.2726 0.10261 96.312 0.587976 95.8704 1.18025L76.6812 26.9142ZM112.045 14.2427C111.314 14.2427 111.076 13.7568 111.516 13.1627L115.066 8.3696C115.506 7.77542 116.464 7.2891 117.196 7.2891H141.895C142.247 7.29023 142.585 7.43308 142.835 7.68652C143.084 7.93996 143.225 8.28344 143.227 8.64211L143.233 12.8811C143.232 13.2394 143.092 13.5828 142.843 13.8364C142.594 14.09 142.257 14.233 141.905 14.2341L112.045 14.2427ZM110.625 0.10261C109.893 0.10261 108.933 0.587977 108.492 1.1812L89.3199 26.9233C88.8784 27.5161 89.1153 28.001 89.8465 28L99.1567 27.9933C99.8888 27.9928 100.848 27.5065 101.29 26.9138L104.349 22.8065C104.79 22.2133 105.751 21.7279 106.482 21.7279L141.895 21.7193C142.247 21.7201 142.585 21.8628 142.834 22.1161C143.084 22.3695 143.224 22.713 143.225 23.0714V26.6394C143.226 26.998 143.367 27.3416 143.616 27.5953C143.865 27.849 144.203 27.9921 144.555 27.9933L151.867 28C152.219 27.9994 152.557 27.8568 152.806 27.6035C153.056 27.3502 153.196 27.0068 153.197 26.6484V1.46517C153.196 1.10668 153.055 0.763189 152.806 0.509695C152.557 0.2562 152.219 0.113287 151.867 0.112154L110.625 0.10261ZM158.128 26.6394C158.129 26.9978 158.27 27.3412 158.519 27.5947C158.768 27.8481 159.106 27.9909 159.458 27.9919H166.77C167.122 27.991 167.46 27.8483 167.709 27.5948C167.959 27.3414 168.099 26.9979 168.1 26.6394L168.108 12.4172C168.108 11.6732 168.625 11.3739 169.255 11.7519L183.094 20.0523C183.725 20.4308 184.839 20.7395 185.57 20.7386L190.884 20.7324C191.615 20.7314 192.73 20.4222 193.361 20.0442L207.198 11.76C207.829 11.3825 208.345 11.6827 208.345 12.4267L208.336 26.6394C208.337 26.9978 208.478 27.3413 208.727 27.5948C208.976 27.8482 209.314 27.991 209.666 27.9919H216.987C217.339 27.9909 217.677 27.8481 217.926 27.5947C218.176 27.3412 218.316 26.9978 218.317 26.6394V1.46421C218.316 1.10575 218.175 0.762363 217.926 0.508846C217.677 0.25533 217.339 0.112231 216.987 0.110723L209.675 0.103564C208.944 0.103564 207.842 0.432869 207.228 0.836626L189.354 12.5861C188.739 12.9899 187.733 12.9899 187.118 12.5861L169.227 0.836149C168.612 0.432869 167.51 0.103087 166.779 0.103564L159.458 0.110723C159.106 0.112232 158.768 0.255397 158.519 0.509016C158.27 0.762635 158.129 1.10615 158.128 1.46469V26.6394ZM223.303 26.6394C223.304 26.9978 223.445 27.3412 223.694 27.5946C223.943 27.8481 224.281 27.9909 224.633 27.9919H278.67C279.022 27.9909 279.36 27.8481 279.609 27.5947C279.858 27.3412 279.999 26.9978 280 26.6394V12.7064C279.999 12.3479 279.858 12.0043 279.609 11.7508C279.36 11.4972 279.022 11.3542 278.67 11.3529L252.065 11.3448C251.713 11.3456 251.375 11.4883 251.126 11.7417C250.877 11.9952 250.737 12.3386 250.737 12.6969L250.742 15.3981C250.743 15.7569 250.884 16.1004 251.134 16.3539C251.384 16.6074 251.722 16.7504 252.074 16.7516L268.698 16.7678C269.05 16.7693 269.388 16.9125 269.637 17.1661C269.886 17.4197 270.027 17.7633 270.028 18.1218V19.555C270.027 19.9135 269.887 20.257 269.637 20.5104C269.388 20.7639 269.05 20.9067 268.698 20.9075L234.614 20.8994C234.262 20.898 233.924 20.755 233.675 20.5014C233.426 20.2479 233.285 19.9044 233.284 19.5459V8.55811C233.285 8.1997 233.426 7.85634 233.675 7.60295C233.924 7.34956 234.262 7.20671 234.614 7.20558L278.67 7.19603C279.022 7.19502 279.36 7.05222 279.609 6.7988C279.858 6.54538 279.999 6.20194 280 5.84349V1.45515C279.999 1.09674 279.858 0.753372 279.609 0.49998C279.36 0.246589 279.022 0.103742 278.67 0.10261L224.633 0.112154C224.281 0.113287 223.943 0.25615 223.694 0.509555C223.445 0.76296 223.304 1.10633 223.303 1.46469V26.6394Z" fill="#B3C3D4"/>
</g>
<defs>
<clipPath id="clip0_345_5716">
<rect width="280" height="28" fill="white"/>
</clipPath>
</defs>
</svg>
