<svg width="280" height="120" viewBox="0 0 280 120" fill="none" xmlns="http://www.w3.org/2000/svg">
<path fill-rule="evenodd" clip-rule="evenodd" d="M206.463 119.151V93.3963H195.834V119.151H206.463ZM150.192 108.457V93.7859H139.89V105.001C139.89 108.261 139.76 109.175 139.565 110.022C138.847 112.37 136.369 113.411 133.827 113.411C130.307 113.411 128.676 112.042 128.024 109.891C127.828 109.176 127.763 108.393 127.698 107.61C127.633 106.763 127.698 105.849 127.698 104.873V93.787H117.266V108.523C117.266 111.85 118.375 114.327 120.2 116.022C123.329 119.087 128.611 120 133.501 120C139.434 120 143.999 119.152 147.258 115.958C148.955 114.326 150.192 112.175 150.192 108.457ZM99.5954 106.631C99.0789 106.542 98.5555 106.498 98.0313 106.502H86.2952C85.708 106.502 85.0556 106.567 84.73 106.631C84.9253 106.435 85.3172 106.045 85.708 105.523L90.9888 96.7851C91.7063 95.6128 92.0319 94.8302 92.1621 94.5045C92.2924 94.8302 92.618 95.6128 93.3355 96.8524L98.7477 105.656C99.0093 106.045 99.4 106.435 99.5954 106.631ZM119.287 119.151L95.8137 83.9429H82.6437L86.0987 88.0504C86.1639 88.1155 86.2952 88.1795 86.4244 88.2468C86.2941 88.312 86.1639 88.376 86.0987 88.4411L65.6257 119.151H77.4921L80.6877 113.869C80.8179 113.609 80.8831 113.347 80.8831 113.218C81.0133 113.218 81.3401 113.347 81.6657 113.347H102.856C103.182 113.347 103.442 113.282 103.573 113.218C103.561 113.401 103.606 113.584 103.703 113.74L107.029 119.151H119.287ZM192.966 105.916C192.966 103.046 191.792 99.7202 188.141 95.0907L179.338 83.9418H167.08L174.056 91.7659C175.231 93.0706 176.73 94.2429 176.73 94.2429C175.035 93.2638 172.884 92.8742 171.189 92.8742C167.146 92.8742 163.037 93.7219 159.387 95.7441C155.474 97.8933 152.866 101.481 152.866 106.242C152.866 109.892 154.496 112.697 156.582 114.848C161.278 119.542 169.818 119.999 172.948 119.999C177.576 119.999 184.814 118.956 188.924 115.239C191.337 113.022 192.966 109.958 192.966 105.916ZM182.794 106.242C182.794 108.915 181.033 110.935 178.816 112.044C176.99 113.023 174.838 113.283 172.948 113.283C171.058 113.283 168.841 112.891 167.015 111.978C164.798 110.87 163.102 108.719 163.102 106.371C163.102 103.568 165.253 101.349 167.798 100.241C169.363 99.5259 171.254 99.2643 172.752 99.2643C174.188 99.2643 176.274 99.4586 177.904 100.112C180.839 101.349 182.794 103.697 182.794 106.242ZM203.086 4.85761e-05C195.452 -0.0122763 188.039 2.56328 182.057 7.30639C176.075 2.56297 168.662 -0.0126252 161.028 4.85761e-05C153.394 -0.011765 145.981 2.56375 139.999 7.30639C134.018 2.56274 126.605 -0.0128988 118.971 4.85761e-05C111.337 -0.011765 103.925 2.56375 97.943 7.30639C91.9612 2.56359 84.5486 -0.0119394 76.9147 4.85761e-05C58.1814 4.85761e-05 43.0002 15.1801 43.0002 33.9145C43.0002 52.6468 58.1803 67.829 76.9147 67.829C84.5486 67.8408 91.9611 65.2653 97.943 60.5227C103.925 65.2655 111.337 67.841 118.971 67.829C126.605 67.8418 134.018 65.2662 139.999 60.5227C145.981 65.2653 153.394 67.8409 161.028 67.829C168.662 67.8416 176.075 65.266 182.057 60.5227C188.039 65.266 195.452 67.8416 203.086 67.829C221.82 67.829 237 52.6479 237 33.9145C237 15.1812 221.82 4.85761e-05 203.086 4.85761e-05ZM92.394 54.9825C88.0724 58.1351 82.6735 60.0591 76.9147 60.0591C62.4632 60.0591 50.7691 48.3661 50.7691 33.9145C50.7691 19.463 62.4632 7.7689 76.9147 7.7689C82.6735 7.7689 88.0691 9.69401 92.394 12.8477C87.6289 18.8341 85.0419 26.2633 85.0578 33.9145C85.0614 41.5629 87.6463 48.9861 92.394 54.9825ZM97.9441 49.4489C94.6112 44.9564 92.8169 39.5084 92.8278 33.9145C92.8137 28.3202 94.6084 22.8712 97.9441 18.3802C101.279 22.8716 103.074 28.3203 103.06 33.9145C103.071 39.5083 101.277 44.9562 97.9441 49.4489ZM134.452 54.9825C129.962 58.2881 124.529 60.0649 118.954 60.0514C113.39 60.0627 107.969 58.2857 103.492 54.9825C108.24 48.9868 110.825 41.5637 110.828 33.9157C110.844 26.2644 108.257 18.8352 103.492 12.8488C107.969 9.54464 113.389 7.76722 118.954 7.77884C124.754 7.77884 130.113 9.65537 134.452 12.8488C129.686 18.8352 127.099 26.2644 127.115 33.9157C127.119 41.5637 129.704 48.9867 134.452 54.9825ZM139.999 49.4489C136.667 44.9564 134.872 39.5084 134.883 33.9145C134.87 28.3203 136.664 22.8715 139.999 18.3802C143.335 22.8712 145.13 28.3201 145.117 33.9145C145.127 39.5085 143.333 44.9566 139.999 49.4489ZM176.508 54.9825C172.17 58.177 166.811 60.0514 161.011 60.0514C155.212 60.0514 149.887 58.1737 145.548 54.9825C150.297 48.9871 152.882 41.5638 152.885 33.9157C152.901 26.2644 150.313 18.8352 145.548 12.8488C149.887 9.65647 155.212 7.77884 161.011 7.77884C166.811 7.77884 172.17 9.65537 176.508 12.8488C171.743 18.8355 169.156 26.2645 169.172 33.9157C169.176 41.5636 171.761 48.9864 176.508 54.9825ZM182.058 49.4489C178.725 44.9564 176.931 39.5084 176.942 33.9145C176.927 28.3201 178.722 22.871 182.058 18.3802C185.393 22.8716 187.188 28.3203 187.174 33.9145C187.184 39.5082 185.39 44.956 182.058 49.4489ZM203.086 60.0591C197.325 60.0591 191.928 58.1351 187.607 54.9825C192.355 48.9866 194.94 41.5637 194.943 33.9157C194.959 26.2645 192.372 18.8355 187.607 12.8488C191.932 9.69621 197.326 7.77001 203.086 7.77001C217.536 7.77001 229.232 19.4641 229.232 33.9157C229.232 48.365 217.536 60.0591 203.086 60.0591Z" fill="#B3C3D4"/>
</svg>
