<svg width="279" height="140" viewBox="0 0 279 140" fill="none" xmlns="http://www.w3.org/2000/svg">
<path d="M139.5 140C158.197 140 175.776 132.718 188.997 119.497C202.218 106.276 209.5 88.6974 209.5 69.9999C209.5 51.3026 202.218 33.7242 188.997 20.5028C175.776 7.28136 158.197 0 139.5 0C100.902 0 69.5 31.4017 69.5 69.9999C69.5 88.6974 76.7814 106.276 90.0028 119.497C103.224 132.718 120.803 140 139.5 140Z" fill="#5C7188"/>
<path d="M71.9221 69.9997C71.9221 51.9495 78.9516 34.9791 91.7155 22.2152C104.479 9.45098 121.45 2.42181 139.5 2.42181C157.55 2.42181 174.521 9.45098 187.285 22.2152C200.048 34.9791 207.078 51.9492 207.078 69.9997C207.078 107.263 176.763 137.578 139.5 137.578C121.45 137.578 104.479 130.548 91.7155 117.785C78.9516 105.02 71.9221 88.0502 71.9221 69.9997Z" fill="#B3C3D4"/>
<path d="M139.5 5.20709C103.716 5.20709 74.7068 34.2163 74.7068 69.9999C74.7068 105.784 103.716 134.793 139.5 134.793C175.283 134.793 204.292 105.784 204.292 69.9999C204.292 34.2163 175.283 5.20709 139.5 5.20709Z" fill="#151B22"/>
<path d="M139.5 111.387C116.642 111.387 98.1123 92.8576 98.1123 69.9999C98.1123 47.1426 116.642 28.6124 139.5 28.6124C162.357 28.6124 180.887 47.1426 180.887 69.9999C180.887 92.8576 162.357 111.387 139.5 111.387Z" fill="#B3C3D4"/>
<path d="M100.775 70H139.5V31.2751C118.113 31.2751 100.775 48.6134 100.775 70ZM139.5 70V108.725C160.887 108.725 178.225 91.3872 178.225 70H139.5Z" fill="#5C7188"/>
<path d="M109.085 30.5112C107.713 29.1777 105.593 28.7759 103.602 30.0102C103.982 29.0247 103.827 28.019 103.625 27.4641C102.767 25.9 102.468 25.7043 101.761 25.1112C99.4727 23.1911 97.0645 24.8303 95.3421 26.883L87.0203 36.8003L100.102 47.7776L108.878 37.319C110.883 34.9294 111.193 32.5602 109.085 30.5112ZM141.668 25.7987L146.161 13.8907V25.7987H149.575V8.74432H144.445L139.779 20.955H139.827L135.161 8.74432H130.031V25.7987H133.445V13.8907L137.938 25.7987H141.668ZM187.574 32.8938L181.146 41.995L191.112 37.2637L193.75 40.5223L178.064 48.1261L174.968 44.271L181.137 35.2495L181.101 35.2043L170.994 39.3636L167.867 35.5329L178.566 21.7706L181.204 25.0292L174.504 33.7936L184.743 29.3979L187.574 32.8938Z" fill="#B3C3D4"/>
<path d="M97.1603 29.3378C97.7394 28.6475 99.0481 28.6759 99.8898 29.3819C100.815 30.1584 100.817 31.2593 100.196 31.9996L95.2539 37.8891L92.1619 35.2944L97.1603 29.3378ZM105.953 36.2855L100.743 42.4949L97.4754 39.7534L102.728 33.4934C103.321 32.7865 104.644 32.5807 105.536 33.3294C106.545 34.1761 106.645 35.461 105.953 36.2855Z" fill="#151B22"/>
</svg>
