<svg width="193" height="48" viewBox="0 0 193 48" fill="none" xmlns="http://www.w3.org/2000/svg">
<path d="M7.54898 42.882L14.4311 3.7837C14.7989 1.69402 16.7881 0.298694 18.8741 0.667142C20.9601 1.0356 22.3529 3.02831 21.9851 5.11799L15.1033 44.2163C14.7354 46.306 12.7459 47.7013 10.66 47.3328C8.57401 46.9644 7.18115 44.9717 7.54898 42.882Z" fill="#B3C3D4"/>
<path d="M15.1024 42.882L8.22033 3.7837C7.8525 1.69402 5.86329 0.298693 3.77734 0.667142C1.69136 1.0356 0.298543 3.02831 0.66637 5.11799L7.54818 44.2163C7.916 46.306 9.90549 47.7013 11.9915 47.3328C14.0774 46.9644 15.4703 44.9717 15.1024 42.882Z" fill="#E3F0FF"/>
<path fill-rule="evenodd" clip-rule="evenodd" d="M25.4288 23.2669L28.8815 42.8817C29.2493 44.9714 27.8564 46.9641 25.7705 47.3326C23.6845 47.701 21.695 46.3058 21.3272 44.2161L15.9993 13.9459C15.9921 13.9376 15.9852 13.9289 15.9784 13.9199C15.9009 13.8169 15.8621 13.7017 15.8621 13.5742V13.1669L14.4454 5.11776C14.0776 3.02808 15.4704 1.03537 17.5564 0.666916C19.5193 0.320203 21.3965 1.53532 21.9176 3.42114L23.1415 4.38171C23.5677 4.15618 24.0084 3.96988 24.4637 3.8228C24.6186 2.48927 24.7591 1.57737 24.885 1.0871C24.9528 0.812552 25.1272 0.675277 25.4081 0.675277H28.6337C28.7693 0.675277 28.8879 0.71695 28.9896 0.800296C29.0913 0.883641 29.147 0.989049 29.1567 1.11652L29.5635 3.8228C30.0382 3.97969 30.4741 4.16109 30.8712 4.367L32.9344 2.79324C33.0216 2.70499 33.1378 2.66086 33.2831 2.66086C33.409 2.66086 33.5301 2.70989 33.6464 2.80794C34.8959 3.97478 35.695 4.80824 36.0437 5.30832C36.1115 5.38676 36.1454 5.49462 36.1454 5.63189C36.1454 5.74956 36.1067 5.86232 36.0292 5.97018C35.8839 6.17609 35.6369 6.50212 35.2882 6.94826C34.9395 7.39441 34.678 7.74005 34.5036 7.98518C34.7555 8.47545 34.954 8.95591 35.0993 9.42657L37.7582 9.8384C37.8842 9.85801 37.9859 9.91929 38.0634 10.0222C38.1408 10.1252 38.1796 10.2404 38.1796 10.3679V13.6331C38.1796 13.7507 38.1408 13.8635 38.0634 13.9714C37.9859 14.0792 37.889 14.143 37.7728 14.1626L35.0848 14.5744C34.9007 15.1039 34.7119 15.55 34.5181 15.9128C34.8572 16.4031 35.3754 17.0797 36.0728 17.9425C36.1697 18.0602 36.2181 18.1828 36.2181 18.3102C36.2181 18.4377 36.1745 18.5505 36.0873 18.6485C35.8258 19.0113 35.3463 19.5408 34.6489 20.237C33.9515 20.9332 33.4962 21.2813 33.2831 21.2813C33.1669 21.2813 33.041 21.2371 32.9054 21.1489L30.9003 19.5604C30.4741 19.7859 30.0333 19.9722 29.5781 20.1193C29.4231 21.4529 29.2826 22.3648 29.1567 22.855C29.0889 23.1296 28.9146 23.2669 28.6337 23.2669H25.4288Z" fill="#E3F0FF"/>
<ellipse cx="27.0506" cy="11.7335" rx="3.75873" ry="3.76526" fill="#B3C3D4"/>
<line x1="50" y1="36.5" x2="192.26" y2="36.5" stroke="#B3C3D4"/>
<path d="M191.589 44.6561V42.1942C191.589 41.9677 191.542 41.7721 191.448 41.6073C191.353 41.4426 191.215 41.3161 191.033 41.2279C190.85 41.1397 190.625 41.0955 190.357 41.0955C190.11 41.0955 189.889 41.1397 189.695 41.2279C189.504 41.3132 189.352 41.4294 189.241 41.5765C189.132 41.7206 189.077 41.8809 189.077 42.0574L188.548 42.053C188.548 41.8735 188.592 41.7 188.68 41.5323C188.768 41.3647 188.893 41.2147 189.055 41.0823C189.217 40.9499 189.41 40.8455 189.633 40.769C189.86 40.6896 190.109 40.6499 190.379 40.6499C190.721 40.6499 191.021 40.7073 191.28 40.822C191.542 40.9367 191.746 41.1088 191.893 41.3382C192.041 41.5676 192.114 41.8559 192.114 42.203V44.5105C192.114 44.6753 192.126 44.8459 192.149 45.0223C192.176 45.1988 192.213 45.3444 192.26 45.4591V45.5121H191.699C191.664 45.4062 191.636 45.2738 191.615 45.115C191.598 44.9532 191.589 44.8003 191.589 44.6561ZM191.712 42.7324L191.721 43.1384H190.684C190.413 43.1384 190.171 43.1634 189.956 43.2134C189.744 43.2604 189.564 43.331 189.417 43.4251C189.27 43.5163 189.157 43.6266 189.077 43.7561C189.001 43.8855 188.963 44.0325 188.963 44.1973C188.963 44.3679 189.005 44.5238 189.091 44.665C189.179 44.8061 189.302 44.9194 189.461 45.0047C189.623 45.0871 189.814 45.1282 190.035 45.1282C190.329 45.1282 190.588 45.0738 190.812 44.965C191.039 44.8562 191.225 44.7135 191.373 44.537C191.52 44.3605 191.618 44.1679 191.668 43.959L191.898 44.2635C191.86 44.4105 191.789 44.562 191.686 44.7179C191.586 44.8709 191.455 45.015 191.293 45.1503C191.131 45.2827 190.94 45.3915 190.719 45.4768C190.502 45.5592 190.254 45.6003 189.978 45.6003C189.666 45.6003 189.394 45.5415 189.161 45.4238C188.932 45.3062 188.752 45.1459 188.623 44.9429C188.496 44.737 188.433 44.5046 188.433 44.2458C188.433 44.0105 188.483 43.8002 188.583 43.6149C188.683 43.4266 188.827 43.2678 189.016 43.1384C189.207 43.006 189.436 42.906 189.704 42.8383C189.975 42.7677 190.278 42.7324 190.613 42.7324H191.712Z" fill="#E3F0FF"/>
<path d="M185.573 43.2001H184.805V42.8427H185.529C185.823 42.8427 186.057 42.8089 186.231 42.7413C186.404 42.6707 186.529 42.5721 186.606 42.4456C186.682 42.3192 186.721 42.1706 186.721 42C186.721 41.8353 186.68 41.6853 186.597 41.55C186.518 41.4147 186.39 41.3058 186.213 41.2235C186.037 41.1411 185.803 41.0999 185.511 41.0999C185.288 41.0999 185.082 41.1397 184.893 41.2191C184.705 41.2985 184.553 41.4073 184.439 41.5456C184.327 41.6838 184.271 41.8441 184.271 42.0265H183.741C183.741 41.7441 183.824 41.5 183.988 41.2941C184.153 41.0882 184.37 40.9293 184.637 40.8176C184.908 40.7058 185.199 40.6499 185.511 40.6499C185.782 40.6499 186.025 40.6793 186.24 40.7381C186.454 40.797 186.637 40.8837 186.787 40.9985C186.937 41.1132 187.052 41.2558 187.131 41.4264C187.211 41.5941 187.25 41.7868 187.25 42.0044C187.25 42.1692 187.212 42.3236 187.136 42.4677C187.062 42.6118 186.953 42.7398 186.809 42.8516C186.668 42.9604 186.493 43.0457 186.284 43.1075C186.078 43.1692 185.841 43.2001 185.573 43.2001ZM184.805 42.9575H185.573C185.867 42.9575 186.125 42.9854 186.346 43.0413C186.566 43.0942 186.75 43.1737 186.897 43.2795C187.044 43.3854 187.153 43.5163 187.224 43.6722C187.298 43.8252 187.334 44.0017 187.334 44.2017C187.334 44.4193 187.29 44.615 187.202 44.7885C187.117 44.962 186.993 45.1091 186.831 45.2297C186.669 45.3503 186.476 45.4415 186.253 45.5033C186.029 45.565 185.782 45.5959 185.511 45.5959C185.22 45.5959 184.932 45.5444 184.646 45.4415C184.364 45.3385 184.13 45.1797 183.944 44.965C183.759 44.7503 183.666 44.4767 183.666 44.1443H184.192C184.192 44.3267 184.249 44.4944 184.364 44.6473C184.478 44.8003 184.634 44.9223 184.832 45.0135C185.032 45.1047 185.258 45.1503 185.511 45.1503C185.797 45.1503 186.035 45.1106 186.226 45.0312C186.418 44.9488 186.562 44.837 186.659 44.6958C186.756 44.5547 186.805 44.3929 186.805 44.2105C186.805 43.9958 186.758 43.8222 186.663 43.6899C186.572 43.5575 186.432 43.4604 186.244 43.3987C186.056 43.3369 185.817 43.306 185.529 43.306H184.805V42.9575Z" fill="#E3F0FF"/>
<path d="M179.213 44.6563L181.795 40.7383H182.325V45.5122H181.795V41.5942L179.213 45.5122H178.692V40.7383H179.213V44.6563Z" fill="#E3F0FF"/>
<path d="M175.862 40.7383V45.5122H175.337V40.7383H175.862ZM177.602 40.7383V41.1883H173.66V40.7383H177.602Z" fill="#E3F0FF"/>
<path d="M169.855 41.6559V47.3475H169.326V40.7381H169.82L169.855 41.6559ZM173.175 43.081V43.1737C173.175 43.5296 173.133 43.8561 173.051 44.1531C172.969 44.4502 172.849 44.7076 172.693 44.9253C172.54 45.14 172.351 45.3062 172.124 45.4238C171.898 45.5415 171.64 45.6003 171.352 45.6003C171.066 45.6003 170.812 45.5562 170.588 45.468C170.364 45.3797 170.172 45.2547 170.01 45.0929C169.851 44.9282 169.723 44.737 169.626 44.5194C169.532 44.2987 169.465 44.0576 169.427 43.7958V42.5736C169.471 42.2853 169.543 42.0236 169.643 41.7882C169.743 41.5529 169.871 41.35 170.027 41.1794C170.186 41.0088 170.375 40.8779 170.592 40.7867C170.81 40.6955 171.059 40.6499 171.338 40.6499C171.63 40.6499 171.889 40.7073 172.115 40.822C172.345 40.9338 172.538 41.097 172.693 41.3117C172.852 41.5235 172.972 41.7794 173.051 42.0794C173.133 42.3765 173.175 42.7104 173.175 43.081ZM172.645 43.1737V43.081C172.645 42.8016 172.616 42.5427 172.557 42.3045C172.501 42.0662 172.414 41.8588 172.296 41.6823C172.181 41.5029 172.034 41.3632 171.855 41.2632C171.678 41.1632 171.468 41.1132 171.224 41.1132C170.971 41.1132 170.754 41.1558 170.575 41.2411C170.398 41.3235 170.251 41.4338 170.133 41.572C170.016 41.7073 169.923 41.8559 169.855 42.0177C169.788 42.1794 169.738 42.3383 169.705 42.4942V43.9017C169.761 44.1252 169.851 44.3326 169.974 44.5238C170.098 44.712 170.263 44.8635 170.469 44.9782C170.678 45.09 170.932 45.1459 171.232 45.1459C171.474 45.1459 171.683 45.0959 171.859 44.9959C172.036 44.8959 172.181 44.7561 172.296 44.5767C172.414 44.3973 172.501 44.1884 172.557 43.9502C172.616 43.7119 172.645 43.4531 172.645 43.1737Z" fill="#E3F0FF"/>
<path d="M166.32 45.6003C166.008 45.6003 165.721 45.543 165.459 45.4283C165.2 45.3135 164.973 45.1518 164.779 44.9429C164.588 44.7341 164.439 44.487 164.333 44.2017C164.23 43.9134 164.179 43.5987 164.179 43.2575V43.0678C164.179 42.7001 164.233 42.3677 164.342 42.0706C164.451 41.7735 164.601 41.5191 164.792 41.3073C164.984 41.0955 165.201 40.9338 165.446 40.822C165.693 40.7073 165.952 40.6499 166.223 40.6499C166.526 40.6499 166.795 40.7043 167.03 40.8132C167.266 40.919 167.463 41.0705 167.622 41.2676C167.784 41.4617 167.906 41.6926 167.988 41.9603C168.071 42.225 168.112 42.5177 168.112 42.8383V43.1604H164.497V42.7104H167.586V42.6486C167.581 42.3809 167.526 42.1309 167.423 41.8985C167.323 41.6632 167.173 41.472 166.973 41.325C166.773 41.1779 166.523 41.1044 166.223 41.1044C165.999 41.1044 165.793 41.1514 165.605 41.2455C165.419 41.3397 165.259 41.475 165.123 41.6515C164.991 41.825 164.888 42.0324 164.815 42.2736C164.744 42.5118 164.709 42.7766 164.709 43.0678V43.2575C164.709 43.5222 164.747 43.7693 164.823 43.9987C164.903 44.2252 165.015 44.4252 165.159 44.5988C165.306 44.7723 165.48 44.9076 165.68 45.0047C165.88 45.1018 166.1 45.1503 166.342 45.1503C166.624 45.1503 166.874 45.0988 167.092 44.9959C167.31 44.89 167.506 44.7238 167.679 44.4973L168.01 44.7532C167.907 44.9062 167.778 45.0473 167.622 45.1768C167.469 45.3062 167.285 45.4091 167.07 45.4856C166.855 45.5621 166.605 45.6003 166.32 45.6003Z" fill="#E3F0FF"/>
<path d="M162.444 40.7383V41.1971H159.65V40.7383H162.444ZM159.769 40.7383V45.5122H159.244V40.7383H159.769ZM162.877 40.7383V45.5122H162.347V40.7383H162.877Z" fill="#E3F0FF"/>
<path d="M156.128 45.1459C156.352 45.1459 156.561 45.1047 156.755 45.0223C156.952 44.937 157.114 44.812 157.241 44.6473C157.37 44.4796 157.444 44.2752 157.461 44.034H157.964C157.95 44.337 157.857 44.6076 157.686 44.8459C157.519 45.0812 157.298 45.2665 157.024 45.4018C156.754 45.5342 156.455 45.6003 156.128 45.6003C155.796 45.6003 155.501 45.54 155.245 45.4194C154.992 45.2988 154.78 45.1312 154.61 44.9164C154.439 44.6988 154.31 44.4458 154.221 44.1576C154.136 43.8664 154.093 43.5531 154.093 43.2178V43.0325C154.093 42.6971 154.136 42.3853 154.221 42.0971C154.31 41.8059 154.439 41.5529 154.61 41.3382C154.78 41.1205 154.992 40.9514 155.245 40.8308C155.499 40.7102 155.791 40.6499 156.124 40.6499C156.465 40.6499 156.771 40.719 157.042 40.8573C157.316 40.9955 157.533 41.1911 157.695 41.4441C157.86 41.6971 157.95 41.9971 157.964 42.3442H157.461C157.447 42.0883 157.379 41.8677 157.258 41.6823C157.138 41.497 156.979 41.3544 156.782 41.2544C156.584 41.1544 156.365 41.1044 156.124 41.1044C155.853 41.1044 155.622 41.1573 155.431 41.2632C155.24 41.3661 155.084 41.5088 154.963 41.6912C154.845 41.8706 154.758 42.0765 154.703 42.3089C154.647 42.5383 154.619 42.7795 154.619 43.0325V43.2178C154.619 43.4737 154.645 43.7178 154.698 43.9502C154.754 44.1796 154.841 44.3841 154.959 44.5635C155.079 44.7429 155.235 44.8856 155.426 44.9915C155.621 45.0944 155.855 45.1459 156.128 45.1459Z" fill="#E3F0FF"/>
<path d="M150.13 40.7383V45.5122H149.6V40.7383H150.13ZM153.273 40.7383L151.083 43.3238H149.945L149.887 42.8517H150.858L152.606 40.7383H153.273ZM152.796 45.5122L150.805 43.2532L151.141 42.8473L153.493 45.5122H152.796Z" fill="#E3F0FF"/>
<path d="M146.555 45.6003C146.243 45.6003 145.956 45.543 145.694 45.4283C145.435 45.3135 145.208 45.1518 145.014 44.9429C144.823 44.7341 144.674 44.487 144.568 44.2017C144.465 43.9134 144.414 43.5987 144.414 43.2575V43.0678C144.414 42.7001 144.468 42.3677 144.577 42.0706C144.686 41.7735 144.836 41.5191 145.027 41.3073C145.219 41.0955 145.436 40.9338 145.681 40.822C145.928 40.7073 146.187 40.6499 146.457 40.6499C146.761 40.6499 147.03 40.7043 147.265 40.8132C147.501 40.919 147.698 41.0705 147.857 41.2676C148.019 41.4617 148.141 41.6926 148.223 41.9603C148.305 42.225 148.347 42.5177 148.347 42.8383V43.1604H144.732V42.7104H147.821V42.6486C147.815 42.3809 147.761 42.1309 147.658 41.8985C147.558 41.6632 147.408 41.472 147.208 41.325C147.008 41.1779 146.758 41.1044 146.457 41.1044C146.234 41.1044 146.028 41.1514 145.839 41.2455C145.654 41.3397 145.494 41.475 145.358 41.6515C145.226 41.825 145.123 42.0324 145.049 42.2736C144.979 42.5118 144.943 42.7766 144.943 43.0678V43.2575C144.943 43.5222 144.982 43.7693 145.058 43.9987C145.138 44.2252 145.249 44.4252 145.394 44.5988C145.541 44.7723 145.714 44.9076 145.915 45.0047C146.115 45.1018 146.335 45.1503 146.577 45.1503C146.859 45.1503 147.109 45.0988 147.327 44.9959C147.545 44.89 147.74 44.7238 147.914 44.4973L148.245 44.7532C148.142 44.9062 148.013 45.0473 147.857 45.1768C147.704 45.3062 147.52 45.4091 147.305 45.4856C147.09 45.5621 146.84 45.6003 146.555 45.6003Z" fill="#E3F0FF"/>
<path d="M135.634 39.0884V46.7037H135.188V39.0884H135.634Z" fill="#E3F0FF"/>
<path d="M126.636 40.7383V41.1971H124.217V45.5122H123.692V40.7383H126.636Z" fill="#E3F0FF"/>
<path d="M121.653 42.8738V43.3238H118.819V42.8738H121.653ZM118.956 40.7383V45.5122H118.431V40.7383H118.956ZM122.059 40.7383V45.5122H121.529V40.7383H122.059Z" fill="#E3F0FF"/>
<path d="M116.771 40.7384V45.5123H116.246V40.7384H116.771ZM116.153 39.3574C116.153 39.2574 116.184 39.1735 116.246 39.1059C116.31 39.0353 116.399 39 116.511 39C116.622 39 116.711 39.0353 116.776 39.1059C116.843 39.1735 116.877 39.2574 116.877 39.3574C116.877 39.4545 116.843 39.5383 116.776 39.6089C116.711 39.6765 116.622 39.7104 116.511 39.7104C116.399 39.7104 116.31 39.6765 116.246 39.6089C116.184 39.5383 116.153 39.4545 116.153 39.3574Z" fill="#E3F0FF"/>
<path d="M114.176 42.8738V43.3238H111.342V42.8738H114.176ZM111.479 40.7383V45.5122H110.954V40.7383H111.479ZM114.582 40.7383V45.5122H114.052V40.7383H114.582Z" fill="#E3F0FF"/>
<path d="M105.746 42.9089V43.359H103.512V42.9089H105.746ZM103.967 40.7381V45.5121H103.441V40.7381H103.967ZM105.322 43.2001V43.0545C105.322 42.7074 105.372 42.3868 105.472 42.0927C105.572 41.7985 105.715 41.5441 105.9 41.3294C106.088 41.1146 106.313 40.9485 106.575 40.8308C106.837 40.7102 107.129 40.6499 107.449 40.6499C107.773 40.6499 108.066 40.7102 108.328 40.8308C108.59 40.9485 108.815 41.1146 109.003 41.3294C109.191 41.5441 109.336 41.7985 109.436 42.0927C109.536 42.3868 109.586 42.7074 109.586 43.0545V43.2001C109.586 43.5472 109.536 43.8678 109.436 44.162C109.336 44.4532 109.191 44.7061 109.003 44.9209C108.818 45.1356 108.594 45.3032 108.332 45.4238C108.07 45.5415 107.779 45.6003 107.458 45.6003C107.134 45.6003 106.842 45.5415 106.58 45.4238C106.318 45.3032 106.093 45.1356 105.904 44.9209C105.716 44.7061 105.572 44.4532 105.472 44.162C105.372 43.8678 105.322 43.5472 105.322 43.2001ZM105.851 43.0545V43.2001C105.851 43.4619 105.885 43.7105 105.953 43.9458C106.024 44.1782 106.127 44.3855 106.262 44.5679C106.4 44.7473 106.568 44.8885 106.765 44.9915C106.965 45.0944 107.196 45.1459 107.458 45.1459C107.717 45.1459 107.945 45.0944 108.142 44.9915C108.342 44.8885 108.51 44.7473 108.645 44.5679C108.781 44.3855 108.884 44.1782 108.954 43.9458C109.025 43.7105 109.06 43.4619 109.06 43.2001V43.0545C109.06 42.7957 109.025 42.5501 108.954 42.3177C108.884 42.0853 108.779 41.878 108.641 41.6956C108.506 41.5132 108.338 41.3691 108.138 41.2632C107.938 41.1573 107.708 41.1044 107.449 41.1044C107.19 41.1044 106.962 41.1573 106.765 41.2632C106.568 41.3691 106.4 41.5132 106.262 41.6956C106.127 41.878 106.024 42.0853 105.953 42.3177C105.885 42.5501 105.851 42.7957 105.851 43.0545Z" fill="#E3F0FF"/>
<path d="M100.59 40.7383V45.5122H100.065V40.7383H100.59ZM102.33 40.7383V41.1883H98.3878V40.7383H102.33Z" fill="#E3F0FF"/>
<path d="M89.8278 39.0884V46.7037H89.3818V39.0884H89.8278Z" fill="#E3F0FF"/>
<path d="M79.0565 40.7383V45.5122H78.5313V40.7383H79.0565ZM80.7956 40.7383V41.1883H76.8539V40.7383H80.7956Z" fill="#E3F0FF"/>
<path d="M75.3623 42.8738V43.3238H72.5285V42.8738H75.3623ZM72.6653 40.7383V45.5122H72.1401V40.7383H72.6653ZM75.7684 40.7383V45.5122H75.2387V40.7383H75.7684Z" fill="#E3F0FF"/>
<path d="M66.5649 43.2001V43.0545C66.5649 42.7074 66.615 42.3868 66.715 42.0927C66.8151 41.7985 66.9578 41.5441 67.1432 41.3294C67.3315 41.1146 67.5566 40.9485 67.8185 40.8308C68.0804 40.7102 68.3717 40.6499 68.6925 40.6499C69.0162 40.6499 69.309 40.7102 69.5709 40.8308C69.8328 40.9485 70.0579 41.1146 70.2462 41.3294C70.4345 41.5441 70.5787 41.7985 70.6788 42.0927C70.7788 42.3868 70.8289 42.7074 70.8289 43.0545V43.2001C70.8289 43.5472 70.7788 43.8678 70.6788 44.162C70.5787 44.4532 70.4345 44.7061 70.2462 44.9209C70.0608 45.1356 69.8372 45.3032 69.5753 45.4238C69.3134 45.5415 69.0221 45.6003 68.7013 45.6003C68.3776 45.6003 68.0848 45.5415 67.8229 45.4238C67.561 45.3032 67.3359 45.1356 67.1476 44.9209C66.9593 44.7061 66.8151 44.4532 66.715 44.162C66.615 43.8678 66.5649 43.5472 66.5649 43.2001ZM67.0902 43.0545V43.2001C67.0902 43.4619 67.1255 43.7105 67.1961 43.9458C67.2668 44.1782 67.3698 44.3855 67.5051 44.5679C67.6405 44.7473 67.8082 44.8885 68.0083 44.9915C68.2084 45.0944 68.4394 45.1459 68.7013 45.1459C68.9603 45.1459 69.1883 45.0944 69.3855 44.9915C69.5856 44.8885 69.7533 44.7473 69.8887 44.5679C70.024 44.3855 70.1256 44.1782 70.1932 43.9458C70.2639 43.7105 70.2992 43.4619 70.2992 43.2001V43.0545C70.2992 42.7957 70.2639 42.5501 70.1932 42.3177C70.1256 42.0853 70.0226 41.878 69.8843 41.6956C69.7489 41.5132 69.5812 41.3691 69.3811 41.2632C69.181 41.1573 68.9514 41.1044 68.6925 41.1044C68.4335 41.1044 68.204 41.1573 68.0039 41.2632C67.8067 41.3691 67.639 41.5132 67.5007 41.6956C67.3653 41.878 67.2624 42.0853 67.1917 42.3177C67.124 42.5501 67.0902 42.7957 67.0902 43.0545Z" fill="#E3F0FF"/>
<path d="M62.7029 44.7886L64.6009 40.7383H65.1261L62.8882 45.5122H62.5175L60.284 40.7383H60.8092L62.7029 44.7886ZM60.6459 40.7383V45.5122H60.1207V40.7383H60.6459ZM64.7245 45.5122V40.7383H65.2541V45.5122H64.7245Z" fill="#E3F0FF"/>
<path d="M57.0485 45.6003C56.7366 45.6003 56.4497 45.543 56.1878 45.4283C55.9288 45.3135 55.7022 45.1518 55.508 44.9429C55.3167 44.7341 55.1681 44.487 55.0622 44.2017C54.9592 43.9134 54.9077 43.5987 54.9077 43.2575V43.0678C54.9077 42.7001 54.9622 42.3677 55.071 42.0706C55.1799 41.7735 55.33 41.5191 55.5213 41.3073C55.7125 41.0955 55.9303 40.9338 56.1745 40.822C56.4217 40.7073 56.6807 40.6499 56.9514 40.6499C57.2545 40.6499 57.5237 40.7043 57.7592 40.8132C57.9946 40.919 58.1917 41.0705 58.3506 41.2676C58.5125 41.4617 58.6346 41.6926 58.717 41.9603C58.7994 42.225 58.8406 42.5177 58.8406 42.8383V43.1604H55.2255V42.7104H58.3153V42.6486C58.3094 42.3809 58.255 42.1309 58.152 41.8985C58.0519 41.6632 57.9019 41.472 57.7018 41.325C57.5017 41.1779 57.2515 41.1044 56.9514 41.1044C56.7277 41.1044 56.5218 41.1514 56.3334 41.2455C56.148 41.3397 55.9877 41.475 55.8523 41.6515C55.7199 41.825 55.6169 42.0324 55.5433 42.2736C55.4727 42.5118 55.4374 42.7766 55.4374 43.0678V43.2575C55.4374 43.5222 55.4756 43.7693 55.5522 43.9987C55.6316 44.2252 55.7434 44.4252 55.8876 44.5988C56.0348 44.7723 56.2084 44.9076 56.4085 45.0047C56.6086 45.1018 56.8293 45.1503 57.0706 45.1503C57.3531 45.1503 57.6032 45.0988 57.8209 44.9959C58.0387 44.89 58.2344 44.7238 58.408 44.4973L58.7391 44.7532C58.6361 44.9062 58.5066 45.0473 58.3506 45.1768C58.1976 45.3062 58.0137 45.4091 57.7989 45.4856C57.5841 45.5621 57.3339 45.6003 57.0485 45.6003Z" fill="#E3F0FF"/>
<path d="M50.5294 41.6559V47.3475H49.9998V40.7381H50.4941L50.5294 41.6559ZM53.8488 43.081V43.1737C53.8488 43.5296 53.8076 43.8561 53.7252 44.1531C53.6428 44.4502 53.5236 44.7076 53.3676 44.9253C53.2146 45.14 53.0248 45.3062 52.7982 45.4238C52.5716 45.5415 52.3142 45.6003 52.0258 45.6003C51.7403 45.6003 51.4858 45.5562 51.2622 45.468C51.0385 45.3797 50.8458 45.2547 50.6839 45.0929C50.525 44.9282 50.397 44.737 50.2999 44.5194C50.2057 44.2987 50.1395 44.0576 50.1013 43.7958V42.5736C50.1454 42.2853 50.2175 42.0236 50.3176 41.7882C50.4176 41.5529 50.5456 41.35 50.7016 41.1794C50.8605 41.0088 51.0488 40.8779 51.2666 40.7867C51.4843 40.6955 51.733 40.6499 52.0125 40.6499C52.3039 40.6499 52.5628 40.7073 52.7894 40.822C53.0189 40.9338 53.2117 41.097 53.3676 41.3117C53.5265 41.5235 53.6457 41.7794 53.7252 42.0794C53.8076 42.3765 53.8488 42.7104 53.8488 43.081ZM53.3191 43.1737V43.081C53.3191 42.8016 53.2896 42.5427 53.2308 42.3045C53.1749 42.0662 53.0881 41.8588 52.9704 41.6823C52.8556 41.5029 52.7085 41.3632 52.529 41.2632C52.3524 41.1632 52.142 41.1132 51.8978 41.1132C51.6447 41.1132 51.4284 41.1558 51.2489 41.2411C51.0724 41.3235 50.9252 41.4338 50.8075 41.572C50.6898 41.7073 50.5971 41.8559 50.5294 42.0177C50.4618 42.1794 50.4117 42.3383 50.3794 42.4942V43.9017C50.4353 44.1252 50.525 44.3326 50.6486 44.5238C50.7722 44.712 50.937 44.8635 51.143 44.9782C51.3519 45.09 51.6064 45.1459 51.9066 45.1459C52.1479 45.1459 52.3568 45.0959 52.5334 44.9959C52.7099 44.8959 52.8556 44.7561 52.9704 44.5767C53.0881 44.3973 53.1749 44.1884 53.2308 43.9502C53.2896 43.7119 53.3191 43.4531 53.3191 43.1737Z" fill="#E3F0FF"/>
<path d="M186.213 32C184.94 32 183.906 31.7751 183.109 31.3252C182.312 30.8635 181.699 30.2124 181.271 29.3718C180.843 28.5313 180.546 27.5427 180.379 26.4062C180.225 25.2579 180.147 23.9911 180.147 22.606V19.5694H183.733V22.7481C183.733 24.9382 183.888 26.5068 184.197 27.4539C184.518 28.3892 185.202 28.8568 186.249 28.8568C186.974 28.8568 187.503 28.6911 187.836 28.3596C188.181 28.0163 188.401 27.4717 188.497 26.7259C188.592 25.98 188.639 24.9974 188.639 23.778C188.639 22.3811 188.39 21.1794 187.89 20.1731C187.402 19.1669 186.695 18.202 185.767 17.2786L183.715 15.2364C183.121 14.6326 182.538 13.9756 181.967 13.2653C181.396 12.5431 180.92 11.7262 180.54 10.8147C180.171 9.90307 179.987 8.86127 179.987 7.68923C179.987 6.11469 180.153 4.75324 180.486 3.60488C180.819 2.45653 181.426 1.56863 182.306 0.941176C183.186 0.313725 184.435 0 186.052 0C187.325 0 188.342 0.219016 189.103 0.657048C189.876 1.09508 190.453 1.72253 190.834 2.5394C191.226 3.34443 191.482 4.30337 191.601 5.4162C191.732 6.52904 191.797 7.76027 191.797 9.10988V10.9567H188.265V8.86127C188.265 7.59452 188.211 6.54088 188.104 5.70033C188.009 4.84795 187.807 4.20866 187.498 3.78246C187.188 3.35627 186.707 3.14317 186.052 3.14317C185.458 3.14317 184.97 3.29116 184.59 3.58713C184.221 3.87125 183.953 4.31521 183.787 4.91898C183.62 5.52275 183.537 6.29819 183.537 7.24528C183.537 8.07399 183.638 8.76064 183.84 9.30522C184.042 9.83796 184.346 10.3352 184.75 10.7969C185.166 11.2586 185.672 11.8032 186.267 12.4306L188.407 14.6859C189.537 15.8579 190.459 17.172 191.173 18.6282C191.898 20.0725 192.261 21.7536 192.261 23.6715C192.261 25.3999 192.089 26.8857 191.744 28.1287C191.411 29.3718 190.81 30.3307 189.942 31.0055C189.073 31.6685 187.831 32 186.213 32Z" fill="#B3C3D4"/>
<path d="M167.659 31.6448V0.390625H177.043V3.44501H171.352V14.1354H176.739V17.1897H171.352V28.5904H177.114V31.6448H167.659Z" fill="#B3C3D4"/>
<path d="M149.568 31.6448V0.390625H152.351L159.63 21.6648L159.255 12.6259V0.390625H162.52V31.6448H159.808L152.761 10.1931L152.975 18.0776V31.6448H149.568Z" fill="#B3C3D4"/>
<path d="M140.719 31.6448V0.390625H144.412V31.6448H140.719Z" fill="#B3C3D4"/>
<path d="M129.248 31.9467C127.428 31.9467 126.03 31.2008 125.055 29.7092C124.08 28.2175 123.592 25.761 123.592 22.3396V9.23413C123.592 7.86084 123.687 6.61778 123.877 5.50494C124.08 4.38027 124.419 3.40949 124.894 2.59262C125.37 1.77575 126.018 1.1483 126.839 0.71027C127.672 0.272239 128.718 0.0532227 129.979 0.0532227C131.287 0.0532227 132.328 0.278158 133.101 0.728028C133.886 1.16606 134.481 1.79351 134.885 2.61038C135.29 3.42725 135.557 4.40394 135.688 5.54046C135.819 6.67697 135.884 7.93188 135.884 9.30516V11.7203H132.316V7.65367C132.316 6.13831 132.161 5.01956 131.852 4.2974C131.555 3.5634 130.93 3.1964 129.979 3.1964C128.968 3.1964 128.266 3.62851 127.874 4.49273C127.481 5.35696 127.285 6.88415 127.285 9.07431V22.2153C127.285 24.6067 127.446 26.3174 127.767 27.3473C128.1 28.3773 128.801 28.8923 129.872 28.8923C130.895 28.8923 131.585 28.3773 131.941 27.3473C132.31 26.3055 132.494 24.5712 132.494 22.1442V18.0776H129.943V15.2364H135.884V31.6448H133.94L133.44 29.2297C133.107 30.1058 132.578 30.7806 131.852 31.2541C131.139 31.7158 130.27 31.9467 129.248 31.9467Z" fill="#B3C3D4"/>
<path d="M105.859 31.6448V0.390625H108.642L115.921 21.6648L115.546 12.6259V0.390625H118.811V31.6448H116.099L109.052 10.1931L109.266 18.0776V31.6448H105.859Z" fill="#B3C3D4"/>
<path d="M92.3717 31.6448V0.390625H101.756V3.44501H96.0647V14.1354H101.453V17.1897H96.0647V28.5904H101.827V31.6448H92.3717Z" fill="#B3C3D4"/>
<path d="M67.609 31.6448V0.390625H73.9246C75.1734 0.390625 76.1844 0.597802 76.9575 1.01216C77.7425 1.42651 78.3431 2.02437 78.7594 2.80572C79.1757 3.58707 79.4552 4.52825 79.5979 5.62925C79.7525 6.73025 79.8298 7.96739 79.8298 9.34068V9.82015C79.8298 11.9156 79.6633 13.6736 79.3303 15.0943C79.0091 16.5149 78.4204 17.5863 77.5641 18.3085C76.7196 19.0188 75.5064 19.374 73.9246 19.374H71.302V31.6448H67.609ZM71.302 16.3196H73.5499C74.2754 16.3196 74.8226 16.1183 75.1913 15.7158C75.56 15.3015 75.8097 14.6207 75.9406 13.6736C76.0833 12.7265 76.1547 11.442 76.1547 9.82015V9.21637C76.1547 7.2038 76 5.71804 75.6908 4.7591C75.3816 3.78833 74.6977 3.30294 73.6391 3.30294H71.302V16.3196Z" fill="#B3C3D4"/>
<path d="M55.227 31.6448L49.9998 0.390625H53.5144L55.6017 13.6204L57.3858 25.2519H57.4571L59.0093 13.6204L60.8112 0.390625H64.2901L59.5266 31.6448H55.227Z" fill="#B3C3D4"/>
</svg>
