<svg width="218" height="57" viewBox="0 0 218 57" fill="none" xmlns="http://www.w3.org/2000/svg">
<path d="M8.80713 50.0289L16.8363 4.4143C17.2654 1.97634 19.5862 0.348457 22.0198 0.778313C24.4534 1.20818 26.0784 3.53301 25.6492 5.97096L17.6204 51.5857C17.1913 54.0236 14.8702 55.6515 12.4366 55.2216C10.003 54.7917 8.378 52.4669 8.80713 50.0289Z" fill="#B3C3D4"/>
<path d="M17.6195 50.029L9.59034 4.41432C9.1612 1.97636 6.84045 0.348476 4.40685 0.778332C1.9732 1.2082 0.348249 3.53302 0.777381 5.97098L8.80615 51.5857C9.23529 54.0237 11.5564 55.6515 13.99 55.2216C16.4236 54.7918 18.0486 52.4669 17.6195 50.029Z" fill="#E3F0FF"/>
<path d="M29.667 27.1448L33.6951 50.0289C34.1242 52.4669 32.4992 54.7917 30.0656 55.2216C27.6319 55.6515 25.3109 54.0236 24.8817 51.5857L18.6658 16.2704C18.6575 16.2607 18.6494 16.2505 18.6415 16.24C18.5511 16.1199 18.5059 15.9855 18.5059 15.8368V15.3617L16.853 5.97096C16.4238 3.53301 18.0488 1.20818 20.4824 0.778313C22.7725 0.373819 24.9626 1.79141 25.5706 3.9915L26.9984 5.11217C27.4956 4.84906 28.0098 4.63171 28.541 4.46012C28.7218 2.90433 28.8856 1.84045 29.0325 1.26847C29.1116 0.948161 29.3151 0.788006 29.6428 0.788006H33.4059C33.5642 0.788006 33.7026 0.836625 33.8213 0.933861C33.9399 1.0311 34.0049 1.15407 34.0162 1.30279L34.4908 4.46012C35.0446 4.64315 35.5531 4.85478 36.0164 5.09502L38.4235 3.25896C38.5252 3.156 38.6608 3.10453 38.8303 3.10453C38.9772 3.10453 39.1185 3.16172 39.2541 3.27612C40.7119 4.63743 41.6442 5.6098 42.0511 6.19322C42.1302 6.28473 42.1697 6.41057 42.1697 6.57072C42.1697 6.708 42.1245 6.83955 42.0341 6.96539C41.8646 7.20562 41.5764 7.58599 41.1696 8.10649C40.7628 8.62699 40.4576 9.03024 40.2542 9.31623C40.548 9.88821 40.7797 10.4487 40.9492 10.9978L44.0513 11.4783C44.1982 11.5012 44.3169 11.5727 44.4073 11.6928C44.4977 11.8129 44.5429 11.9473 44.5429 12.0961V15.9054C44.5429 16.0427 44.4977 16.1743 44.4073 16.3001C44.3169 16.4259 44.2039 16.5003 44.0682 16.5232L40.9323 17.0036C40.7176 17.6214 40.4972 18.1419 40.2712 18.5651C40.6667 19.1371 41.2713 19.9265 42.085 20.9331C42.198 21.0704 42.2545 21.2134 42.2545 21.3621C42.2545 21.5108 42.2036 21.6424 42.1019 21.7568C41.7968 22.1801 41.2374 22.7978 40.4237 23.61C39.6101 24.4222 39.0789 24.8283 38.8303 24.8283C38.6947 24.8283 38.5478 24.7768 38.3896 24.6739L36.0503 22.8207C35.5531 23.0838 35.0389 23.3011 34.5078 23.4727C34.327 25.0285 34.1631 26.0924 34.0162 26.6644C33.9371 26.9847 33.7337 27.1448 33.4059 27.1448H29.667Z" fill="#E3F0FF"/>
<path d="M35.9442 13.6894C35.9442 16.1155 33.9809 18.0822 31.559 18.0822C29.1371 18.0822 27.1738 16.1155 27.1738 13.6894C27.1738 11.2633 29.1371 9.2966 31.559 9.2966C33.9809 9.2966 35.9442 11.2633 35.9442 13.6894Z" fill="#B3C3D4"/>
<line x1="54" y1="42.5" x2="217.515" y2="42.5" stroke="#B3C3D4"/>
<path d="M214.391 53.4075V50.6186C214.391 50.362 214.337 50.1404 214.231 49.9538C214.124 49.7672 213.967 49.624 213.761 49.524C213.554 49.424 213.299 49.3741 212.996 49.3741C212.716 49.3741 212.466 49.424 212.246 49.524C212.029 49.6206 211.857 49.7522 211.731 49.9188C211.607 50.0821 211.546 50.2637 211.546 50.4636L210.946 50.4586C210.946 50.2554 210.996 50.0588 211.096 49.8689C211.196 49.6789 211.337 49.509 211.521 49.3591C211.704 49.2091 211.922 49.0908 212.176 49.0042C212.432 48.9142 212.714 48.8693 213.021 48.8693C213.407 48.8693 213.747 48.9342 214.041 49.0642C214.337 49.1941 214.569 49.389 214.736 49.6489C214.902 49.9088 214.986 50.2354 214.986 50.6286V53.2425C214.986 53.4291 214.999 53.6224 215.026 53.8223C215.056 54.0222 215.097 54.1872 215.151 54.3171V54.3771H214.516C214.476 54.2571 214.444 54.1072 214.421 53.9273C214.401 53.744 214.391 53.5707 214.391 53.4075ZM214.531 51.2283L214.541 51.6881H213.366C213.059 51.6881 212.784 51.7165 212.541 51.7731C212.301 51.8264 212.097 51.9064 211.931 52.013C211.764 52.1163 211.636 52.2413 211.546 52.3879C211.459 52.5345 211.416 52.7011 211.416 52.8877C211.416 53.0809 211.464 53.2575 211.561 53.4175C211.661 53.5774 211.801 53.7057 211.981 53.8023C212.164 53.8956 212.381 53.9423 212.631 53.9423C212.964 53.9423 213.257 53.8806 213.511 53.7573C213.767 53.6341 213.979 53.4725 214.146 53.2725C214.312 53.0726 214.424 52.8544 214.481 52.6178L214.741 52.9627C214.697 53.1293 214.617 53.3009 214.501 53.4774C214.387 53.6507 214.239 53.814 214.056 53.9673C213.872 54.1172 213.656 54.2405 213.406 54.3371C213.159 54.4304 212.879 54.4771 212.566 54.4771C212.212 54.4771 211.904 54.4104 211.641 54.2771C211.381 54.1439 211.177 53.9623 211.031 53.7323C210.887 53.4991 210.816 53.2359 210.816 52.9427C210.816 52.6761 210.872 52.4379 210.986 52.2279C211.099 52.0147 211.262 51.8348 211.476 51.6881C211.692 51.5382 211.952 51.4249 212.256 51.3483C212.562 51.2683 212.906 51.2283 213.286 51.2283H214.531Z" fill="#E3F0FF"/>
<path d="M207.576 51.7581H206.706V51.3533H207.526C207.859 51.3533 208.124 51.315 208.321 51.2383C208.518 51.1584 208.659 51.0467 208.746 50.9035C208.833 50.7602 208.876 50.5919 208.876 50.3986C208.876 50.2121 208.829 50.0421 208.736 49.8888C208.646 49.7356 208.501 49.6123 208.301 49.519C208.101 49.4257 207.836 49.379 207.506 49.379C207.253 49.379 207.019 49.424 206.806 49.514C206.593 49.604 206.421 49.7272 206.291 49.8839C206.164 50.0405 206.101 50.2221 206.101 50.4286H205.501C205.501 50.1088 205.594 49.8322 205.781 49.599C205.968 49.3657 206.213 49.1858 206.516 49.0592C206.823 48.9326 207.153 48.8692 207.506 48.8692C207.813 48.8692 208.088 48.9026 208.331 48.9692C208.574 49.0358 208.781 49.1341 208.951 49.2641C209.121 49.394 209.251 49.5556 209.341 49.7489C209.431 49.9388 209.476 50.1571 209.476 50.4036C209.476 50.5902 209.433 50.7652 209.346 50.9284C209.263 51.0917 209.139 51.2367 208.976 51.3633C208.816 51.4866 208.618 51.5832 208.381 51.6532C208.148 51.7231 207.879 51.7581 207.576 51.7581ZM206.706 51.4832H207.576C207.909 51.4832 208.201 51.5149 208.451 51.5782C208.701 51.6382 208.909 51.7281 209.076 51.8481C209.243 51.968 209.366 52.1163 209.446 52.2929C209.529 52.4662 209.571 52.6661 209.571 52.8927C209.571 53.1392 209.521 53.3608 209.421 53.5574C209.324 53.754 209.184 53.9206 209.001 54.0572C208.818 54.1938 208.599 54.2971 208.346 54.3671C208.093 54.4371 207.813 54.4721 207.506 54.4721C207.176 54.4721 206.849 54.4137 206.526 54.2971C206.206 54.1805 205.941 54.0006 205.731 53.7573C205.521 53.5141 205.416 53.2042 205.416 52.8277H206.011C206.011 53.0343 206.076 53.2242 206.206 53.3975C206.336 53.5707 206.513 53.709 206.736 53.8123C206.963 53.9156 207.219 53.9673 207.506 53.9673C207.829 53.9673 208.099 53.9223 208.316 53.8323C208.533 53.739 208.696 53.6124 208.806 53.4525C208.916 53.2925 208.971 53.1093 208.971 52.9027C208.971 52.6594 208.918 52.4628 208.811 52.3129C208.708 52.163 208.549 52.053 208.336 51.983C208.123 51.9131 207.853 51.8781 207.526 51.8781H206.706V51.4832Z" fill="#E3F0FF"/>
<path d="M200.371 53.4076L203.296 48.9693H203.896V54.3772H203.296V49.9389L200.371 54.3772H199.781V48.9693H200.371V53.4076Z" fill="#E3F0FF"/>
<path d="M196.576 48.9693V54.3772H195.981V48.9693H196.576ZM198.546 48.9693V49.4791H194.081V48.9693H198.546Z" fill="#E3F0FF"/>
<path d="M189.771 50.0088V56.4563H189.171V48.9692H189.731L189.771 50.0088ZM193.531 51.6232V51.7281C193.531 52.1313 193.485 52.5012 193.391 52.8377C193.298 53.1742 193.163 53.4658 192.986 53.7124C192.813 53.9556 192.598 54.1439 192.341 54.2771C192.084 54.4104 191.793 54.4771 191.466 54.4771C191.143 54.4771 190.854 54.4271 190.601 54.3271C190.348 54.2272 190.129 54.0855 189.946 53.9023C189.766 53.7157 189.621 53.4991 189.511 53.2525C189.404 53.0026 189.329 52.7294 189.286 52.4329V51.0484C189.336 50.7219 189.418 50.4253 189.531 50.1587C189.644 49.8922 189.789 49.6623 189.966 49.469C190.146 49.2758 190.359 49.1275 190.606 49.0242C190.853 48.9209 191.134 48.8693 191.451 48.8693C191.781 48.8693 192.074 48.9342 192.331 49.0642C192.591 49.1908 192.81 49.3757 192.986 49.619C193.166 49.8589 193.301 50.1488 193.391 50.4886C193.485 50.8252 193.531 51.2033 193.531 51.6232ZM192.931 51.7281V51.6232C192.931 51.3066 192.898 51.0134 192.831 50.7435C192.768 50.4736 192.67 50.2387 192.536 50.0388C192.406 49.8355 192.24 49.6773 192.036 49.564C191.836 49.4507 191.598 49.394 191.321 49.394C191.034 49.394 190.789 49.4424 190.586 49.539C190.386 49.6323 190.219 49.7572 190.086 49.9138C189.953 50.0671 189.848 50.2354 189.771 50.4186C189.694 50.6019 189.638 50.7818 189.601 50.9584V52.5528C189.664 52.806 189.766 53.041 189.906 53.2575C190.046 53.4708 190.233 53.6424 190.466 53.7723C190.703 53.899 190.991 53.9623 191.331 53.9623C191.604 53.9623 191.841 53.9056 192.041 53.7923C192.241 53.679 192.406 53.5208 192.536 53.3175C192.67 53.1143 192.768 52.8777 192.831 52.6078C192.898 52.3379 192.931 52.0447 192.931 51.7281Z" fill="#E3F0FF"/>
<path d="M185.766 54.4771C185.413 54.4771 185.088 54.4121 184.791 54.2821C184.498 54.1522 184.241 53.9689 184.021 53.7323C183.804 53.4958 183.636 53.2159 183.516 52.8927C183.399 52.5661 183.341 52.2096 183.341 51.8231V51.6082C183.341 51.1917 183.403 50.8152 183.526 50.4786C183.649 50.1421 183.819 49.8539 184.036 49.614C184.253 49.3741 184.499 49.1908 184.776 49.0642C185.056 48.9342 185.349 48.8693 185.656 48.8693C185.999 48.8693 186.304 48.9309 186.571 49.0542C186.838 49.1741 187.061 49.3457 187.241 49.569C187.424 49.7889 187.563 50.0505 187.656 50.3537C187.749 50.6536 187.796 50.9851 187.796 51.3483V51.7131H183.701V51.2033H187.201V51.1334C187.194 50.8302 187.133 50.5469 187.016 50.2837C186.903 50.0171 186.733 49.8006 186.506 49.634C186.279 49.4674 185.996 49.384 185.656 49.384C185.403 49.384 185.169 49.4374 184.956 49.544C184.746 49.6506 184.564 49.8039 184.411 50.0038C184.261 50.2004 184.144 50.4353 184.061 50.7085C183.981 50.9784 183.941 51.2783 183.941 51.6082V51.8231C183.941 52.123 183.984 52.4029 184.071 52.6628C184.161 52.9193 184.288 53.1459 184.451 53.3425C184.618 53.5391 184.814 53.6924 185.041 53.8023C185.268 53.9123 185.518 53.9673 185.791 53.9673C186.111 53.9673 186.394 53.9089 186.641 53.7923C186.888 53.6724 187.109 53.4841 187.306 53.2275L187.681 53.5174C187.564 53.6907 187.418 53.8506 187.241 53.9972C187.068 54.1439 186.859 54.2605 186.616 54.3471C186.373 54.4337 186.089 54.4771 185.766 54.4771Z" fill="#E3F0FF"/>
<path d="M181.376 48.9693V49.4891H178.211V48.9693H181.376ZM178.346 48.9693V54.3772H177.751V48.9693H178.346ZM181.866 48.9693V54.3772H181.266V48.9693H181.866Z" fill="#E3F0FF"/>
<path d="M174.221 53.9623C174.475 53.9623 174.711 53.9156 174.931 53.8223C175.155 53.7257 175.338 53.5841 175.481 53.3975C175.628 53.2076 175.711 52.976 175.731 52.7028H176.301C176.285 53.046 176.18 53.3525 175.986 53.6224C175.796 53.889 175.546 54.0989 175.236 54.2521C174.93 54.4021 174.591 54.4771 174.221 54.4771C173.844 54.4771 173.511 54.4088 173.221 54.2721C172.934 54.1355 172.694 53.9456 172.501 53.7024C172.308 53.4558 172.161 53.1692 172.061 52.8427C171.964 52.5128 171.916 52.158 171.916 51.7781V51.5682C171.916 51.1883 171.964 50.8351 172.061 50.5086C172.161 50.1787 172.308 49.8922 172.501 49.6489C172.694 49.4024 172.934 49.2108 173.221 49.0742C173.508 48.9376 173.839 48.8693 174.216 48.8693C174.603 48.8693 174.95 48.9476 175.256 49.1042C175.566 49.2608 175.813 49.4823 175.996 49.7689C176.183 50.0555 176.285 50.3953 176.301 50.7885H175.731C175.715 50.4986 175.638 50.2487 175.501 50.0388C175.365 49.8289 175.185 49.6673 174.961 49.554C174.738 49.4407 174.49 49.384 174.216 49.384C173.909 49.384 173.648 49.444 173.431 49.564C173.214 49.6806 173.038 49.8422 172.901 50.0488C172.768 50.252 172.669 50.4853 172.606 50.7485C172.543 51.0084 172.511 51.2816 172.511 51.5682V51.7781C172.511 52.068 172.541 52.3446 172.601 52.6078C172.664 52.8677 172.763 53.0993 172.896 53.3025C173.033 53.5058 173.209 53.6674 173.426 53.7873C173.646 53.9039 173.911 53.9623 174.221 53.9623Z" fill="#E3F0FF"/>
<path d="M167.426 48.9693V54.3772H166.826V48.9693H167.426ZM170.986 48.9693L168.506 51.8981H167.216L167.151 51.3634H168.251L170.231 48.9693H170.986ZM170.446 54.3772L168.191 51.8182L168.571 51.3584L171.236 54.3772H170.446Z" fill="#E3F0FF"/>
<path d="M163.376 54.4771C163.023 54.4771 162.698 54.4121 162.401 54.2821C162.108 54.1522 161.851 53.9689 161.631 53.7323C161.414 53.4958 161.246 53.2159 161.126 52.8927C161.009 52.5661 160.951 52.2096 160.951 51.8231V51.6082C160.951 51.1917 161.013 50.8152 161.136 50.4786C161.259 50.1421 161.429 49.8539 161.646 49.614C161.863 49.3741 162.109 49.1908 162.386 49.0642C162.666 48.9342 162.959 48.8693 163.266 48.8693C163.609 48.8693 163.915 48.9309 164.181 49.0542C164.448 49.1741 164.671 49.3457 164.851 49.569C165.035 49.7889 165.173 50.0505 165.266 50.3537C165.36 50.6536 165.406 50.9851 165.406 51.3483V51.7131H161.311V51.2033H164.811V51.1334C164.805 50.8302 164.743 50.5469 164.626 50.2837C164.513 50.0171 164.343 49.8006 164.116 49.634C163.89 49.4674 163.606 49.384 163.266 49.384C163.013 49.384 162.779 49.4374 162.566 49.544C162.356 49.6506 162.174 49.8039 162.021 50.0038C161.871 50.2004 161.754 50.4353 161.671 50.7085C161.591 50.9784 161.551 51.2783 161.551 51.6082V51.8231C161.551 52.123 161.594 52.4029 161.681 52.6628C161.771 52.9193 161.898 53.1459 162.061 53.3425C162.228 53.5391 162.424 53.6924 162.651 53.8023C162.878 53.9123 163.128 53.9673 163.401 53.9673C163.721 53.9673 164.005 53.9089 164.251 53.7923C164.498 53.6724 164.72 53.4841 164.916 53.2275L165.291 53.5174C165.175 53.6907 165.028 53.8506 164.851 53.9972C164.678 54.1439 164.47 54.2605 164.226 54.3471C163.983 54.4337 163.699 54.4771 163.376 54.4771Z" fill="#E3F0FF"/>
<path d="M151.005 47.0999V55.7266H150.5V47.0999H151.005Z" fill="#E3F0FF"/>
<path d="M140.813 48.9693V49.4891H138.073V54.3772H137.478V48.9693H140.813Z" fill="#E3F0FF"/>
<path d="M135.168 51.3884V51.8982H131.958V51.3884H135.168ZM132.113 48.9693V54.3772H131.518V48.9693H132.113ZM135.628 48.9693V54.3772H135.028V48.9693H135.628Z" fill="#E3F0FF"/>
<path d="M129.638 48.9692V54.3771H129.043V48.9692H129.638ZM128.937 47.4048C128.937 47.2916 128.972 47.1966 129.043 47.12C129.116 47.04 129.216 47 129.343 47C129.469 47 129.569 47.04 129.643 47.12C129.719 47.1966 129.758 47.2916 129.758 47.4048C129.758 47.5148 129.719 47.6098 129.643 47.6897C129.569 47.7664 129.469 47.8047 129.343 47.8047C129.216 47.8047 129.116 47.7664 129.043 47.6897C128.972 47.6098 128.937 47.5148 128.937 47.4048Z" fill="#E3F0FF"/>
<path d="M126.698 51.3884V51.8982H123.488V51.3884H126.698ZM123.643 48.9693V54.3772H123.048V48.9693H123.643ZM127.158 48.9693V54.3772H126.558V48.9693H127.158Z" fill="#E3F0FF"/>
<path d="M117.148 51.4283V51.9381H114.618V51.4283H117.148ZM115.133 48.9692V54.3771H114.538V48.9692H115.133ZM116.668 51.7581V51.5932C116.668 51.2 116.725 50.8368 116.838 50.5036C116.951 50.1704 117.113 49.8822 117.323 49.639C117.536 49.3957 117.791 49.2075 118.088 49.0742C118.385 48.9376 118.715 48.8693 119.078 48.8693C119.445 48.8693 119.776 48.9376 120.073 49.0742C120.37 49.2075 120.625 49.3957 120.838 49.639C121.052 49.8822 121.215 50.1704 121.328 50.5036C121.442 50.8368 121.498 51.2 121.498 51.5932V51.7581C121.498 52.1513 121.442 52.5145 121.328 52.8477C121.215 53.1776 121.052 53.4641 120.838 53.7074C120.628 53.9506 120.375 54.1405 120.078 54.2771C119.781 54.4104 119.451 54.4771 119.088 54.4771C118.721 54.4771 118.39 54.4104 118.093 54.2771C117.796 54.1405 117.541 53.9506 117.328 53.7074C117.115 53.4641 116.951 53.1776 116.838 52.8477C116.725 52.5145 116.668 52.1513 116.668 51.7581ZM117.268 51.5932V51.7581C117.268 52.0547 117.306 52.3362 117.383 52.6028C117.463 52.866 117.58 53.1009 117.733 53.3075C117.89 53.5108 118.08 53.6707 118.303 53.7873C118.53 53.9039 118.791 53.9623 119.088 53.9623C119.381 53.9623 119.64 53.9039 119.863 53.7873C120.09 53.6707 120.28 53.5108 120.433 53.3075C120.587 53.1009 120.703 52.866 120.783 52.6028C120.863 52.3362 120.903 52.0547 120.903 51.7581V51.5932C120.903 51.3 120.863 51.0217 120.783 50.7585C120.703 50.4953 120.585 50.2604 120.428 50.0538C120.275 49.8472 120.085 49.6839 119.858 49.564C119.631 49.444 119.371 49.384 119.078 49.384C118.785 49.384 118.526 49.444 118.303 49.564C118.08 49.6839 117.89 49.8472 117.733 50.0538C117.58 50.2604 117.463 50.4953 117.383 50.7585C117.306 51.0217 117.268 51.3 117.268 51.5932Z" fill="#E3F0FF"/>
<path d="M111.308 48.9693V54.3772H110.713V48.9693H111.308ZM113.278 48.9693V49.4791H108.813V48.9693H113.278Z" fill="#E3F0FF"/>
<path d="M99.1165 47.1V55.7267H98.6113V47.1H99.1165Z" fill="#E3F0FF"/>
<path d="M86.915 48.9693V54.3772H86.32V48.9693H86.915ZM88.885 48.9693V49.4791H84.4199V48.9693H88.885Z" fill="#E3F0FF"/>
<path d="M82.7302 51.3884V51.8982H79.5201V51.3884H82.7302ZM79.6751 48.9693V54.3772H79.0801V48.9693H79.6751ZM83.1902 48.9693V54.3772H82.5902V48.9693H83.1902Z" fill="#E3F0FF"/>
<path d="M72.7646 51.7581V51.5932C72.7646 51.2 72.8213 50.8368 72.9346 50.5036C73.0479 50.1704 73.2096 49.8822 73.4196 49.639C73.633 49.3957 73.888 49.2075 74.1846 49.0742C74.4813 48.9376 74.8113 48.8693 75.1747 48.8693C75.5413 48.8693 75.873 48.9376 76.1697 49.0742C76.4664 49.2075 76.7214 49.3957 76.9347 49.639C77.1481 49.8822 77.3114 50.1704 77.4247 50.5036C77.5381 50.8368 77.5947 51.2 77.5947 51.5932V51.7581C77.5947 52.1513 77.5381 52.5145 77.4247 52.8477C77.3114 53.1776 77.1481 53.4641 76.9347 53.7074C76.7247 53.9506 76.4714 54.1405 76.1747 54.2771C75.878 54.4104 75.548 54.4771 75.1847 54.4771C74.818 54.4771 74.4863 54.4104 74.1896 54.2771C73.893 54.1405 73.638 53.9506 73.4246 53.7074C73.2113 53.4641 73.0479 53.1776 72.9346 52.8477C72.8213 52.5145 72.7646 52.1513 72.7646 51.7581ZM73.3596 51.5932V51.7581C73.3596 52.0547 73.3996 52.3362 73.4796 52.6028C73.5596 52.866 73.6763 53.1009 73.8296 53.3075C73.983 53.5108 74.173 53.6707 74.3996 53.7873C74.6263 53.9039 74.888 53.9623 75.1847 53.9623C75.478 53.9623 75.7363 53.9039 75.9597 53.7873C76.1864 53.6707 76.3764 53.5108 76.5297 53.3075C76.683 53.1009 76.798 52.866 76.8747 52.6028C76.9547 52.3362 76.9947 52.0547 76.9947 51.7581V51.5932C76.9947 51.3 76.9547 51.0217 76.8747 50.7585C76.798 50.4953 76.6814 50.2604 76.5247 50.0538C76.3714 49.8472 76.1814 49.6839 75.9547 49.564C75.728 49.444 75.468 49.384 75.1747 49.384C74.8813 49.384 74.6213 49.444 74.3946 49.564C74.1713 49.6839 73.9813 49.8472 73.8246 50.0538C73.6713 50.2604 73.5546 50.4953 73.4746 50.7585C73.398 51.0217 73.3596 51.3 73.3596 51.5932Z" fill="#E3F0FF"/>
<path d="M68.3897 53.5575L70.5397 48.9693H71.1347L68.5997 54.3772H68.1797L65.6496 48.9693H66.2446L68.3897 53.5575ZM66.0596 48.9693V54.3772H65.4646V48.9693H66.0596ZM70.6797 54.3772V48.9693H71.2798V54.3772H70.6797Z" fill="#E3F0FF"/>
<path d="M61.9845 54.4771C61.6311 54.4771 61.3061 54.4121 61.0095 54.2821C60.7161 54.1522 60.4594 53.9689 60.2394 53.7323C60.0228 53.4958 59.8544 53.2159 59.7344 52.8927C59.6177 52.5661 59.5594 52.2096 59.5594 51.8231V51.6082C59.5594 51.1917 59.6211 50.8152 59.7444 50.4786C59.8678 50.1421 60.0378 49.8539 60.2544 49.614C60.4711 49.3741 60.7178 49.1908 60.9944 49.0642C61.2745 48.9342 61.5678 48.8693 61.8745 48.8693C62.2178 48.8693 62.5228 48.9309 62.7895 49.0542C63.0562 49.1741 63.2795 49.3457 63.4595 49.569C63.6429 49.7889 63.7812 50.0505 63.8745 50.3537C63.9679 50.6536 64.0145 50.9851 64.0145 51.3483V51.7131H59.9194V51.2033H63.4195V51.1334C63.4128 50.8302 63.3512 50.5469 63.2345 50.2837C63.1212 50.0171 62.9512 49.8006 62.7245 49.634C62.4978 49.4674 62.2145 49.384 61.8745 49.384C61.6211 49.384 61.3878 49.4374 61.1745 49.544C60.9644 49.6506 60.7828 49.8039 60.6294 50.0038C60.4794 50.2004 60.3628 50.4353 60.2794 50.7085C60.1994 50.9784 60.1594 51.2783 60.1594 51.6082V51.8231C60.1594 52.123 60.2028 52.4029 60.2894 52.6628C60.3794 52.9193 60.5061 53.1459 60.6694 53.3425C60.8361 53.5391 61.0328 53.6924 61.2595 53.8023C61.4861 53.9123 61.7361 53.9673 62.0095 53.9673C62.3295 53.9673 62.6128 53.9089 62.8595 53.7923C63.1062 53.6724 63.3278 53.4841 63.5245 53.2275L63.8995 53.5174C63.7829 53.6907 63.6362 53.8506 63.4595 53.9972C63.2862 54.1439 63.0778 54.2605 62.8345 54.3471C62.5912 54.4337 62.3078 54.4771 61.9845 54.4771Z" fill="#E3F0FF"/>
<path d="M54.5998 50.0088V56.4563H53.9998V48.9692H54.5598L54.5998 50.0088ZM58.3599 51.6232V51.7281C58.3599 52.1313 58.3132 52.5012 58.2199 52.8377C58.1265 53.1742 57.9915 53.4658 57.8149 53.7124C57.6415 53.9556 57.4265 54.1439 57.1698 54.2771C56.9132 54.4104 56.6215 54.4771 56.2948 54.4771C55.9715 54.4771 55.6831 54.4271 55.4298 54.3271C55.1765 54.2272 54.9581 54.0855 54.7748 53.9023C54.5948 53.7157 54.4498 53.4991 54.3398 53.2525C54.2331 53.0026 54.1581 52.7294 54.1148 52.4329V51.0484C54.1648 50.7219 54.2464 50.4253 54.3598 50.1587C54.4731 49.8922 54.6181 49.6623 54.7948 49.469C54.9748 49.2758 55.1881 49.1275 55.4348 49.0242C55.6815 48.9209 55.9631 48.8693 56.2798 48.8693C56.6098 48.8693 56.9032 48.9342 57.1598 49.0642C57.4198 49.1908 57.6382 49.3757 57.8149 49.619C57.9949 49.8589 58.1299 50.1488 58.2199 50.4886C58.3132 50.8252 58.3599 51.2033 58.3599 51.6232ZM57.7599 51.7281V51.6232C57.7599 51.3066 57.7265 51.0134 57.6599 50.7435C57.5965 50.4736 57.4982 50.2387 57.3648 50.0388C57.2348 49.8355 57.0682 49.6773 56.8648 49.564C56.6648 49.4507 56.4265 49.394 56.1498 49.394C55.8631 49.394 55.6181 49.4424 55.4148 49.539C55.2148 49.6323 55.0481 49.7572 54.9148 49.9138C54.7814 50.0671 54.6764 50.2354 54.5998 50.4186C54.5231 50.6019 54.4664 50.7818 54.4298 50.9584V52.5528C54.4931 52.806 54.5948 53.041 54.7348 53.2575C54.8748 53.4708 55.0615 53.6424 55.2948 53.7723C55.5315 53.899 55.8198 53.9623 56.1598 53.9623C56.4332 53.9623 56.6698 53.9056 56.8698 53.7923C57.0698 53.679 57.2348 53.5208 57.3648 53.3175C57.4982 53.1143 57.5965 52.8777 57.6599 52.6078C57.7265 52.3379 57.7599 52.0447 57.7599 51.7281Z" fill="#E3F0FF"/>
<path d="M208.3 36.2492C206.859 36.2492 205.686 35.9944 204.784 35.4847C203.881 34.9617 203.187 34.2241 202.702 33.272C202.217 32.3198 201.88 31.2 201.692 29.9126C201.517 28.6118 201.429 27.1768 201.429 25.6078V22.1679H205.491V25.7687C205.491 28.2497 205.666 30.0266 206.017 31.0994C206.38 32.1589 207.155 32.6886 208.341 32.6886C209.162 32.6886 209.762 32.5009 210.139 32.1254C210.53 31.7365 210.779 31.1196 210.887 30.2747C210.995 29.4298 211.049 28.3167 211.049 26.9354C211.049 25.353 210.766 23.9918 210.2 22.8519C209.648 21.7119 208.846 20.619 207.795 19.5729L205.471 17.2596C204.797 16.5756 204.137 15.8313 203.49 15.0267C202.844 14.2087 202.305 13.2833 201.874 12.2507C201.456 11.2181 201.247 10.0379 201.247 8.71026C201.247 6.92663 201.436 5.3844 201.813 4.08356C202.19 2.78272 202.877 1.77692 203.874 1.06615C204.871 0.355384 206.286 0 208.118 0C209.56 0 210.712 0.248098 211.574 0.744295C212.45 1.24049 213.103 1.95126 213.535 2.8766C213.979 3.78853 214.269 4.87479 214.404 6.1354C214.552 7.39601 214.626 8.79072 214.626 10.3195V12.4116H210.624V10.0379C210.624 8.60297 210.564 7.40942 210.442 6.45726C210.335 5.49169 210.106 4.76751 209.755 4.28472C209.405 3.80194 208.859 3.56054 208.118 3.56054C207.445 3.56054 206.892 3.72818 206.461 4.06345C206.043 4.3853 205.74 4.8882 205.552 5.57215C205.363 6.2561 205.269 7.1345 205.269 8.20736C205.269 9.14611 205.383 9.92393 205.612 10.5408C205.841 11.1443 206.185 11.7076 206.643 12.2306C207.115 12.7536 207.687 13.3705 208.361 14.0812L210.786 16.636C212.066 17.9636 213.11 19.4522 213.918 21.1018C214.74 22.7379 215.151 24.6422 215.151 26.8147C215.151 28.7727 214.956 30.4557 214.565 31.8639C214.188 33.272 213.508 34.3582 212.524 35.1227C211.54 35.8737 210.133 36.2492 208.3 36.2492Z" fill="#B3C3D4"/>
<path d="M187.282 35.8468V0.442495H197.912V3.90246H191.465V16.0123H197.569V19.4723H191.465V32.3868H197.993V35.8468H187.282Z" fill="#B3C3D4"/>
<path d="M166.789 35.8468V0.442495H169.942L178.187 24.5415L177.763 14.3025V0.442495H181.461V35.8468H178.389L170.407 11.5466L170.649 20.4781V35.8468H166.789Z" fill="#B3C3D4"/>
<path d="M156.766 35.8468V0.442505H160.949V35.8468H156.766Z" fill="#B3C3D4"/>
<path d="M143.77 36.1889C141.709 36.1889 140.126 35.344 139.021 33.6542C137.916 31.9645 137.364 29.1818 137.364 25.3061V10.4604C137.364 8.90478 137.472 7.49665 137.687 6.23604C137.916 4.96203 138.3 3.86235 138.839 2.93701C139.378 2.01167 140.113 1.3009 141.042 0.804705C141.985 0.308509 143.171 0.0604104 144.599 0.0604104C146.081 0.0604104 147.26 0.315214 148.136 0.824821C149.025 1.32102 149.699 2.03179 150.157 2.95712C150.615 3.88246 150.918 4.98885 151.066 6.27628C151.214 7.5637 151.288 8.98524 151.288 10.5409V13.2767H147.247V8.67009C147.247 6.95352 147.071 5.6862 146.721 4.86815C146.384 4.03669 145.677 3.62095 144.599 3.62095C143.454 3.62095 142.659 4.11045 142.214 5.08943C141.77 6.06841 141.547 7.79839 141.547 10.2794V25.1653C141.547 27.8742 141.729 29.8121 142.093 30.9788C142.47 32.1455 143.265 32.7289 144.478 32.7289C145.636 32.7289 146.418 32.1455 146.822 30.9788C147.24 29.7987 147.449 27.834 147.449 25.0848V20.4782H144.559V17.2596H151.288V35.8469H149.086L148.52 33.1111C148.142 34.1035 147.543 34.8679 146.721 35.4043C145.913 35.9274 144.929 36.1889 143.77 36.1889Z" fill="#B3C3D4"/>
<path d="M117.276 35.8468V0.442495H120.429L128.674 24.5415L128.25 14.3025V0.442495H131.948V35.8468H128.876L120.894 11.5466L121.136 20.4781V35.8468H117.276Z" fill="#B3C3D4"/>
<path d="M101.998 35.8468V0.442505H112.628V3.90247H106.181V16.0123H112.285V19.4723H106.181V32.3868H112.709V35.8468H101.998Z" fill="#B3C3D4"/>
<path d="M73.9473 35.8468V0.442505H81.1015C82.5161 0.442505 83.6613 0.677192 84.5371 1.14657C85.4263 1.61594 86.1067 2.29318 86.5783 3.17829C87.0498 4.0634 87.3664 5.12955 87.5281 6.37675C87.7033 7.62394 87.7908 9.02536 87.7908 10.581V11.1241C87.7908 13.4978 87.6022 15.4893 87.225 17.0986C86.8612 18.7079 86.1943 19.9216 85.2242 20.7396C84.2676 21.5443 82.8934 21.9466 81.1015 21.9466H78.1307V35.8468H73.9473ZM78.1307 18.4866H80.6771C81.4989 18.4866 82.1187 18.2586 82.5363 17.8027C82.954 17.3333 83.2369 16.5622 83.3851 15.4893C83.5468 14.4165 83.6277 12.9614 83.6277 11.1241V10.4402C83.6277 8.16037 83.4525 6.47733 83.1022 5.39106C82.7519 4.29138 81.9772 3.74154 80.7781 3.74154H78.1307V18.4866Z" fill="#B3C3D4"/>
<path d="M59.9212 35.8469L53.9998 0.442591H57.9811L60.3456 15.4291L62.3666 28.6051H62.4474L64.2056 15.4291L66.2468 0.442591H70.1877L64.7917 35.8469H59.9212Z" fill="#B3C3D4"/>
</svg>
