<svg width="310" height="80" viewBox="0 0 310 80" fill="none" xmlns="http://www.w3.org/2000/svg">
<line x1="75.7076" y1="61.416" x2="309.301" y2="61.416" stroke="#B3C3D4"/>
<path d="M12.8812 71.4699L24.3513 6.30617C24.9644 2.82337 28.2798 0.497823 31.7563 1.1119C35.233 1.72599 37.5543 5.04718 36.9413 8.52998L25.4716 73.6938C24.8586 77.1766 21.5428 79.5021 18.0661 78.888C14.5895 78.2739 12.2681 74.9528 12.8812 71.4699Z" fill="#B3C3D4"/>
<path d="M25.4711 71.4699L14.0009 6.30617C13.3879 2.82337 10.0725 0.497823 6.59596 1.1119C3.11932 1.72599 0.797965 5.04718 1.41101 8.52998L12.8807 73.6938C13.4937 77.1766 16.8095 79.5021 20.2862 78.888C23.7628 78.2739 26.0842 74.9528 25.4711 71.4699Z" fill="#E3F0FF"/>
<path d="M48.4361 71.4699L36.9659 6.30617C36.3529 2.82337 33.0375 0.497823 29.5609 1.1119C26.0843 1.72599 23.7629 5.04718 24.376 8.52998L35.8457 73.6938C36.4587 77.1766 39.7745 79.5021 43.2512 78.888C46.7277 78.2739 49.0491 74.9528 48.4361 71.4699Z" fill="#E3F0FF"/>
<path d="M63.9325 17.2803V22.7223C63.9325 22.9184 63.8679 23.1063 63.7388 23.2861C63.6096 23.4659 63.4482 23.5721 63.2544 23.6048L58.7745 24.2912C58.4678 25.1736 58.153 25.9172 57.8301 26.5219C58.3951 27.339 59.2588 28.4666 60.4212 29.9047C60.5826 30.1008 60.6633 30.3051 60.6633 30.5176C60.6633 30.73 60.5907 30.918 60.4454 31.0814C60.0095 31.686 59.2104 32.5685 58.048 33.7288C56.8856 34.8891 56.1269 35.4693 55.7717 35.4693C55.578 35.4693 55.3681 35.3957 55.1421 35.2487L51.8003 32.6012C51.09 32.9771 50.3554 33.2876 49.5966 33.5327C49.3383 35.7553 49.1042 37.2751 48.8944 38.0922C48.7814 38.5498 48.4908 38.7786 48.0226 38.7786H42.6467C42.4206 38.7786 42.2229 38.7091 42.0534 38.5702C41.8838 38.4313 41.791 38.2556 41.7749 38.0432L41.0968 33.5327C40.3058 33.2712 39.5793 32.9689 38.9174 32.6257L35.5029 35.2487C35.3415 35.3957 35.1397 35.4693 34.8975 35.4693C34.6715 35.4693 34.4697 35.3794 34.2921 35.1996C32.258 33.3366 30.9261 31.9639 30.2965 31.0814C30.1835 30.918 30.127 30.73 30.127 30.5176C30.127 30.3215 30.1916 30.1335 30.3207 29.9538C30.5629 29.6106 30.9746 29.0672 31.5557 28.3236C32.1369 27.58 32.5728 27.004 32.8634 26.5954C32.4275 25.7783 32.0966 24.9694 31.8705 24.1686L27.439 23.5067C27.2291 23.474 27.0596 23.3719 26.9305 23.2003C26.8013 23.0287 26.7368 22.8367 26.7368 22.6243V17.1823C26.7368 16.9862 26.8013 16.7982 26.9305 16.6185C27.0596 16.4387 27.213 16.3325 27.3906 16.2998L31.8948 15.6134C32.1208 14.8617 32.4356 14.1099 32.8392 13.3582C32.1934 12.4267 31.3297 11.299 30.2481 9.97532C30.0866 9.77922 30.0059 9.58311 30.0059 9.387C30.0059 9.22358 30.0786 9.03564 30.2239 8.82319C30.6436 8.23487 31.4387 7.35647 32.6091 6.188C33.7796 5.01953 34.5424 4.43529 34.8975 4.43529C35.1074 4.43529 35.3173 4.517 35.5272 4.68042L38.869 7.30336C39.5793 6.92749 40.3138 6.61698 41.0726 6.37185C41.3309 4.1493 41.565 2.62947 41.7749 1.81235C41.8879 1.35477 42.1785 1.12598 42.6467 1.12598H48.0226C48.2486 1.12598 48.4464 1.19543 48.6159 1.33434C48.7854 1.47325 48.8782 1.64893 48.8944 1.86138L49.5724 6.37185C50.3635 6.63333 51.09 6.93566 51.7519 7.27885L55.1905 4.65591C55.3358 4.50883 55.5296 4.43529 55.7717 4.43529C55.9816 4.43529 56.1834 4.517 56.3771 4.68042C58.4597 6.62515 59.7916 8.01425 60.3727 8.84771C60.4858 8.97845 60.5423 9.15821 60.5423 9.387C60.5423 9.58311 60.4777 9.77105 60.3485 9.95081C60.1064 10.294 59.6947 10.8374 59.1135 11.581C58.5323 12.3245 58.0964 12.9006 57.8059 13.3091C58.2256 14.1263 58.5566 14.927 58.7987 15.7115L63.2302 16.3978C63.4401 16.4305 63.6096 16.5327 63.7388 16.7043C63.8679 16.8759 63.9325 17.0679 63.9325 17.2803Z" fill="#E3F0FF"/>
<ellipse cx="45.3852" cy="19.5557" rx="6.26455" ry="6.27544" fill="#B3C3D4"/>
<path d="M305.945 75.573V71.5889C305.945 71.2223 305.868 70.9058 305.716 70.6392C305.564 70.3727 305.34 70.168 305.045 70.0252C304.749 69.8824 304.385 69.811 303.952 69.811C303.552 69.811 303.195 69.8824 302.88 70.0252C302.571 70.1632 302.325 70.3513 302.145 70.5893C301.968 70.8225 301.88 71.0819 301.88 71.3675L301.023 71.3604C301.023 71.07 301.094 70.7892 301.237 70.5179C301.38 70.2465 301.583 70.0038 301.845 69.7896C302.106 69.5754 302.418 69.4064 302.78 69.2826C303.147 69.1541 303.549 69.0898 303.987 69.0898C304.54 69.0898 305.026 69.1827 305.445 69.3683C305.868 69.5539 306.199 69.8324 306.437 70.2037C306.676 70.575 306.795 71.0415 306.795 71.6031V75.3374C306.795 75.604 306.814 75.88 306.852 76.1656C306.895 76.4513 306.954 76.6869 307.03 76.8725V76.9582H306.123C306.066 76.7868 306.021 76.5726 305.987 76.3156C305.959 76.0538 305.945 75.8063 305.945 75.573ZM306.145 72.46L306.159 73.1168H304.48C304.042 73.1168 303.649 73.1573 303.302 73.2382C302.959 73.3144 302.668 73.4286 302.43 73.5809C302.192 73.7285 302.009 73.907 301.88 74.1164C301.756 74.3259 301.695 74.5639 301.695 74.8305C301.695 75.1065 301.764 75.3588 301.902 75.5873C302.045 75.8158 302.245 75.999 302.502 76.1371C302.764 76.2704 303.073 76.337 303.43 76.337C303.906 76.337 304.326 76.2489 304.687 76.0728C305.054 75.8967 305.357 75.6658 305.595 75.3802C305.833 75.0946 305.992 74.7829 306.073 74.4449L306.445 74.9376C306.383 75.1756 306.268 75.4207 306.102 75.673C305.94 75.9205 305.728 76.1537 305.466 76.3727C305.204 76.5869 304.895 76.763 304.537 76.9011C304.185 77.0344 303.785 77.101 303.337 77.101C302.833 77.101 302.392 77.0058 302.016 76.8154C301.645 76.625 301.354 76.3656 301.144 76.0371C300.94 75.7039 300.837 75.3279 300.837 74.909C300.837 74.5282 300.918 74.1879 301.08 73.888C301.242 73.5833 301.475 73.3263 301.78 73.1168C302.09 72.9026 302.461 72.7408 302.895 72.6313C303.333 72.5171 303.823 72.46 304.366 72.46H306.145Z" fill="#E3F0FF"/>
<path d="M296.208 73.2168H294.965V72.6385H296.137C296.613 72.6385 296.992 72.5837 297.273 72.4742C297.554 72.36 297.756 72.2005 297.88 71.9959C298.004 71.7912 298.065 71.5508 298.065 71.2747C298.065 71.0081 297.999 70.7654 297.865 70.5464C297.737 70.3275 297.53 70.1513 297.244 70.0181C296.958 69.8848 296.58 69.8181 296.108 69.8181C295.746 69.8181 295.413 69.8824 295.108 70.0109C294.803 70.1394 294.558 70.3156 294.373 70.5393C294.192 70.763 294.101 71.0224 294.101 71.3175H293.244C293.244 70.8606 293.377 70.4655 293.644 70.1323C293.911 69.7991 294.261 69.542 294.694 69.3612C295.132 69.1803 295.604 69.0898 296.108 69.0898C296.546 69.0898 296.939 69.1374 297.287 69.2326C297.635 69.3278 297.93 69.4683 298.173 69.6539C298.415 69.8396 298.601 70.0704 298.73 70.3465C298.858 70.6178 298.923 70.9296 298.923 71.2818C298.923 71.5484 298.861 71.7983 298.737 72.0316C298.618 72.2648 298.442 72.4719 298.208 72.6527C297.98 72.8289 297.696 72.9669 297.358 73.0669C297.025 73.1668 296.642 73.2168 296.208 73.2168ZM294.965 72.8241H296.208C296.684 72.8241 297.101 72.8693 297.458 72.9598C297.815 73.0454 298.113 73.174 298.351 73.3453C298.589 73.5167 298.766 73.7285 298.88 73.9808C298.999 74.2283 299.058 74.5139 299.058 74.8376C299.058 75.1898 298.987 75.5064 298.844 75.7872C298.706 76.0681 298.506 76.3061 298.244 76.5012C297.982 76.6964 297.67 76.844 297.308 76.9439C296.946 77.0439 296.546 77.0939 296.108 77.0939C295.637 77.0939 295.17 77.0106 294.708 76.844C294.251 76.6774 293.873 76.4203 293.573 76.0728C293.273 75.7253 293.122 75.2827 293.122 74.7448H293.973C293.973 75.0399 294.065 75.3112 294.251 75.5587C294.437 75.8063 294.689 76.0038 295.008 76.1514C295.332 76.2989 295.699 76.3727 296.108 76.3727C296.57 76.3727 296.956 76.3084 297.265 76.1799C297.575 76.0466 297.808 75.8658 297.965 75.6373C298.123 75.4088 298.201 75.147 298.201 74.8519C298.201 74.5044 298.125 74.2236 297.973 74.0093C297.825 73.7951 297.599 73.6381 297.294 73.5381C296.989 73.4381 296.604 73.3882 296.137 73.3882H294.965V72.8241Z" fill="#E3F0FF"/>
<path d="M285.916 75.5738L290.094 69.2334H290.951V76.9589H290.094V70.6186L285.916 76.9589H285.073V69.2334H285.916V75.5738Z" fill="#E3F0FF"/>
<path d="M280.495 69.2334V76.9589H279.645V69.2334H280.495ZM283.31 69.2334V69.9617H276.931V69.2334H283.31Z" fill="#E3F0FF"/>
<path d="M270.774 70.7178V79.9285H269.916V69.2326H270.716L270.774 70.7178ZM276.145 73.024V73.174C276.145 73.7499 276.079 74.2783 275.945 74.7591C275.812 75.2398 275.619 75.6563 275.367 76.0086C275.119 76.356 274.812 76.625 274.445 76.8154C274.078 77.0058 273.662 77.101 273.195 77.101C272.733 77.101 272.321 77.0296 271.959 76.8868C271.597 76.744 271.286 76.5417 271.024 76.2799C270.766 76.0133 270.559 75.7039 270.402 75.3517C270.25 74.9947 270.143 74.6044 270.081 74.1807V72.2029C270.152 71.7364 270.269 71.3128 270.431 70.932C270.593 70.5512 270.8 70.2227 271.052 69.9467C271.309 69.6706 271.614 69.4587 271.966 69.3112C272.319 69.1636 272.721 69.0898 273.174 69.0898C273.645 69.0898 274.064 69.1827 274.431 69.3683C274.802 69.5492 275.114 69.8134 275.367 70.1609C275.624 70.5036 275.817 70.9177 275.945 71.4032C276.079 71.884 276.145 72.4243 276.145 73.024ZM275.288 73.174V73.024C275.288 72.5718 275.24 72.1529 275.145 71.7674C275.055 71.3818 274.914 71.0462 274.724 70.7606C274.538 70.4703 274.3 70.2442 274.009 70.0823C273.724 69.9205 273.383 69.8396 272.988 69.8396C272.578 69.8396 272.228 69.9086 271.938 70.0466C271.652 70.1799 271.414 70.3584 271.224 70.5821C271.033 70.8011 270.883 71.0415 270.774 71.3033C270.664 71.5651 270.583 71.8221 270.531 72.0744V74.3521C270.621 74.7138 270.766 75.0494 270.966 75.3588C271.166 75.6635 271.433 75.9086 271.766 76.0942C272.105 76.2751 272.517 76.3656 273.002 76.3656C273.393 76.3656 273.731 76.2846 274.017 76.1228C274.302 75.961 274.538 75.7349 274.724 75.4445C274.914 75.1541 275.055 74.8162 275.145 74.4306C275.24 74.045 275.288 73.6262 275.288 73.174Z" fill="#E3F0FF"/>
<path d="M265.052 77.101C264.547 77.101 264.083 77.0082 263.659 76.8225C263.24 76.6369 262.873 76.3751 262.559 76.0371C262.249 75.6992 262.009 75.2993 261.837 74.8376C261.671 74.3711 261.587 73.8618 261.587 73.3096V73.0026C261.587 72.4076 261.676 71.8697 261.852 71.3889C262.028 70.9082 262.271 70.4964 262.58 70.1537C262.89 69.811 263.242 69.5492 263.638 69.3683C264.038 69.1827 264.457 69.0898 264.895 69.0898C265.385 69.0898 265.821 69.1779 266.202 69.354C266.583 69.5254 266.902 69.7705 267.159 70.0895C267.421 70.4036 267.619 70.7773 267.752 71.2104C267.885 71.6388 267.952 72.1125 267.952 72.6313V73.1525H262.102V72.4243H267.102V72.3243C267.092 71.8911 267.004 71.4865 266.838 71.1105C266.676 70.7297 266.433 70.4203 266.109 70.1823C265.785 69.9443 265.38 69.8253 264.895 69.8253C264.533 69.8253 264.199 69.9014 263.895 70.0538C263.595 70.2061 263.335 70.425 263.116 70.7106C262.902 70.9915 262.735 71.3271 262.616 71.7174C262.502 72.103 262.445 72.5314 262.445 73.0026V73.3096C262.445 73.738 262.507 74.1379 262.63 74.5092C262.759 74.8757 262.94 75.1994 263.173 75.4802C263.411 75.761 263.692 75.98 264.016 76.1371C264.34 76.2942 264.697 76.3727 265.088 76.3727C265.545 76.3727 265.949 76.2894 266.302 76.1228C266.654 75.9514 266.971 75.6825 267.252 75.316L267.788 75.7301C267.621 75.9776 267.411 76.2061 267.159 76.4156C266.911 76.625 266.614 76.7916 266.266 76.9154C265.919 77.0391 265.514 77.101 265.052 77.101Z" fill="#E3F0FF"/>
<path d="M258.782 69.2334V69.976H254.26V69.2334H258.782ZM254.453 69.2334V76.9589H253.603V69.2334H254.453ZM259.482 69.2334V76.9589H258.625V69.2334H259.482Z" fill="#E3F0FF"/>
<path d="M248.56 76.3656C248.922 76.3656 249.26 76.2989 249.574 76.1656C249.893 76.0276 250.155 75.8253 250.36 75.5587C250.57 75.2874 250.689 74.9566 250.717 74.5663H251.531C251.508 75.0566 251.358 75.4945 251.081 75.88C250.81 76.2608 250.453 76.5607 250.01 76.7797C249.572 76.9939 249.089 77.101 248.56 77.101C248.022 77.101 247.546 77.0034 247.131 76.8083C246.722 76.6131 246.379 76.3418 246.103 75.9943C245.827 75.642 245.617 75.2327 245.474 74.7662C245.336 74.295 245.267 73.788 245.267 73.2454V72.9455C245.267 72.4028 245.336 71.8983 245.474 71.4318C245.617 70.9605 245.827 70.5512 246.103 70.2037C246.379 69.8515 246.722 69.5777 247.131 69.3826C247.541 69.1874 248.015 69.0898 248.553 69.0898C249.105 69.0898 249.6 69.2017 250.039 69.4254C250.481 69.6491 250.834 69.9657 251.096 70.3751C251.362 70.7844 251.508 71.2699 251.531 71.8316H250.717C250.693 71.4175 250.584 71.0605 250.389 70.7606C250.193 70.4607 249.936 70.2299 249.617 70.068C249.298 69.9062 248.943 69.8253 248.553 69.8253C248.115 69.8253 247.741 69.911 247.431 70.0823C247.122 70.2489 246.869 70.4798 246.674 70.7749C246.484 71.0653 246.343 71.3985 246.253 71.7745C246.162 72.1458 246.117 72.5361 246.117 72.9455V73.2454C246.117 73.6595 246.16 74.0546 246.246 74.4306C246.336 74.8019 246.477 75.1327 246.667 75.4231C246.862 75.7134 247.115 75.9443 247.424 76.1157C247.739 76.2823 248.117 76.3656 248.56 76.3656Z" fill="#E3F0FF"/>
<path d="M238.853 69.2334V76.9589H237.996V69.2334H238.853ZM243.939 69.2334L240.396 73.4175H238.553L238.46 72.6535H240.031L242.86 69.2334H243.939ZM243.167 76.9589L239.946 73.3032L240.488 72.6463L244.296 76.9589H243.167Z" fill="#E3F0FF"/>
<path d="M233.067 77.101C232.563 77.101 232.098 77.0082 231.674 76.8225C231.255 76.6369 230.889 76.3751 230.574 76.0371C230.265 75.6992 230.024 75.2993 229.853 74.8376C229.686 74.3711 229.603 73.8618 229.603 73.3096V73.0026C229.603 72.4076 229.691 71.8697 229.867 71.3889C230.043 70.9082 230.286 70.4964 230.596 70.1537C230.905 69.811 231.258 69.5492 231.653 69.3683C232.053 69.1827 232.472 69.0898 232.91 69.0898C233.401 69.0898 233.836 69.1779 234.217 69.354C234.598 69.5254 234.917 69.7705 235.175 70.0895C235.436 70.4036 235.634 70.7773 235.767 71.2104C235.901 71.6388 235.967 72.1125 235.967 72.6313V73.1525H230.117V72.4243H235.117V72.3243C235.108 71.8911 235.02 71.4865 234.853 71.1105C234.691 70.7297 234.448 70.4203 234.125 70.1823C233.801 69.9443 233.396 69.8253 232.91 69.8253C232.548 69.8253 232.215 69.9014 231.91 70.0538C231.61 70.2061 231.351 70.425 231.132 70.7106C230.917 70.9915 230.751 71.3271 230.632 71.7174C230.517 72.103 230.46 72.5314 230.46 73.0026V73.3096C230.46 73.738 230.522 74.1379 230.646 74.5092C230.774 74.8757 230.955 75.1994 231.189 75.4802C231.427 75.761 231.708 75.98 232.032 76.1371C232.355 76.2942 232.713 76.3727 233.103 76.3727C233.56 76.3727 233.965 76.2894 234.317 76.1228C234.67 75.9514 234.986 75.6825 235.267 75.316L235.803 75.7301C235.636 75.9776 235.427 76.2061 235.175 76.4156C234.927 76.625 234.629 76.7916 234.282 76.9154C233.934 77.0391 233.529 77.101 233.067 77.101Z" fill="#E3F0FF"/>
<path d="M215.394 66.5625V78.8863H214.672V66.5625H215.394Z" fill="#E3F0FF"/>
<path d="M200.833 69.2334V69.976H196.919V76.9589H196.069V69.2334H200.833Z" fill="#E3F0FF"/>
<path d="M192.769 72.6892V73.4175H188.183V72.6892H192.769ZM188.405 69.2334V76.9589H187.555V69.2334H188.405ZM193.426 69.2334V76.9589H192.569V69.2334H193.426Z" fill="#E3F0FF"/>
<path d="M184.869 69.2331V76.9587H184.019V69.2331H184.869ZM183.869 66.9983C183.869 66.8364 183.919 66.7008 184.019 66.5913C184.123 66.477 184.266 66.4199 184.447 66.4199C184.628 66.4199 184.771 66.477 184.876 66.5913C184.986 66.7008 185.041 66.8364 185.041 66.9983C185.041 67.1553 184.986 67.291 184.876 67.4053C184.771 67.5147 184.628 67.5695 184.447 67.5695C184.266 67.5695 184.123 67.5147 184.019 67.4053C183.919 67.291 183.869 67.1553 183.869 66.9983Z" fill="#E3F0FF"/>
<path d="M180.67 72.6892V73.4175H176.084V72.6892H180.67ZM176.305 69.2334V76.9589H175.455V69.2334H176.305ZM181.327 69.2334V76.9589H180.47V69.2334H181.327Z" fill="#E3F0FF"/>
<path d="M167.027 72.7456V73.4738H163.413V72.7456H167.027ZM164.148 69.2326V76.9582H163.298V69.2326H164.148ZM166.341 73.2168V72.9812C166.341 72.4195 166.422 71.9006 166.584 71.4246C166.746 70.9486 166.977 70.5369 167.277 70.1894C167.582 69.8419 167.946 69.573 168.37 69.3826C168.794 69.1874 169.265 69.0898 169.784 69.0898C170.308 69.0898 170.782 69.1874 171.206 69.3826C171.629 69.573 171.994 69.8419 172.299 70.1894C172.603 70.5369 172.837 70.9486 172.999 71.4246C173.16 71.9006 173.241 72.4195 173.241 72.9812V73.2168C173.241 73.7785 173.16 74.2973 172.999 74.7733C172.837 75.2446 172.603 75.6539 172.299 76.0014C171.999 76.3489 171.637 76.6202 171.213 76.8154C170.789 77.0058 170.318 77.101 169.798 77.101C169.275 77.101 168.801 77.0058 168.377 76.8154C167.953 76.6202 167.589 76.3489 167.284 76.0014C166.979 75.6539 166.746 75.2446 166.584 74.7733C166.422 74.2973 166.341 73.7785 166.341 73.2168ZM167.198 72.9812V73.2168C167.198 73.6404 167.253 74.0427 167.363 74.4235C167.477 74.7995 167.644 75.1351 167.863 75.4302C168.086 75.7206 168.358 75.9491 168.677 76.1157C169.001 76.2823 169.375 76.3656 169.798 76.3656C170.218 76.3656 170.587 76.2823 170.906 76.1157C171.229 75.9491 171.501 75.7206 171.72 75.4302C171.939 75.1351 172.106 74.7995 172.22 74.4235C172.334 74.0427 172.391 73.6404 172.391 73.2168V72.9812C172.391 72.5623 172.334 72.1648 172.22 71.7888C172.106 71.4127 171.937 71.0772 171.713 70.782C171.494 70.4869 171.222 70.2537 170.898 70.0823C170.575 69.911 170.203 69.8253 169.784 69.8253C169.365 69.8253 168.996 69.911 168.677 70.0823C168.358 70.2537 168.086 70.4869 167.863 70.782C167.644 71.0772 167.477 71.4127 167.363 71.7888C167.253 72.1648 167.198 72.5623 167.198 72.9812Z" fill="#E3F0FF"/>
<path d="M158.684 69.2334V76.9589H157.834V69.2334H158.684ZM161.498 69.2334V69.9617H155.12V69.2334H161.498Z" fill="#E3F0FF"/>
<path d="M141.267 66.5625V78.8863H140.545V66.5625H141.267Z" fill="#E3F0FF"/>
<path d="M123.835 69.2334V76.9589H122.985V69.2334H123.835ZM126.65 69.2334V69.9617H120.271V69.2334H126.65Z" fill="#E3F0FF"/>
<path d="M117.857 72.6892V73.4175H113.271V72.6892H117.857ZM113.493 69.2334V76.9589H112.643V69.2334H113.493ZM118.514 69.2334V76.9589H117.657V69.2334H118.514Z" fill="#E3F0FF"/>
<path d="M103.621 73.2168V72.9812C103.621 72.4195 103.702 71.9006 103.864 71.4246C104.026 70.9486 104.257 70.5369 104.557 70.1894C104.862 69.8419 105.226 69.573 105.65 69.3826C106.074 69.1874 106.545 69.0898 107.064 69.0898C107.588 69.0898 108.062 69.1874 108.486 69.3826C108.91 69.573 109.274 69.8419 109.579 70.1894C109.883 70.5369 110.117 70.9486 110.279 71.4246C110.441 71.9006 110.522 72.4195 110.522 72.9812V73.2168C110.522 73.7785 110.441 74.2973 110.279 74.7733C110.117 75.2446 109.883 75.6539 109.579 76.0014C109.279 76.3489 108.917 76.6202 108.493 76.8154C108.069 77.0058 107.598 77.101 107.079 77.101C106.555 77.101 106.081 77.0058 105.657 76.8154C105.233 76.6202 104.869 76.3489 104.564 76.0014C104.26 75.6539 104.026 75.2446 103.864 74.7733C103.702 74.2973 103.621 73.7785 103.621 73.2168ZM104.471 72.9812V73.2168C104.471 73.6404 104.529 74.0427 104.643 74.4235C104.757 74.7995 104.924 75.1351 105.143 75.4302C105.362 75.7206 105.633 75.9491 105.957 76.1157C106.281 76.2823 106.655 76.3656 107.079 76.3656C107.498 76.3656 107.867 76.2823 108.186 76.1157C108.51 75.9491 108.781 75.7206 109 75.4302C109.219 75.1351 109.383 74.7995 109.493 74.4235C109.607 74.0427 109.664 73.6404 109.664 73.2168V72.9812C109.664 72.5623 109.607 72.1648 109.493 71.7888C109.383 71.4127 109.217 71.0772 108.993 70.782C108.774 70.4869 108.502 70.2537 108.179 70.0823C107.855 69.911 107.483 69.8253 107.064 69.8253C106.645 69.8253 106.274 69.911 105.95 70.0823C105.631 70.2537 105.36 70.4869 105.136 70.782C104.917 71.0772 104.75 71.4127 104.636 71.7888C104.526 72.1648 104.471 72.5623 104.471 72.9812Z" fill="#E3F0FF"/>
<path d="M97.3715 75.788L100.443 69.2334H101.293L97.6715 76.9589H97.0715L93.4571 69.2334H94.3071L97.3715 75.788ZM94.0428 69.2334V76.9589H93.1928V69.2334H94.0428ZM100.643 76.9589V69.2334H101.5V76.9589H100.643Z" fill="#E3F0FF"/>
<path d="M88.2216 77.101C87.7169 77.101 87.2526 77.0082 86.8287 76.8225C86.4097 76.6369 86.043 76.3751 85.7287 76.0371C85.4192 75.6992 85.1787 75.2993 85.0073 74.8376C84.8406 74.3711 84.7573 73.8618 84.7573 73.3096V73.0026C84.7573 72.4076 84.8454 71.8697 85.0216 71.3889C85.1978 70.9082 85.4406 70.4964 85.7501 70.1537C86.0597 69.811 86.4121 69.5492 86.8073 69.3683C87.2073 69.1827 87.6264 69.0898 88.0645 69.0898C88.555 69.0898 88.9907 69.1779 89.3717 69.354C89.7526 69.5254 90.0717 69.7705 90.3288 70.0895C90.5908 70.4036 90.7884 70.7773 90.9217 71.2104C91.055 71.6388 91.1217 72.1125 91.1217 72.6313V73.1525H85.2716V72.4243H90.2717V72.3243C90.2622 71.8911 90.1741 71.4865 90.0074 71.1105C89.8455 70.7297 89.6026 70.4203 89.2788 70.1823C88.955 69.9443 88.5502 69.8253 88.0645 69.8253C87.7026 69.8253 87.3692 69.9014 87.0645 70.0538C86.7645 70.2061 86.5049 70.425 86.2859 70.7106C86.0716 70.9915 85.9049 71.3271 85.7859 71.7174C85.6716 72.103 85.6144 72.5314 85.6144 73.0026V73.3096C85.6144 73.738 85.6763 74.1379 85.8001 74.5092C85.9287 74.8757 86.1097 75.1994 86.343 75.4802C86.5811 75.761 86.8621 75.98 87.1859 76.1371C87.5097 76.2942 87.8669 76.3727 88.2574 76.3727C88.7145 76.3727 89.1193 76.2894 89.4717 76.1228C89.8241 75.9514 90.1407 75.6825 90.4217 75.316L90.9574 75.7301C90.7908 75.9776 90.5812 76.2061 90.3288 76.4156C90.0812 76.625 89.7836 76.7916 89.436 76.9154C89.0883 77.0391 88.6836 77.101 88.2216 77.101Z" fill="#E3F0FF"/>
<path d="M77.6719 70.7178V79.9285H76.8148V69.2326H77.6148L77.6719 70.7178ZM83.0435 73.024V73.174C83.0435 73.7499 82.9768 74.2783 82.8435 74.7591C82.7102 75.2398 82.5173 75.6563 82.2649 76.0086C82.0173 76.356 81.7101 76.625 81.3434 76.8154C80.9768 77.0058 80.5601 77.101 80.0934 77.101C79.6315 77.101 79.2196 77.0296 78.8577 76.8868C78.4958 76.744 78.1838 76.5417 77.9219 76.2799C77.6648 76.0133 77.4576 75.7039 77.3005 75.3517C77.1481 74.9947 77.041 74.6044 76.979 74.1807V72.2029C77.0505 71.7364 77.1671 71.3128 77.3291 70.932C77.491 70.5512 77.6981 70.2227 77.9505 69.9467C78.2077 69.6706 78.5124 69.4587 78.8648 69.3112C79.2172 69.1636 79.6196 69.0898 80.072 69.0898C80.5434 69.0898 80.9625 69.1827 81.3292 69.3683C81.7006 69.5492 82.0125 69.8134 82.2649 70.1609C82.5221 70.5036 82.7149 70.9177 82.8435 71.4032C82.9768 71.884 83.0435 72.4243 83.0435 73.024ZM82.1863 73.174V73.024C82.1863 72.5718 82.1387 72.1529 82.0435 71.7674C81.953 71.3818 81.8125 71.0462 81.622 70.7606C81.4363 70.4703 81.1982 70.2442 80.9077 70.0823C80.622 69.9205 80.2815 69.8396 79.8863 69.8396C79.4767 69.8396 79.1267 69.9086 78.8362 70.0466C78.5505 70.1799 78.3124 70.3584 78.1219 70.5821C77.9315 70.8011 77.7815 71.0415 77.6719 71.3033C77.5624 71.5651 77.4814 71.8221 77.4291 72.0744V74.3521C77.5195 74.7138 77.6648 75.0494 77.8648 75.3588C78.0648 75.6635 78.3315 75.9086 78.6648 76.0942C79.0029 76.2751 79.4148 76.3656 79.9006 76.3656C80.291 76.3656 80.6291 76.2846 80.9149 76.1228C81.2006 75.961 81.4363 75.7349 81.622 75.4445C81.8125 75.1541 81.953 74.8162 82.0435 74.4306C82.1387 74.045 82.1863 73.6262 82.1863 73.174Z" fill="#E3F0FF"/>
<path d="M296.756 52.9105C294.697 52.9105 293.022 52.5465 291.733 51.8185C290.443 51.0713 289.452 50.0176 288.759 48.6574C288.066 47.2971 287.585 45.6974 287.315 43.8583C287.065 41.9999 286.94 39.95 286.94 37.7085V32.7944H292.743V37.9384C292.743 41.4826 292.993 44.0211 293.494 45.5538C294.013 47.0672 295.12 47.824 296.814 47.824C297.988 47.824 298.844 47.5558 299.383 47.0194C299.941 46.4638 300.298 45.5825 300.451 44.3755C300.605 43.1686 300.682 41.5784 300.682 39.6051C300.682 37.3445 300.278 35.3999 299.47 33.7715C298.681 32.143 297.536 30.5816 296.034 29.0873L292.714 25.7825C291.752 24.8055 290.809 23.7422 289.885 22.5927C288.961 21.424 288.191 20.1021 287.575 18.627C286.978 17.1518 286.68 15.4659 286.68 13.5692C286.68 11.0212 286.95 8.81798 287.488 6.95964C288.027 5.1013 289.009 3.66443 290.433 2.64905C291.858 1.63367 293.879 1.12598 296.496 1.12598C298.556 1.12598 300.201 1.4804 301.433 2.18925C302.684 2.89811 303.618 3.91349 304.234 5.2354C304.869 6.53816 305.283 8.08997 305.475 9.89084C305.687 11.6917 305.793 13.6842 305.793 15.8682V18.8569H300.076V15.4659C300.076 13.4159 299.99 11.7109 299.816 10.3506C299.662 8.97124 299.335 7.9367 298.835 7.24701C298.334 6.55732 297.555 6.21247 296.496 6.21247C295.534 6.21247 294.745 6.45195 294.129 6.9309C293.532 7.3907 293.099 8.10913 292.83 9.08619C292.56 10.0633 292.425 11.3181 292.425 12.8508C292.425 14.1918 292.589 15.303 292.916 16.1843C293.243 17.0464 293.734 17.8511 294.389 18.5982C295.062 19.3454 295.88 20.2267 296.843 21.242L300.307 24.8917C302.136 26.7883 303.627 28.9149 304.782 31.2713C305.956 33.6086 306.543 36.3291 306.543 39.4327C306.543 42.2298 306.264 44.6342 305.706 46.6458C305.167 48.6574 304.195 50.2092 302.79 51.3012C301.385 52.3741 299.374 52.9105 296.756 52.9105Z" fill="#B3C3D4"/>
<path d="M266.731 52.3354V1.75781H281.917V6.70062H272.707V24.0004H281.426V28.9432H272.707V47.3926H282.033V52.3354H266.731Z" fill="#B3C3D4"/>
<path d="M237.455 52.3354V1.75781H241.958L253.738 36.185L253.132 21.5578V1.75781H258.415V52.3354H254.027L242.623 17.6208L242.969 30.3801V52.3354H237.455Z" fill="#B3C3D4"/>
<path d="M223.135 52.3354V1.75781H229.111V52.3354H223.135Z" fill="#B3C3D4"/>
<path d="M204.572 52.824C201.627 52.824 199.365 51.617 197.787 49.2031C196.209 46.7892 195.42 42.8139 195.42 37.2772V16.0691C195.42 13.8467 195.574 11.8351 195.882 10.0342C196.209 8.21422 196.757 6.64325 197.527 5.32134C198.297 3.99943 199.346 2.98404 200.674 2.27519C202.021 1.56634 203.715 1.21191 205.755 1.21191C207.873 1.21191 209.557 1.57592 210.808 2.30393C212.078 3.01278 213.04 4.02816 213.695 5.35008C214.349 6.67199 214.782 8.25254 214.994 10.0917C215.206 11.9309 215.312 13.9617 215.312 16.184V20.0923H209.537V13.5115C209.537 11.0592 209.287 9.24876 208.787 8.08012C208.306 6.89231 207.295 6.29841 205.755 6.29841C204.119 6.29841 202.984 6.99768 202.349 8.39622C201.713 9.79477 201.396 12.2662 201.396 15.8104V37.076C201.396 40.9459 201.656 43.7143 202.175 45.3811C202.714 47.0478 203.85 47.8812 205.582 47.8812C207.237 47.8812 208.354 47.0478 208.931 45.3811C209.528 43.6951 209.826 40.8885 209.826 36.961V30.3802H205.698V25.7823H215.312V52.3355H212.165L211.356 48.4272C210.817 49.8449 209.961 50.9369 208.787 51.7033C207.632 52.4504 206.227 52.824 204.572 52.824Z" fill="#B3C3D4"/>
<path d="M166.722 52.3354V1.75781H171.226L183.005 36.185L182.399 21.5578V1.75781H187.682V52.3354H183.294L171.89 17.6208L172.237 30.3801V52.3354H166.722Z" fill="#B3C3D4"/>
<path d="M144.896 52.3354V1.75781H160.082V6.70062H150.872V24.0004H159.591V28.9432H150.872V47.3926H160.198V52.3354H144.896Z" fill="#B3C3D4"/>
<path d="M104.823 52.3354V1.75781H115.043C117.064 1.75781 118.7 2.09308 119.951 2.76362C121.221 3.43415 122.193 4.40164 122.867 5.66608C123.541 6.93052 123.993 8.45359 124.224 10.2353C124.474 12.017 124.599 14.019 124.599 16.2414V17.0173C124.599 20.4083 124.33 23.2533 123.791 25.5522C123.271 27.8512 122.319 29.585 120.933 30.7537C119.566 31.9032 117.603 32.4779 115.043 32.4779H110.799V52.3354H104.823ZM110.799 27.5351H114.437C115.611 27.5351 116.496 27.2094 117.093 26.5581C117.69 25.8875 118.094 24.7859 118.305 23.2533C118.536 21.7206 118.652 19.642 118.652 17.0173V16.0402C118.652 12.7833 118.402 10.379 117.901 8.82717C117.401 7.25621 116.294 6.47072 114.581 6.47072H110.799V27.5351Z" fill="#B3C3D4"/>
<path d="M84.787 52.3354L76.3278 1.75781H82.0154L85.3933 23.1671L88.2803 41.99H88.3958L90.9076 23.1671L93.8235 1.75781H99.4533L91.7448 52.3354H84.787Z" fill="#B3C3D4"/>
</svg>
