<svg width="153" height="40" viewBox="0 0 153 40" fill="none" xmlns="http://www.w3.org/2000/svg">
<path d="M6.29083 35.735L12.0259 3.15309C12.3324 1.41169 13.9901 0.248911 15.7284 0.555951C17.4667 0.862997 18.6274 2.52359 18.3209 4.26499L12.5861 36.8469C12.2795 38.5883 10.6216 39.7511 8.8833 39.444C7.14502 39.137 5.9843 37.4764 6.29083 35.735Z" fill="#B3C3D4"/>
<path d="M12.5854 35.735L6.8503 3.15309C6.54377 1.41169 4.88609 0.248911 3.1478 0.555951C1.40948 0.862997 0.248805 2.52359 0.555328 4.26499L6.29017 36.8469C6.59669 38.5883 8.2546 39.7511 9.99292 39.444C11.7312 39.137 12.8919 37.4764 12.5854 35.735Z" fill="#E3F0FF"/>
<path fill-rule="evenodd" clip-rule="evenodd" d="M21.1906 19.3889L24.0679 35.735C24.3744 37.4764 23.2137 39.137 21.4754 39.4441C19.7371 39.7511 18.0792 38.5884 17.7726 36.847L13.3326 11.6213C13.3267 11.6144 13.3209 11.6072 13.3153 11.5997C13.2507 11.5139 13.2185 11.4179 13.2185 11.3117V10.9728L12.0378 4.26504C11.7313 2.52365 12.892 0.863054 14.6303 0.556008C16.2658 0.267114 17.83 1.27944 18.2645 2.85064L19.2846 3.65125C19.6397 3.46331 20.007 3.30806 20.3864 3.18549C20.5155 2.07422 20.6326 1.3143 20.7375 0.905744C20.794 0.676952 20.9393 0.562556 21.1734 0.562556H23.8614C23.9744 0.562556 24.0733 0.597284 24.158 0.666738C24.2428 0.736193 24.2892 0.824033 24.2973 0.930258L24.6363 3.18549C25.0318 3.31623 25.3951 3.4674 25.726 3.63899L27.4453 2.32752C27.518 2.25398 27.6149 2.21721 27.7359 2.21721C27.8409 2.21721 27.9418 2.25807 28.0386 2.33978C29.0799 3.31215 29.7459 4.00669 30.0365 4.42342C30.093 4.48879 30.1212 4.57867 30.1212 4.69307C30.1212 4.79112 30.0889 4.88509 30.0243 4.97497C29.9033 5.14657 29.6974 5.41826 29.4068 5.79004C29.1162 6.16183 28.8983 6.44986 28.753 6.65414C28.9629 7.0627 29.1284 7.46309 29.2494 7.8553L31.4652 8.19849C31.5701 8.21483 31.6549 8.2659 31.7195 8.3517C31.784 8.43749 31.8163 8.53351 31.8163 8.63973V11.3607C31.8163 11.4588 31.784 11.5527 31.7195 11.6426C31.6549 11.7325 31.5742 11.7856 31.4773 11.802L29.2373 12.1452C29.084 12.5864 28.9266 12.9582 28.7651 13.2605C29.0476 13.6691 29.4795 14.2329 30.0607 14.9519C30.1414 15.05 30.1817 15.1521 30.1817 15.2584C30.1817 15.3646 30.1454 15.4585 30.0728 15.5403C29.8548 15.8426 29.4553 16.2838 28.8741 16.864C28.2929 17.4441 27.9135 17.7342 27.7359 17.7342C27.6391 17.7342 27.5341 17.6974 27.4211 17.6239L25.7502 16.3002C25.3951 16.4881 25.0278 16.6434 24.6484 16.7659C24.5192 17.8772 24.4022 18.6371 24.2973 19.0457C24.2408 19.2745 24.0955 19.3889 23.8614 19.3889H21.1906Z" fill="#E3F0FF"/>
<ellipse cx="22.5422" cy="9.77786" rx="3.13227" ry="3.13772" fill="#B3C3D4"/>
<path d="M147.153 25.643C146.134 25.643 145.304 25.4627 144.666 25.1022C144.027 24.7322 143.536 24.2105 143.193 23.5369C142.85 22.8633 142.612 22.0712 142.478 21.1604C142.355 20.2402 142.293 19.2251 142.293 18.1152V15.6818H145.166V18.229C145.166 19.9841 145.29 21.2411 145.538 22C145.795 22.7495 146.343 23.1242 147.182 23.1242C147.763 23.1242 148.188 22.9914 148.454 22.7258C148.731 22.4507 148.907 22.0143 148.983 21.4166C149.06 20.8189 149.098 20.0315 149.098 19.0544C149.098 17.9349 148.898 16.972 148.497 16.1656C148.106 15.3592 147.539 14.586 146.796 13.8461L145.152 12.2096C144.675 11.7258 144.208 11.1992 143.751 10.63C143.293 10.0513 142.912 9.39673 142.607 8.66625C142.312 7.93576 142.164 7.10091 142.164 6.16172C142.164 4.89996 142.297 3.80897 142.564 2.88875C142.831 1.96852 143.317 1.25701 144.022 0.754205C144.728 0.251402 145.729 0 147.025 0C148.045 0 148.859 0.175507 149.469 0.526521C150.089 0.877534 150.551 1.38034 150.856 2.03493C151.171 2.68004 151.376 3.44847 151.471 4.34024C151.576 5.232 151.628 6.21864 151.628 7.30014V8.78009H148.797V7.10091C148.797 6.08582 148.755 5.24149 148.669 4.56792C148.593 3.88487 148.431 3.37258 148.183 3.03105C147.935 2.68952 147.549 2.51876 147.025 2.51876C146.548 2.51876 146.157 2.63735 145.852 2.87452C145.557 3.1022 145.343 3.45796 145.209 3.94179C145.076 4.42562 145.009 5.04701 145.009 5.80596C145.009 6.47004 145.09 7.02028 145.252 7.45667C145.414 7.88358 145.657 8.28203 145.981 8.65202C146.315 9.022 146.72 9.4584 147.196 9.9612L148.912 11.7684C149.817 12.7076 150.556 13.7607 151.128 14.9276C151.709 16.085 152 17.4321 152 18.969C152 20.3541 151.862 21.5447 151.585 22.5408C151.318 23.5369 150.837 24.3053 150.141 24.8461C149.446 25.3773 148.45 25.643 147.153 25.643Z" fill="#B3C3D4"/>
<path d="M132.285 25.3583V0.312988H139.805V2.7606H135.244V11.3272H139.562V13.7748H135.244V22.9107H139.862V25.3583H132.285Z" fill="#B3C3D4"/>
<path d="M117.788 25.3583V0.312988H120.018L125.851 17.3609L125.551 10.1177V0.312988H128.167V25.3583H125.994L120.347 8.16811L120.519 14.4864V25.3583H117.788Z" fill="#B3C3D4"/>
<path d="M110.697 25.3583V0.312988H113.657V25.3583H110.697Z" fill="#B3C3D4"/>
<path d="M101.504 25.6006C100.046 25.6006 98.9263 25.0029 98.1448 23.8076C97.3632 22.6122 96.9725 20.6437 96.9725 17.902V7.40003C96.9725 6.29955 97.0487 5.30343 97.2012 4.41167C97.3632 3.51042 97.6349 2.73249 98.0161 2.0779C98.3974 1.42331 98.9168 0.920503 99.5744 0.569489C100.242 0.218476 101.08 0.0429688 102.091 0.0429688C103.139 0.0429688 103.973 0.223219 104.592 0.58372C105.222 0.934734 105.698 1.43754 106.022 2.09213C106.346 2.74672 106.561 3.52939 106.665 4.44013C106.77 5.35087 106.823 6.35647 106.823 7.45695V9.39227H103.963V6.13353C103.963 4.91921 103.84 4.02271 103.592 3.44401C103.353 2.85582 102.853 2.56173 102.091 2.56173C101.28 2.56173 100.718 2.908 100.404 3.60054C100.089 4.29308 99.9318 5.51689 99.9318 7.27196V17.8024C99.9318 19.7187 100.061 21.0896 100.318 21.9149C100.585 22.7403 101.147 23.153 102.005 23.153C102.824 23.153 103.377 22.7403 103.663 21.9149C103.959 21.0801 104.106 19.6903 104.106 17.7454V14.4867H102.062V12.2099H106.823V25.3587H105.264L104.864 23.4233C104.597 24.1254 104.173 24.6661 103.592 25.0456C103.02 25.4156 102.324 25.6006 101.504 25.6006Z" fill="#B3C3D4"/>
<path d="M82.7621 25.3583V0.312988H84.9923L90.8253 17.3609L90.525 10.1177V0.312988H93.1413V25.3583H90.9682L85.3211 8.16811L85.4927 14.4864V25.3583H82.7621Z" fill="#B3C3D4"/>
<path d="M71.9543 25.3583V0.312988H79.4742V2.7606H74.9136V11.3272H79.2312V13.7748H74.9136V22.9107H79.5314V25.3583H71.9543Z" fill="#B3C3D4"/>
<path d="M52.1108 25.3583V0.312988H57.1718C58.1725 0.312988 58.9827 0.479008 59.6022 0.811048C60.2312 1.14309 60.7125 1.62217 61.0461 2.24831C61.3797 2.87444 61.6037 3.62865 61.718 4.51092C61.8419 5.3932 61.9039 6.38458 61.9039 7.48505V7.86927C61.9039 9.54845 61.7705 10.9572 61.5036 12.0957C61.2463 13.2341 60.7745 14.0927 60.0883 14.6714C59.4116 15.2406 58.4394 15.5252 57.1718 15.5252H55.0702V25.3583H52.1108ZM55.0702 13.0776H56.8716C57.4529 13.0776 57.8914 12.9163 58.1868 12.5937C58.4823 12.2617 58.6824 11.7162 58.7873 10.9572C58.9016 10.1983 58.9588 9.16897 58.9588 7.86927V7.38544C58.9588 5.77268 58.8349 4.58208 58.5871 3.81364C58.3393 3.03572 57.7913 2.64676 56.943 2.64676H55.0702V13.0776Z" fill="#B3C3D4"/>
<path d="M42.1887 25.3583L37.9998 0.312988H40.8162L42.4889 10.9146L43.9185 20.2354H43.9757L45.2195 10.9146L46.6635 0.312988H49.4513L45.6341 25.3583H42.1887Z" fill="#B3C3D4"/>
<line x1="38" y1="29.2266" x2="152" y2="29.2266" stroke="#B3C3D4" stroke-width="0.5"/>
<path d="M151.462 37.8432V35.8703C151.462 35.6888 151.424 35.5321 151.349 35.4001C151.274 35.2681 151.163 35.1667 151.016 35.096C150.87 35.0253 150.69 34.9899 150.475 34.9899C150.277 34.9899 150.1 35.0253 149.945 35.096C149.791 35.1643 149.67 35.2574 149.58 35.3753C149.493 35.4908 149.45 35.6193 149.45 35.7607L149.025 35.7572C149.025 35.6134 149.06 35.4743 149.131 35.3399C149.202 35.2056 149.302 35.0854 149.432 34.9793C149.562 34.8732 149.716 34.7896 149.895 34.7283C150.077 34.6646 150.276 34.6328 150.493 34.6328C150.767 34.6328 151.007 34.6788 151.215 34.7707C151.424 34.8626 151.588 35.0005 151.706 35.1844C151.824 35.3682 151.883 35.5992 151.883 35.8774V37.7265C151.883 37.8585 151.893 37.9952 151.911 38.1367C151.933 38.2781 151.962 38.3948 152 38.4867V38.5291H151.551C151.522 38.4443 151.5 38.3382 151.483 38.2109C151.469 38.0813 151.462 37.9587 151.462 37.8432ZM151.561 36.3017L151.568 36.6269H150.737C150.52 36.6269 150.326 36.647 150.153 36.687C149.984 36.7248 149.84 36.7813 149.722 36.8568C149.604 36.9298 149.513 37.0182 149.45 37.1219C149.388 37.2256 149.358 37.3435 149.358 37.4755C149.358 37.6122 149.392 37.7371 149.46 37.8503C149.531 37.9634 149.63 38.0542 149.757 38.1225C149.887 38.1885 150.04 38.2215 150.217 38.2215C150.453 38.2215 150.66 38.1779 150.84 38.0907C151.021 38.0035 151.171 37.8892 151.289 37.7477C151.407 37.6063 151.486 37.4519 151.526 37.2846L151.71 37.5285C151.679 37.6464 151.623 37.7678 151.54 37.8927C151.46 38.0153 151.355 38.1308 151.225 38.2392C151.095 38.3453 150.942 38.4325 150.765 38.5008C150.591 38.5668 150.393 38.5998 150.171 38.5998C149.921 38.5998 149.703 38.5527 149.517 38.4584C149.333 38.3641 149.189 38.2357 149.085 38.073C148.984 37.908 148.933 37.7218 148.933 37.5144C148.933 37.3258 148.973 37.1573 149.053 37.0088C149.134 36.8579 149.249 36.7306 149.4 36.6269C149.553 36.5209 149.737 36.4407 149.952 36.3865C150.169 36.3299 150.412 36.3017 150.68 36.3017H151.561Z" fill="#E3F0FF"/>
<path d="M146.641 36.6764H146.026V36.39H146.606C146.842 36.39 147.029 36.3629 147.168 36.3087C147.308 36.2522 147.408 36.1732 147.469 36.0718C147.53 35.9705 147.561 35.8514 147.561 35.7147C147.561 35.5827 147.528 35.4625 147.462 35.3541C147.398 35.2457 147.296 35.1584 147.154 35.0925C147.013 35.0265 146.825 34.9935 146.592 34.9935C146.413 34.9935 146.248 35.0253 146.097 35.0889C145.946 35.1526 145.824 35.2398 145.732 35.3506C145.643 35.4613 145.598 35.5898 145.598 35.7359H145.174C145.174 35.5097 145.24 35.314 145.372 35.149C145.504 34.984 145.677 34.8567 145.892 34.7672C146.109 34.6776 146.342 34.6328 146.592 34.6328C146.809 34.6328 147.003 34.6564 147.176 34.7035C147.348 34.7507 147.494 34.8202 147.614 34.9121C147.734 35.0041 147.826 35.1184 147.89 35.2551C147.954 35.3894 147.986 35.5438 147.986 35.7183C147.986 35.8503 147.955 35.974 147.894 36.0895C147.835 36.205 147.747 36.3075 147.632 36.3971C147.519 36.4843 147.378 36.5527 147.211 36.6022C147.046 36.6517 146.856 36.6764 146.641 36.6764ZM146.026 36.482H146.641C146.877 36.482 147.084 36.5044 147.26 36.5491C147.437 36.5916 147.585 36.6552 147.703 36.7401C147.821 36.8249 147.908 36.9298 147.964 37.0547C148.023 37.1773 148.053 37.3187 148.053 37.479C148.053 37.6535 148.017 37.8102 147.947 37.9493C147.878 38.0883 147.779 38.2062 147.65 38.3028C147.52 38.3995 147.365 38.4726 147.186 38.5221C147.007 38.5716 146.809 38.5963 146.592 38.5963C146.358 38.5963 146.127 38.5551 145.899 38.4726C145.672 38.3901 145.485 38.2628 145.336 38.0907C145.188 37.9186 145.113 37.6994 145.113 37.4331H145.534C145.534 37.5792 145.58 37.7136 145.672 37.8361C145.764 37.9587 145.889 38.0565 146.047 38.1296C146.208 38.2027 146.389 38.2392 146.592 38.2392C146.821 38.2392 147.012 38.2074 147.165 38.1437C147.318 38.0777 147.434 37.9882 147.512 37.875C147.589 37.7619 147.628 37.6322 147.628 37.4861C147.628 37.314 147.591 37.175 147.515 37.0689C147.442 36.9628 147.33 36.885 147.179 36.8355C147.028 36.786 146.837 36.7613 146.606 36.7613H146.026V36.482Z" fill="#E3F0FF"/>
<path d="M141.545 37.8433L143.614 34.7036H144.038V38.5292H143.614V35.3895L141.545 38.5292H141.127V34.7036H141.545V37.8433Z" fill="#E3F0FF"/>
<path d="M138.86 34.7036V38.5292H138.439V34.7036H138.86ZM140.253 34.7036V35.0643H137.095V34.7036H140.253Z" fill="#E3F0FF"/>
<path d="M134.046 35.4389V40H133.622V34.7035H134.018L134.046 35.4389ZM136.706 36.581V36.6552C136.706 36.9404 136.673 37.2021 136.607 37.4401C136.541 37.6782 136.445 37.8845 136.32 38.0589C136.198 38.2309 136.046 38.3641 135.864 38.4584C135.682 38.5527 135.476 38.5998 135.245 38.5998C135.016 38.5998 134.812 38.5645 134.633 38.4938C134.454 38.4231 134.299 38.3229 134.17 38.1932C134.042 38.0612 133.94 37.908 133.862 37.7336C133.787 37.5568 133.734 37.3635 133.703 37.1537V36.1744C133.738 35.9434 133.796 35.7336 133.876 35.545C133.956 35.3564 134.059 35.1938 134.184 35.0571C134.311 34.9204 134.462 34.8155 134.637 34.7424C134.811 34.6693 135.01 34.6328 135.234 34.6328C135.468 34.6328 135.675 34.6788 135.857 34.7707C136.041 34.8603 136.195 34.9911 136.32 35.1632C136.448 35.3329 136.543 35.5379 136.607 35.7784C136.673 36.0164 136.706 36.284 136.706 36.581ZM136.281 36.6552V36.581C136.281 36.357 136.258 36.1496 136.211 35.9587C136.166 35.7678 136.096 35.6016 136.002 35.4602C135.91 35.3164 135.792 35.2044 135.648 35.1243C135.507 35.0441 135.338 35.0041 135.142 35.0041C134.94 35.0041 134.766 35.0382 134.623 35.1066C134.481 35.1726 134.363 35.261 134.269 35.3718C134.174 35.4802 134.1 35.5992 134.046 35.7289C133.992 35.8585 133.952 35.9858 133.926 36.1107V37.2386C133.971 37.4177 134.042 37.5839 134.141 37.7371C134.241 37.888 134.373 38.0094 134.538 38.1013C134.705 38.1909 134.909 38.2357 135.15 38.2357C135.343 38.2357 135.51 38.1956 135.652 38.1155C135.793 38.0353 135.91 37.9233 136.002 37.7796C136.096 37.6358 136.166 37.4684 136.211 37.2775C136.258 37.0866 136.281 36.8791 136.281 36.6552Z" fill="#E3F0FF"/>
<path d="M131.213 38.5998C130.963 38.5998 130.733 38.5539 130.523 38.4619C130.316 38.37 130.134 38.2404 129.978 38.073C129.825 37.9057 129.706 37.7077 129.621 37.479C129.539 37.248 129.497 36.9958 129.497 36.7224V36.5704C129.497 36.2757 129.541 36.0094 129.628 35.7713C129.715 35.5332 129.836 35.3293 129.989 35.1596C130.142 34.9899 130.317 34.8603 130.512 34.7707C130.71 34.6788 130.918 34.6328 131.135 34.6328C131.378 34.6328 131.594 34.6764 131.782 34.7636C131.971 34.8485 132.129 34.9699 132.256 35.1278C132.386 35.2834 132.484 35.4684 132.55 35.6829C132.616 35.895 132.649 36.1296 132.649 36.3865V36.6446H129.752V36.284H132.228V36.2345C132.223 36.02 132.18 35.8196 132.097 35.6334C132.017 35.4448 131.897 35.2916 131.736 35.1738C131.576 35.0559 131.375 34.997 131.135 34.997C130.956 34.997 130.791 35.0347 130.64 35.1101C130.491 35.1856 130.363 35.294 130.254 35.4354C130.148 35.5745 130.066 35.7407 130.007 35.9339C129.95 36.1249 129.922 36.337 129.922 36.5704V36.7224C129.922 36.9345 129.952 37.1325 130.014 37.3164C130.077 37.4979 130.167 37.6582 130.283 37.7972C130.4 37.9363 130.54 38.0447 130.7 38.1225C130.86 38.2003 131.037 38.2392 131.23 38.2392C131.457 38.2392 131.657 38.1979 131.832 38.1155C132.006 38.0306 132.163 37.8974 132.302 37.7159L132.567 37.921C132.485 38.0436 132.381 38.1567 132.256 38.2604C132.134 38.3641 131.986 38.4466 131.814 38.5079C131.642 38.5692 131.442 38.5998 131.213 38.5998Z" fill="#E3F0FF"/>
<path d="M128.107 34.7036V35.0713H125.868V34.7036H128.107ZM125.964 34.7036V38.5292H125.543V34.7036H125.964ZM128.454 34.7036V38.5292H128.029V34.7036H128.454Z" fill="#E3F0FF"/>
<path d="M123.046 38.2357C123.225 38.2357 123.392 38.2027 123.548 38.1367C123.706 38.0683 123.836 37.9681 123.937 37.8361C124.041 37.7018 124.1 37.538 124.114 37.3447H124.517C124.506 37.5875 124.431 37.8043 124.294 37.9952C124.16 38.1838 123.983 38.3323 123.764 38.4407C123.547 38.5468 123.308 38.5998 123.046 38.5998C122.779 38.5998 122.544 38.5515 122.338 38.4549C122.136 38.3582 121.966 38.2239 121.829 38.0518C121.692 37.8774 121.589 37.6747 121.518 37.4437C121.449 37.2103 121.415 36.9593 121.415 36.6906V36.5421C121.415 36.2734 121.449 36.0235 121.518 35.7925C121.589 35.5592 121.692 35.3564 121.829 35.1844C121.966 35.01 122.136 34.8744 122.338 34.7778C122.541 34.6811 122.776 34.6328 123.042 34.6328C123.316 34.6328 123.561 34.6882 123.778 34.799C123.997 34.9098 124.172 35.0665 124.302 35.2692C124.434 35.4719 124.506 35.7124 124.517 35.9905H124.114C124.102 35.7854 124.048 35.6087 123.951 35.4602C123.855 35.3117 123.727 35.1973 123.569 35.1172C123.411 35.0371 123.236 34.997 123.042 34.997C122.825 34.997 122.64 35.0394 122.487 35.1243C122.334 35.2068 122.209 35.3211 122.112 35.4672C122.018 35.611 121.948 35.776 121.903 35.9622C121.859 36.1461 121.836 36.3394 121.836 36.5421V36.6906C121.836 36.8956 121.857 37.0913 121.9 37.2775C121.945 37.4614 122.014 37.6252 122.109 37.769C122.205 37.9127 122.33 38.0271 122.483 38.1119C122.639 38.1944 122.827 38.2357 123.046 38.2357Z" fill="#E3F0FF"/>
<path d="M118.239 34.7036V38.5292H117.815V34.7036H118.239ZM120.757 34.7036L119.003 36.7755H118.09L118.044 36.3972H118.823L120.223 34.7036H120.757ZM120.375 38.5292L118.78 36.7189L119.049 36.3937L120.934 38.5292H120.375Z" fill="#E3F0FF"/>
<path d="M115.374 38.5998C115.124 38.5998 114.894 38.5539 114.684 38.4619C114.477 38.37 114.295 38.2404 114.139 38.073C113.986 37.9057 113.867 37.7077 113.782 37.479C113.7 37.248 113.658 36.9958 113.658 36.7224V36.5704C113.658 36.2757 113.702 36.0094 113.789 35.7713C113.877 35.5332 113.997 35.3293 114.15 35.1596C114.303 34.9899 114.478 34.8603 114.674 34.7707C114.872 34.6788 115.079 34.6328 115.296 34.6328C115.539 34.6328 115.755 34.6764 115.943 34.7636C116.132 34.8485 116.29 34.9699 116.417 35.1278C116.547 35.2834 116.645 35.4684 116.711 35.6829C116.777 35.895 116.81 36.1296 116.81 36.3865V36.6446H113.913V36.284H116.389V36.2345C116.384 36.02 116.341 35.8196 116.258 35.6334C116.178 35.4448 116.058 35.2916 115.897 35.1738C115.737 35.0559 115.537 34.997 115.296 34.997C115.117 34.997 114.952 35.0347 114.801 35.1101C114.652 35.1856 114.524 35.294 114.415 35.4354C114.309 35.5745 114.227 35.7407 114.168 35.9339C114.111 36.1249 114.083 36.337 114.083 36.5704V36.7224C114.083 36.9345 114.113 37.1325 114.175 37.3164C114.238 37.4979 114.328 37.6582 114.444 37.7972C114.562 37.9363 114.701 38.0447 114.861 38.1225C115.021 38.2003 115.198 38.2392 115.392 38.2392C115.618 38.2392 115.818 38.1979 115.993 38.1155C116.167 38.0306 116.324 37.8974 116.463 37.7159L116.729 37.921C116.646 38.0436 116.542 38.1567 116.417 38.2604C116.295 38.3641 116.147 38.4466 115.975 38.5079C115.803 38.5692 115.603 38.5998 115.374 38.5998Z" fill="#E3F0FF"/>
<path d="M106.622 33.3813V39.4839H106.265V33.3813H106.622Z" fill="#E3F0FF"/>
<path d="M99.4123 34.7036V35.0713H97.474V38.5292H97.053V34.7036H99.4123Z" fill="#E3F0FF"/>
<path d="M95.4189 36.4149V36.7755H93.1481V36.4149H95.4189ZM93.2577 34.7036V38.5292H92.8368V34.7036H93.2577ZM95.7443 34.7036V38.5292H95.3199V34.7036H95.7443Z" fill="#E3F0FF"/>
<path d="M91.5071 34.7036V38.5292H91.086V34.7036H91.5071ZM91.0117 33.5969C91.0117 33.5168 91.0364 33.4496 91.086 33.3954C91.1379 33.3388 91.2086 33.3105 91.2983 33.3105C91.3879 33.3105 91.4587 33.3388 91.5106 33.3954C91.5649 33.4496 91.592 33.5168 91.592 33.5969C91.592 33.6747 91.5649 33.7419 91.5106 33.7985C91.4587 33.8527 91.3879 33.8798 91.2983 33.8798C91.2086 33.8798 91.1379 33.8527 91.086 33.7985C91.0364 33.7419 91.0117 33.6747 91.0117 33.5969Z" fill="#E3F0FF"/>
<path d="M89.4273 36.4149V36.7755H87.1565V36.4149H89.4273ZM87.2661 34.7036V38.5292H86.8452V34.7036H87.2661ZM89.7528 34.7036V38.5292H89.3283V34.7036H89.7528Z" fill="#E3F0FF"/>
<path d="M82.6716 36.4431V36.8037H80.8819V36.4431H82.6716ZM81.2462 34.7035V38.5291H80.8253V34.7035H81.2462ZM82.3321 36.6764V36.5598C82.3321 36.2816 82.3722 36.0247 82.4523 35.789C82.5325 35.5533 82.6469 35.3494 82.7954 35.1773C82.9464 35.0052 83.1268 34.8721 83.3366 34.7778C83.5465 34.6811 83.78 34.6328 84.037 34.6328C84.2964 34.6328 84.531 34.6811 84.7409 34.7778C84.9508 34.8721 85.1311 35.0052 85.2821 35.1773C85.433 35.3494 85.5485 35.5533 85.6287 35.789C85.7089 36.0247 85.749 36.2816 85.749 36.5598V36.6764C85.749 36.9546 85.7089 37.2115 85.6287 37.4472C85.5485 37.6806 85.433 37.8833 85.2821 38.0553C85.1335 38.2274 84.9543 38.3618 84.7444 38.4584C84.5345 38.5527 84.3011 38.5998 84.0441 38.5998C83.7847 38.5998 83.55 38.5527 83.3402 38.4584C83.1303 38.3618 82.9499 38.2274 82.799 38.0553C82.6481 37.8833 82.5325 37.6806 82.4523 37.4472C82.3722 37.2115 82.3321 36.9546 82.3321 36.6764ZM82.7565 36.5598V36.6764C82.7565 36.8862 82.7837 37.0854 82.8379 37.274C82.8945 37.4602 82.977 37.6263 83.0855 37.7725C83.1963 37.9163 83.3307 38.0294 83.4887 38.1119C83.6491 38.1944 83.8342 38.2357 84.0441 38.2357C84.2516 38.2357 84.4343 38.1944 84.5923 38.1119C84.7527 38.0294 84.8871 37.9163 84.9956 37.7725C85.104 37.6263 85.1866 37.4602 85.2432 37.274C85.2997 37.0854 85.328 36.8862 85.328 36.6764V36.5598C85.328 36.3523 85.2997 36.1555 85.2432 35.9693C85.1866 35.7831 85.1028 35.6169 84.992 35.4708C84.8835 35.3246 84.7491 35.2091 84.5888 35.1243C84.4284 35.0394 84.2445 34.997 84.037 34.997C83.8295 34.997 83.6467 35.0394 83.4887 35.1243C83.3307 35.2091 83.1963 35.3246 83.0855 35.4708C82.977 35.6169 82.8945 35.7831 82.8379 35.9693C82.7837 36.1555 82.7565 36.3523 82.7565 36.5598Z" fill="#E3F0FF"/>
<path d="M78.5405 34.7036V38.5292H78.1196V34.7036H78.5405ZM79.9342 34.7036V35.0643H76.7755V34.7036H79.9342Z" fill="#E3F0FF"/>
<path d="M69.9159 33.3813V39.4839H69.5585V33.3813H69.9159Z" fill="#E3F0FF"/>
<path d="M61.2844 34.7036V38.5292H60.8635V34.7036H61.2844ZM62.6781 34.7036V35.0643H59.5194V34.7036H62.6781Z" fill="#E3F0FF"/>
<path d="M58.324 36.4149V36.7755H56.0532V36.4149H58.324ZM56.1628 34.7036V38.5292H55.7419V34.7036H56.1628ZM58.6494 34.7036V38.5292H58.225V34.7036H58.6494Z" fill="#E3F0FF"/>
<path d="M51.2743 36.6764V36.5598C51.2743 36.2816 51.3144 36.0247 51.3946 35.789C51.4747 35.5533 51.5891 35.3494 51.7377 35.1773C51.8886 35.0052 52.069 34.8721 52.2788 34.7778C52.4887 34.6811 52.7222 34.6328 52.9792 34.6328C53.2386 34.6328 53.4732 34.6811 53.6831 34.7778C53.893 34.8721 54.0734 35.0052 54.2243 35.1773C54.3752 35.3494 54.4907 35.5533 54.5709 35.789C54.6511 36.0247 54.6912 36.2816 54.6912 36.5598V36.6764C54.6912 36.9546 54.6511 37.2115 54.5709 37.4472C54.4907 37.6806 54.3752 37.8833 54.2243 38.0553C54.0757 38.2274 53.8965 38.3618 53.6866 38.4584C53.4768 38.5527 53.2433 38.5998 52.9863 38.5998C52.7269 38.5998 52.4923 38.5527 52.2824 38.4584C52.0725 38.3618 51.8921 38.2274 51.7412 38.0553C51.5903 37.8833 51.4747 37.6806 51.3946 37.4472C51.3144 37.2115 51.2743 36.9546 51.2743 36.6764ZM51.6952 36.5598V36.6764C51.6952 36.8862 51.7235 37.0854 51.7801 37.274C51.8367 37.4602 51.9192 37.6263 52.0277 37.7725C52.1362 37.9163 52.2706 38.0294 52.4309 38.1119C52.5913 38.1944 52.7764 38.2357 52.9863 38.2357C53.1938 38.2357 53.3765 38.1944 53.5345 38.1119C53.6949 38.0294 53.8293 37.9163 53.9378 37.7725C54.0462 37.6263 54.1276 37.4602 54.1818 37.274C54.2384 37.0854 54.2667 36.8862 54.2667 36.6764V36.5598C54.2667 36.3523 54.2384 36.1555 54.1818 35.9693C54.1276 35.7831 54.0451 35.6169 53.9342 35.4708C53.8258 35.3246 53.6913 35.2091 53.531 35.1243C53.3706 35.0394 53.1867 34.997 52.9792 34.997C52.7717 34.997 52.5878 35.0394 52.4274 35.1243C52.2694 35.2091 52.135 35.3246 52.0242 35.4708C51.9157 35.6169 51.8332 35.7831 51.7766 35.9693C51.7223 36.1555 51.6952 36.3523 51.6952 36.5598Z" fill="#E3F0FF"/>
<path d="M48.1794 37.9494L49.7004 34.7036H50.1213L48.328 38.5292H48.0308L46.241 34.7036H46.662L48.1794 37.9494ZM46.5311 34.7036V38.5292H46.1102V34.7036H46.5311ZM49.7994 38.5292V34.7036H50.2239V38.5292H49.7994Z" fill="#E3F0FF"/>
<path d="M43.6484 38.5998C43.3984 38.5998 43.1685 38.5539 42.9586 38.4619C42.7511 38.37 42.5695 38.2404 42.4139 38.073C42.2606 37.9057 42.1416 37.7077 42.0567 37.479C41.9741 37.248 41.9329 36.9958 41.9329 36.7224V36.5704C41.9329 36.2757 41.9765 36.0094 42.0637 35.7713C42.151 35.5332 42.2712 35.3293 42.4245 35.1596C42.5778 34.9899 42.7523 34.8603 42.948 34.7707C43.1461 34.6788 43.3536 34.6328 43.5706 34.6328C43.8134 34.6328 44.0292 34.6764 44.2179 34.7636C44.4065 34.8485 44.5645 34.9699 44.6918 35.1278C44.8215 35.2834 44.9194 35.4684 44.9854 35.6829C45.0514 35.895 45.0845 36.1296 45.0845 36.3865V36.6446H42.1875V36.284H44.6635V36.2345C44.6588 36.02 44.6152 35.8196 44.5327 35.6334C44.4525 35.4448 44.3322 35.2916 44.1719 35.1738C44.0115 35.0559 43.8111 34.997 43.5706 34.997C43.3913 34.997 43.2263 35.0347 43.0754 35.1101C42.9268 35.1856 42.7983 35.294 42.6898 35.4354C42.5837 35.5745 42.5012 35.7407 42.4422 35.9339C42.3856 36.1249 42.3573 36.337 42.3573 36.5704V36.7224C42.3573 36.9345 42.388 37.1325 42.4493 37.3164C42.513 37.4979 42.6026 37.6582 42.7181 37.7972C42.836 37.9363 42.9751 38.0447 43.1355 38.1225C43.2958 38.2003 43.4727 38.2392 43.6661 38.2392C43.8924 38.2392 44.0929 38.1979 44.2674 38.1155C44.4419 38.0306 44.5987 37.8974 44.7378 37.7159L45.0031 37.921C44.9206 38.0436 44.8168 38.1567 44.6918 38.2604C44.5692 38.3641 44.4218 38.4466 44.2497 38.5079C44.0776 38.5692 43.8771 38.5998 43.6484 38.5998Z" fill="#E3F0FF"/>
<path d="M38.4243 35.4389V40H37.9999V34.7035H38.396L38.4243 35.4389ZM41.0843 36.581V36.6552C41.0843 36.9404 41.0513 37.2021 40.9852 37.4401C40.9192 37.6782 40.8237 37.8845 40.6987 38.0589C40.5761 38.2309 40.424 38.3641 40.2424 38.4584C40.0609 38.5527 39.8545 38.5998 39.6234 38.5998C39.3947 38.5998 39.1907 38.5645 39.0115 38.4938C38.8323 38.4231 38.6778 38.3229 38.5481 38.1932C38.4208 38.0612 38.3182 37.908 38.2404 37.7336C38.1649 37.5568 38.1119 37.3635 38.0812 37.1537V36.1744C38.1166 35.9434 38.1744 35.7336 38.2546 35.545C38.3347 35.3564 38.4373 35.1938 38.5623 35.0571C38.6896 34.9204 38.8405 34.8155 39.015 34.7424C39.1895 34.6693 39.3888 34.6328 39.6128 34.6328C39.8463 34.6328 40.0538 34.6788 40.2354 34.7707C40.4193 34.8603 40.5737 34.9911 40.6987 35.1632C40.8261 35.3329 40.9216 35.5379 40.9852 35.7784C41.0513 36.0164 41.0843 36.284 41.0843 36.581ZM40.6598 36.6552V36.581C40.6598 36.357 40.6362 36.1496 40.5891 35.9587C40.5443 35.7678 40.4747 35.6016 40.3804 35.4602C40.2884 35.3164 40.1705 35.2044 40.0267 35.1243C39.8852 35.0441 39.7166 35.0041 39.5209 35.0041C39.3181 35.0041 39.1447 35.0382 39.0009 35.1066C38.8594 35.1726 38.7415 35.261 38.6472 35.3718C38.5529 35.4802 38.4786 35.5992 38.4243 35.7289C38.3701 35.8585 38.33 35.9858 38.3041 36.1107V37.2386C38.3489 37.4177 38.4208 37.5839 38.5198 37.7371C38.6189 37.888 38.7509 38.0094 38.916 38.1013C39.0834 38.1909 39.2874 38.2357 39.5279 38.2357C39.7213 38.2357 39.8887 38.1956 40.0302 38.1155C40.1717 38.0353 40.2884 37.9233 40.3804 37.7796C40.4747 37.6358 40.5443 37.4684 40.5891 37.2775C40.6362 37.0866 40.6598 36.8791 40.6598 36.6552Z" fill="#E3F0FF"/>
</svg>
