<svg width="240" height="62" viewBox="0 0 240 62" fill="none" xmlns="http://www.w3.org/2000/svg">
<path d="M9.75028 55.3892L18.6397 4.88728C19.1148 2.18811 21.6842 0.385812 24.3785 0.861725C27.0729 1.33765 28.872 3.91156 28.3969 6.61073L19.5079 57.1127C19.0328 59.8119 16.463 61.6141 13.7686 61.1382C11.0743 60.6623 9.27517 58.0884 9.75028 55.3892Z" fill="#B3C3D4"/>
<path d="M19.5075 55.3892L10.6181 4.88728C10.143 2.18811 7.57362 0.385812 4.87927 0.861725C2.18488 1.33765 0.385826 3.91156 0.860936 6.61073L9.74993 57.1127C10.225 59.8119 12.7948 61.6141 15.4892 61.1382C18.1835 60.6623 19.9826 58.0884 19.5075 55.3892Z" fill="#E3F0FF"/>
<path d="M37.3053 55.3892L28.4159 4.88728C27.9408 2.18811 25.3714 0.385812 22.6771 0.861725C19.9827 1.33765 18.1836 3.91156 18.6587 6.61073L27.5477 57.1127C28.0228 59.8119 30.5926 61.6141 33.287 61.1382C35.9813 60.6623 37.7804 58.0884 37.3053 55.3892Z" fill="#E3F0FF"/>
<path d="M49.315 13.3922V17.6097C49.315 17.7617 49.265 17.9073 49.1649 18.0467C49.0648 18.186 48.9397 18.2683 48.7896 18.2936L45.3176 18.8256C45.0799 19.5095 44.8359 20.0858 44.5857 20.5544C45.0236 21.1877 45.6929 22.0616 46.5938 23.1761C46.7189 23.3281 46.7814 23.4864 46.7814 23.651C46.7814 23.8157 46.7251 23.9613 46.6125 24.088C46.2747 24.5566 45.6554 25.2405 44.7546 26.1398C43.8537 27.039 43.2657 27.4886 42.9904 27.4886C42.8403 27.4886 42.6776 27.4316 42.5025 27.3176L39.9126 25.2659C39.3621 25.5572 38.7928 25.7978 38.2048 25.9878C38.0046 27.7103 37.8232 28.8881 37.6605 29.5214C37.5729 29.876 37.3477 30.0533 36.9849 30.0533H32.8185C32.6434 30.0533 32.4901 29.9995 32.3587 29.8919C32.2273 29.7842 32.1554 29.6481 32.1429 29.4834L31.6174 25.9878C31.0043 25.7851 30.4413 25.5508 29.9283 25.2849L27.2821 27.3176C27.157 27.4316 27.0006 27.4886 26.813 27.4886C26.6378 27.4886 26.4814 27.419 26.3438 27.2796C24.7673 25.8358 23.7351 24.7719 23.2471 24.088C23.1596 23.9613 23.1158 23.8157 23.1158 23.651C23.1158 23.4991 23.1658 23.3534 23.2659 23.2141C23.4536 22.9481 23.7726 22.527 24.2231 21.9507C24.6735 21.3745 25.0113 20.928 25.2365 20.6114C24.8987 19.9781 24.6422 19.3512 24.467 18.7306L21.0326 18.2176C20.8699 18.1923 20.7386 18.1132 20.6385 17.9802C20.5384 17.8472 20.4883 17.6984 20.4883 17.5337V13.3162C20.4883 13.1642 20.5384 13.0186 20.6385 12.8792C20.7386 12.7399 20.8574 12.6576 20.9951 12.6323L24.4858 12.1003C24.661 11.5177 24.9049 10.9351 25.2177 10.3525C24.7173 9.63059 24.0479 8.75669 23.2096 7.7308C23.0845 7.57882 23.0219 7.42684 23.0219 7.27485C23.0219 7.1482 23.0782 7.00255 23.1908 6.8379C23.5161 6.38195 24.1323 5.70119 25.0394 4.79563C25.9465 3.89006 26.5377 3.43728 26.813 3.43728C26.9756 3.43728 27.1383 3.5006 27.3009 3.62725L29.8908 5.66003C30.4413 5.36873 31.0106 5.12809 31.5986 4.93811C31.7988 3.21563 31.9802 2.03776 32.1429 1.4045C32.2305 1.04987 32.4557 0.872559 32.8185 0.872559H36.9849C37.16 0.872559 37.3133 0.926386 37.4447 1.03404C37.576 1.1417 37.648 1.27785 37.6605 1.4425L38.186 4.93811C38.7991 5.14075 39.3621 5.37506 39.875 5.64103L42.54 3.60826C42.6526 3.49427 42.8028 3.43728 42.9904 3.43728C43.1531 3.43728 43.3095 3.5006 43.4596 3.62725C45.0736 5.13442 46.1058 6.21097 46.5562 6.8569C46.6438 6.95822 46.6876 7.09754 46.6876 7.27485C46.6876 7.42684 46.6376 7.57249 46.5375 7.7118C46.3498 7.97778 46.0308 8.3989 45.5803 8.97517C45.1299 9.55144 44.7921 9.99789 44.5669 10.3145C44.8922 10.9478 45.1487 11.5684 45.3364 12.1763L48.7708 12.7083C48.9334 12.7336 49.0648 12.8127 49.1649 12.9457C49.265 13.0787 49.315 13.2275 49.315 13.3922Z" fill="#E3F0FF"/>
<ellipse cx="34.9409" cy="15.1555" rx="4.85502" ry="4.86347" fill="#B3C3D4"/>
<line x1="62" y1="45.5" x2="240" y2="45.5" stroke="#B3C3D4"/>
<path d="M239.16 57.0764V53.9961C239.16 53.7127 239.102 53.468 238.984 53.2619C238.866 53.0558 238.693 52.8975 238.465 52.7871C238.236 52.6767 237.955 52.6215 237.62 52.6215C237.31 52.6215 237.034 52.6767 236.791 52.7871C236.552 52.8939 236.362 53.0392 236.222 53.2232C236.086 53.4036 236.018 53.6041 236.018 53.825L235.355 53.8194C235.355 53.5949 235.411 53.3778 235.521 53.168C235.631 52.9583 235.788 52.7706 235.99 52.605C236.193 52.4393 236.434 52.3087 236.714 52.213C236.997 52.1136 237.309 52.064 237.647 52.064C238.074 52.064 238.45 52.1357 238.774 52.2793C239.102 52.4228 239.357 52.6381 239.541 52.9251C239.726 53.2122 239.818 53.5729 239.818 54.0071V56.8943C239.818 57.1004 239.832 57.3138 239.862 57.5346C239.895 57.7555 239.941 57.9376 240 58.0812V58.1474H239.298C239.254 58.0149 239.219 57.8493 239.194 57.6506C239.171 57.4482 239.16 57.2568 239.16 57.0764ZM239.315 54.6696L239.326 55.1774H238.028C237.69 55.1774 237.386 55.2087 237.117 55.2713C236.852 55.3302 236.627 55.4185 236.443 55.5363C236.259 55.6504 236.117 55.7884 236.018 55.9503C235.922 56.1122 235.874 56.2962 235.874 56.5023C235.874 56.7158 235.928 56.9108 236.035 57.0875C236.145 57.2641 236.3 57.4058 236.499 57.5126C236.701 57.6156 236.94 57.6671 237.216 57.6671C237.585 57.6671 237.909 57.599 238.188 57.4629C238.472 57.3267 238.706 57.1482 238.89 56.9274C239.074 56.7066 239.197 56.4655 239.26 56.2042L239.547 56.5851C239.499 56.7691 239.411 56.9587 239.282 57.1537C239.157 57.3451 238.993 57.5254 238.79 57.6947C238.588 57.8603 238.349 57.9965 238.072 58.1032C237.8 58.2063 237.491 58.2578 237.145 58.2578C236.754 58.2578 236.414 58.1842 236.123 58.037C235.836 57.8898 235.611 57.6892 235.449 57.4353C235.291 57.1777 235.212 56.8869 235.212 56.5631C235.212 56.2686 235.274 56.0055 235.4 55.7736C235.525 55.5381 235.705 55.3394 235.941 55.1774C236.18 55.0118 236.467 54.8867 236.802 54.8021C237.141 54.7137 237.52 54.6696 237.94 54.6696H239.315Z" fill="#E3F0FF"/>
<path d="M231.632 55.2547H230.672V54.8076H231.577C231.945 54.8076 232.238 54.7653 232.455 54.6806C232.673 54.5923 232.829 54.469 232.925 54.3107C233.021 54.1525 233.068 53.9666 233.068 53.7532C233.068 53.5471 233.017 53.3594 232.914 53.1901C232.814 53.0208 232.654 52.8847 232.433 52.7816C232.212 52.6786 231.92 52.627 231.555 52.627C231.275 52.627 231.018 52.6767 230.782 52.7761C230.546 52.8755 230.357 53.0116 230.213 53.1846C230.073 53.3576 230.003 53.5581 230.003 53.7863H229.341C229.341 53.433 229.444 53.1276 229.65 52.8699C229.856 52.6123 230.127 52.4136 230.462 52.2737C230.8 52.1339 231.165 52.064 231.555 52.064C231.894 52.064 232.198 52.1008 232.466 52.1744C232.735 52.248 232.963 52.3565 233.151 52.5001C233.339 52.6436 233.483 52.8221 233.582 53.0355C233.681 53.2453 233.731 53.4864 233.731 53.7587C233.731 53.9648 233.683 54.158 233.588 54.3384C233.495 54.5187 233.359 54.6788 233.179 54.8186C233.002 54.9548 232.783 55.0615 232.522 55.1388C232.264 55.2161 231.968 55.2547 231.632 55.2547ZM230.672 54.9511H231.632C232.001 54.9511 232.323 54.9861 232.599 55.056C232.875 55.1222 233.105 55.2216 233.289 55.3541C233.473 55.4866 233.61 55.6504 233.698 55.8454C233.79 56.0368 233.836 56.2576 233.836 56.5079C233.836 56.7802 233.781 57.0249 233.67 57.2421C233.564 57.4592 233.409 57.6432 233.206 57.7941C233.004 57.945 232.763 58.0591 232.483 58.1364C232.203 58.2136 231.894 58.2523 231.555 58.2523C231.191 58.2523 230.83 58.1879 230.473 58.0591C230.119 57.9303 229.827 57.7315 229.595 57.4629C229.363 57.1942 229.247 56.852 229.247 56.4361H229.904C229.904 56.6643 229.976 56.874 230.119 57.0654C230.263 57.2568 230.458 57.4095 230.705 57.5236C230.955 57.6377 231.239 57.6947 231.555 57.6947C231.912 57.6947 232.211 57.645 232.45 57.5457C232.689 57.4426 232.87 57.3028 232.991 57.1261C233.113 56.9495 233.173 56.7471 233.173 56.5189C233.173 56.2502 233.114 56.0331 232.997 55.8675C232.882 55.7019 232.708 55.5804 232.472 55.5031C232.236 55.4259 231.938 55.3872 231.577 55.3872H230.672V54.9511Z" fill="#E3F0FF"/>
<path d="M223.674 57.0774L226.905 52.1753H227.568V58.1483H226.905V53.2462L223.674 58.1483H223.023V52.1753H223.674V57.0774Z" fill="#E3F0FF"/>
<path d="M219.484 52.1753V58.1483H218.826V52.1753H219.484ZM221.659 52.1753V52.7384H216.728V52.1753H221.659Z" fill="#E3F0FF"/>
<path d="M211.967 53.3226V60.4439H211.304V52.1744H211.923L211.967 53.3226ZM216.12 55.1057V55.2216C216.12 55.6669 216.068 56.0754 215.965 56.4471C215.862 56.8188 215.713 57.1409 215.518 57.4132C215.326 57.6818 215.089 57.8898 214.805 58.037C214.522 58.1842 214.2 58.2578 213.839 58.2578C213.482 58.2578 213.163 58.2026 212.884 58.0922C212.604 57.9818 212.363 57.8254 212.16 57.623C211.961 57.4169 211.801 57.1777 211.68 56.9053C211.562 56.6293 211.479 56.3275 211.431 56V54.4708C211.486 54.1102 211.577 53.7826 211.702 53.4882C211.827 53.1938 211.987 52.9399 212.182 52.7264C212.381 52.513 212.617 52.3492 212.889 52.2351C213.162 52.121 213.473 52.064 213.822 52.064C214.187 52.064 214.511 52.1357 214.794 52.2793C215.082 52.4191 215.323 52.6234 215.518 52.892C215.717 53.157 215.866 53.4772 215.965 53.8526C216.068 54.2243 216.12 54.642 216.12 55.1057ZM215.457 55.2216V55.1057C215.457 54.7561 215.42 54.4322 215.347 54.1341C215.277 53.836 215.168 53.5765 215.021 53.3557C214.877 53.1312 214.693 52.9564 214.469 52.8313C214.248 52.7062 213.984 52.6436 213.679 52.6436C213.362 52.6436 213.092 52.697 212.867 52.8037C212.646 52.9067 212.462 53.0447 212.315 53.2177C212.167 53.387 212.051 53.5729 211.967 53.7753C211.882 53.9777 211.82 54.1764 211.779 54.3715V56.1325C211.849 56.4122 211.961 56.6716 212.116 56.9108C212.271 57.1464 212.477 57.3359 212.734 57.4794C212.996 57.6193 213.314 57.6892 213.69 57.6892C213.992 57.6892 214.253 57.6266 214.474 57.5015C214.695 57.3764 214.877 57.2016 215.021 56.9771C215.168 56.7526 215.277 56.4913 215.347 56.1932C215.42 55.8951 215.457 55.5712 215.457 55.2216Z" fill="#E3F0FF"/>
<path d="M207.543 58.2578C207.152 58.2578 206.793 58.186 206.466 58.0425C206.142 57.899 205.858 57.6966 205.615 57.4353C205.376 57.174 205.19 56.8648 205.057 56.5079C204.929 56.1472 204.864 55.7534 204.864 55.3265V55.0891C204.864 54.6291 204.932 54.2132 205.069 53.8415C205.205 53.4698 205.393 53.1515 205.632 52.8865C205.871 52.6215 206.144 52.4191 206.449 52.2793C206.758 52.1357 207.082 52.064 207.421 52.064C207.8 52.064 208.137 52.132 208.432 52.2682C208.726 52.4007 208.973 52.5902 209.172 52.8368C209.374 53.0797 209.527 53.3686 209.63 53.7035C209.733 54.0347 209.785 54.4009 209.785 54.8021V55.205H205.262V54.642H209.128V54.5647C209.12 54.2298 209.052 53.917 208.923 53.6262C208.798 53.3318 208.61 53.0926 208.36 52.9086C208.11 52.7246 207.797 52.6326 207.421 52.6326C207.141 52.6326 206.884 52.6914 206.648 52.8092C206.416 52.927 206.215 53.0963 206.046 53.3171C205.88 53.5342 205.752 53.7937 205.659 54.0955C205.571 54.3936 205.527 54.7248 205.527 55.0891V55.3265C205.527 55.6577 205.575 55.9669 205.671 56.2539C205.77 56.5373 205.91 56.7875 206.09 57.0047C206.274 57.2218 206.492 57.3911 206.742 57.5126C206.992 57.634 207.268 57.6947 207.57 57.6947C207.924 57.6947 208.237 57.6303 208.509 57.5015C208.782 57.369 209.026 57.1611 209.244 56.8777L209.658 57.1979C209.529 57.3893 209.367 57.5659 209.172 57.7278C208.98 57.8898 208.75 58.0186 208.482 58.1143C208.213 58.21 207.9 58.2578 207.543 58.2578Z" fill="#E3F0FF"/>
<path d="M202.695 52.1753V52.7494H199.199V52.1753H202.695ZM199.348 52.1753V58.1483H198.691V52.1753H199.348ZM203.236 52.1753V58.1483H202.573V52.1753H203.236Z" fill="#E3F0FF"/>
<path d="M194.791 57.6892C195.071 57.6892 195.333 57.6377 195.576 57.5346C195.822 57.4279 196.025 57.2715 196.183 57.0654C196.345 56.8556 196.437 56.5999 196.459 56.2981H197.089C197.07 56.6771 196.954 57.0157 196.741 57.3138C196.531 57.6082 196.255 57.8401 195.912 58.0094C195.574 58.175 195.2 58.2578 194.791 58.2578C194.375 58.2578 194.007 58.1824 193.687 58.0315C193.37 57.8806 193.105 57.6708 192.892 57.4021C192.678 57.1298 192.516 56.8133 192.406 56.4526C192.299 56.0883 192.245 55.6964 192.245 55.2768V55.045C192.245 54.6254 192.299 54.2353 192.406 53.8746C192.516 53.5103 192.678 53.1938 192.892 52.9251C193.105 52.6528 193.37 52.4412 193.687 52.2903C194.003 52.1394 194.37 52.064 194.786 52.064C195.213 52.064 195.596 52.1505 195.935 52.3234C196.277 52.4964 196.549 52.7411 196.752 53.0576C196.958 53.3741 197.07 53.7495 197.089 54.1838H196.459C196.441 53.8636 196.356 53.5876 196.205 53.3557C196.054 53.1239 195.855 52.9454 195.609 52.8203C195.362 52.6951 195.088 52.6326 194.786 52.6326C194.447 52.6326 194.158 52.6988 193.919 52.8313C193.679 52.9601 193.484 53.1386 193.333 53.3668C193.186 53.5913 193.078 53.8489 193.008 54.1396C192.938 54.4267 192.903 54.7285 192.903 55.045V55.2768C192.903 55.597 192.936 55.9025 193.002 56.1932C193.072 56.4802 193.181 56.736 193.328 56.9605C193.479 57.185 193.674 57.3635 193.913 57.496C194.156 57.6248 194.449 57.6892 194.791 57.6892Z" fill="#E3F0FF"/>
<path d="M187.286 52.1753V58.1483H186.623V52.1753H187.286ZM191.218 52.1753L188.479 55.4102H187.054L186.982 54.8195H188.197L190.384 52.1753H191.218ZM190.622 58.1483L188.131 55.3219L188.551 54.814L191.494 58.1483H190.622Z" fill="#E3F0FF"/>
<path d="M182.813 58.2578C182.422 58.2578 182.063 58.186 181.736 58.0425C181.412 57.899 181.128 57.6966 180.885 57.4353C180.646 57.174 180.46 56.8648 180.327 56.5079C180.199 56.1472 180.134 55.7534 180.134 55.3265V55.0891C180.134 54.6291 180.202 54.2132 180.338 53.8415C180.475 53.4698 180.662 53.1515 180.902 52.8865C181.141 52.6215 181.414 52.4191 181.719 52.2793C182.028 52.1357 182.352 52.064 182.691 52.064C183.07 52.064 183.407 52.132 183.702 52.2682C183.996 52.4007 184.243 52.5902 184.442 52.8368C184.644 53.0797 184.797 53.3686 184.9 53.7035C185.003 54.0347 185.055 54.4009 185.055 54.8021V55.205H180.532V54.642H184.398V54.5647C184.39 54.2298 184.322 53.917 184.193 53.6262C184.068 53.3318 183.88 53.0926 183.63 52.9086C183.38 52.7246 183.067 52.6326 182.691 52.6326C182.411 52.6326 182.154 52.6914 181.918 52.8092C181.686 52.927 181.485 53.0963 181.316 53.3171C181.15 53.5342 181.021 53.7937 180.929 54.0955C180.841 54.3936 180.797 54.7248 180.797 55.0891V55.3265C180.797 55.6577 180.845 55.9669 180.94 56.2539C181.04 56.5373 181.18 56.7875 181.36 57.0047C181.544 57.2218 181.761 57.3911 182.012 57.5126C182.262 57.634 182.538 57.6947 182.84 57.6947C183.194 57.6947 183.507 57.6303 183.779 57.5015C184.052 57.369 184.296 57.1611 184.514 56.8777L184.928 57.1979C184.799 57.3893 184.637 57.5659 184.442 57.7278C184.25 57.8898 184.02 58.0186 183.751 58.1143C183.483 58.21 183.17 58.2578 182.813 58.2578Z" fill="#E3F0FF"/>
<path d="M169.148 50.1104V59.6385H168.59V50.1104H169.148Z" fill="#E3F0FF"/>
<path d="M157.889 52.1753V52.7494H154.863V58.1483H154.206V52.1753H157.889Z" fill="#E3F0FF"/>
<path d="M151.655 54.8471V55.4102H148.109V54.8471H151.655ZM148.28 52.1753V58.1483H147.623V52.1753H148.28ZM152.163 52.1753V58.1483H151.5V52.1753H152.163Z" fill="#E3F0FF"/>
<path d="M145.546 52.175V58.148H144.889V52.175H145.546ZM144.773 50.4471C144.773 50.322 144.811 50.2171 144.889 50.1325C144.97 50.0442 145.08 50 145.22 50C145.36 50 145.471 50.0442 145.552 50.1325C145.636 50.2171 145.679 50.322 145.679 50.4471C145.679 50.5686 145.636 50.6735 145.552 50.7618C145.471 50.8465 145.36 50.8888 145.22 50.8888C145.08 50.8888 144.97 50.8465 144.889 50.7618C144.811 50.6735 144.773 50.5686 144.773 50.4471Z" fill="#E3F0FF"/>
<path d="M142.299 54.8471V55.4102H138.754V54.8471H142.299ZM138.925 52.1753V58.1483H138.268V52.1753H138.925ZM142.807 52.1753V58.1483H142.145V52.1753H142.807Z" fill="#E3F0FF"/>
<path d="M131.751 54.8904V55.4535H128.956V54.8904H131.751ZM129.525 52.1744V58.1474H128.868V52.1744H129.525ZM131.221 55.2547V55.0726C131.221 54.6383 131.283 54.2371 131.408 53.8691C131.534 53.5011 131.712 53.1828 131.944 52.9141C132.18 52.6454 132.461 52.4375 132.789 52.2903C133.117 52.1394 133.481 52.064 133.883 52.064C134.288 52.064 134.654 52.1394 134.982 52.2903C135.309 52.4375 135.591 52.6454 135.827 52.9141C136.062 53.1828 136.243 53.5011 136.368 53.8691C136.493 54.2371 136.556 54.6383 136.556 55.0726V55.2547C136.556 55.689 136.493 56.0901 136.368 56.4582C136.243 56.8225 136.062 57.139 135.827 57.4077C135.595 57.6763 135.315 57.8861 134.987 58.037C134.659 58.1842 134.295 58.2578 133.894 58.2578C133.489 58.2578 133.122 58.1842 132.795 58.037C132.467 57.8861 132.185 57.6763 131.95 57.4077C131.714 57.139 131.534 56.8225 131.408 56.4582C131.283 56.0901 131.221 55.689 131.221 55.2547ZM131.883 55.0726V55.2547C131.883 55.5823 131.926 55.8933 132.01 56.1877C132.099 56.4784 132.228 56.7379 132.397 56.966C132.57 57.1905 132.78 57.3672 133.027 57.496C133.277 57.6248 133.566 57.6892 133.894 57.6892C134.218 57.6892 134.503 57.6248 134.75 57.496C135 57.3672 135.21 57.1905 135.379 56.966C135.549 56.7379 135.677 56.4784 135.766 56.1877C135.854 55.8933 135.898 55.5823 135.898 55.2547V55.0726C135.898 54.7487 135.854 54.4414 135.766 54.1507C135.677 53.8599 135.547 53.6005 135.374 53.3723C135.204 53.1441 134.995 52.9638 134.744 52.8313C134.494 52.6988 134.207 52.6326 133.883 52.6326C133.559 52.6326 133.273 52.6988 133.027 52.8313C132.78 52.9638 132.57 53.1441 132.397 53.3723C132.228 53.6005 132.099 53.8599 132.01 54.1507C131.926 54.4414 131.883 54.7487 131.883 55.0726Z" fill="#E3F0FF"/>
<path d="M125.3 52.1753V58.1483H124.643V52.1753H125.3ZM127.476 52.1753V52.7384H122.544V52.1753H127.476Z" fill="#E3F0FF"/>
<path d="M111.834 50.1104V59.6385H111.276V50.1104H111.834Z" fill="#E3F0FF"/>
<path d="M98.3557 52.1753V58.1483H97.6985V52.1753H98.3557ZM100.532 52.1753V52.7384H95.5999V52.1753H100.532Z" fill="#E3F0FF"/>
<path d="M93.7334 54.8471V55.4102H90.1878V54.8471H93.7334ZM90.359 52.1753V58.1483H89.7018V52.1753H90.359ZM94.2415 52.1753V58.1483H93.5787V52.1753H94.2415Z" fill="#E3F0FF"/>
<path d="M82.7265 55.2547V55.0726C82.7265 54.6383 82.7891 54.2371 82.9143 53.8691C83.0395 53.5011 83.218 53.1828 83.45 52.9141C83.6856 52.6454 83.9673 52.4375 84.2949 52.2903C84.6226 52.1394 84.9871 52.064 85.3884 52.064C85.7934 52.064 86.1598 52.1394 86.4874 52.2903C86.8151 52.4375 87.0968 52.6454 87.3324 52.9141C87.568 53.1828 87.7484 53.5011 87.8736 53.8691C87.9988 54.2371 88.0614 54.6383 88.0614 55.0726V55.2547C88.0614 55.689 87.9988 56.0901 87.8736 56.4582C87.7484 56.8225 87.568 57.139 87.3324 57.4077C87.1004 57.6763 86.8206 57.8861 86.493 58.037C86.1653 58.1842 85.8008 58.2578 85.3995 58.2578C84.9945 58.2578 84.6281 58.1842 84.3005 58.037C83.9728 57.8861 83.6911 57.6763 83.4555 57.4077C83.2199 57.139 83.0395 56.8225 82.9143 56.4582C82.7891 56.0901 82.7265 55.689 82.7265 55.2547ZM83.3837 55.0726V55.2547C83.3837 55.5823 83.4279 55.8933 83.5162 56.1877C83.6046 56.4784 83.7335 56.7379 83.9028 56.966C84.0722 57.1905 84.2821 57.3672 84.5324 57.496C84.7828 57.6248 85.0718 57.6892 85.3995 57.6892C85.7235 57.6892 86.0088 57.6248 86.2555 57.496C86.5058 57.3672 86.7157 57.1905 86.8851 56.966C87.0544 56.7379 87.1814 56.4784 87.2661 56.1877C87.3545 55.8933 87.3987 55.5823 87.3987 55.2547V55.0726C87.3987 54.7487 87.3545 54.4414 87.2661 54.1507C87.1814 53.8599 87.0526 53.6005 86.8795 53.3723C86.7102 53.1441 86.5003 52.9638 86.25 52.8313C85.9996 52.6988 85.7124 52.6326 85.3884 52.6326C85.0644 52.6326 84.7772 52.6988 84.5269 52.8313C84.2802 52.9638 84.0703 53.1441 83.8973 53.3723C83.7279 53.6005 83.5991 53.8599 83.5107 54.1507C83.426 54.4414 83.3837 54.7487 83.3837 55.0726Z" fill="#E3F0FF"/>
<path d="M77.894 57.243L80.2688 52.1753H80.926L78.126 58.1483H77.6621L74.8676 52.1753H75.5248L77.894 57.243ZM75.3205 52.1753V58.1483H74.6633V52.1753H75.3205ZM80.4234 58.1483V52.1753H81.0861V58.1483H80.4234Z" fill="#E3F0FF"/>
<path d="M70.8195 58.2578C70.4292 58.2578 70.0702 58.186 69.7426 58.0425C69.4186 57.899 69.1351 57.6966 68.8921 57.4353C68.6528 57.174 68.4668 56.8648 68.3343 56.5079C68.2054 56.1472 68.141 55.7534 68.141 55.3265V55.0891C68.141 54.6291 68.2091 54.2132 68.3453 53.8415C68.4816 53.4698 68.6693 53.1515 68.9086 52.8865C69.148 52.6215 69.4204 52.4191 69.726 52.2793C70.0353 52.1357 70.3593 52.064 70.698 52.064C71.0772 52.064 71.4141 52.132 71.7086 52.2682C72.0032 52.4007 72.2498 52.5902 72.4487 52.8368C72.6512 53.0797 72.804 53.3686 72.907 53.7035C73.0101 54.0347 73.0617 54.4009 73.0617 54.8021V55.205H68.5386V54.642H72.4045V54.5647C72.3971 54.2298 72.329 53.917 72.2001 53.6262C72.075 53.3318 71.8872 53.0926 71.6368 52.9086C71.3865 52.7246 71.0735 52.6326 70.698 52.6326C70.4182 52.6326 70.1604 52.6914 69.9248 52.8092C69.6929 52.927 69.4922 53.0963 69.3228 53.3171C69.1572 53.5342 69.0283 53.7937 68.9363 54.0955C68.8479 54.3936 68.8037 54.7248 68.8037 55.0891V55.3265C68.8037 55.6577 68.8516 55.9669 68.9473 56.2539C69.0467 56.5373 69.1866 56.7875 69.367 57.0047C69.5511 57.2218 69.7683 57.3911 70.0187 57.5126C70.2691 57.634 70.5452 57.6947 70.8471 57.6947C71.2005 57.6947 71.5135 57.6303 71.7859 57.5015C72.0584 57.369 72.3032 57.1611 72.5205 56.8777L72.9347 57.1979C72.8058 57.3893 72.6438 57.5659 72.4487 57.7278C72.2572 57.8898 72.0271 58.0186 71.7583 58.1143C71.4896 58.21 71.1766 58.2578 70.8195 58.2578Z" fill="#E3F0FF"/>
<path d="M62.6626 53.3226V60.4439H61.9999V52.1744H62.6184L62.6626 53.3226ZM66.8156 55.1057V55.2216C66.8156 55.6669 66.7641 56.0754 66.661 56.4471C66.5579 56.8188 66.4088 57.1409 66.2137 57.4132C66.0222 57.6818 65.7847 57.8898 65.5012 58.037C65.2177 58.1842 64.8956 58.2578 64.5348 58.2578C64.1776 58.2578 63.8592 58.2026 63.5794 58.0922C63.2995 57.9818 63.0584 57.8254 62.8559 57.623C62.6571 57.4169 62.4969 57.1777 62.3754 56.9053C62.2576 56.6293 62.1748 56.3275 62.1269 56V54.4708C62.1821 54.1102 62.2723 53.7826 62.3975 53.4882C62.5227 53.1938 62.6828 52.9399 62.878 52.7264C63.0768 52.513 63.3124 52.3492 63.5849 52.2351C63.8573 52.121 64.1684 52.064 64.5182 52.064C64.8827 52.064 65.2067 52.1357 65.4902 52.2793C65.7774 52.4191 66.0185 52.6234 66.2137 52.892C66.4125 53.157 66.5616 53.4772 66.661 53.8526C66.7641 54.2243 66.8156 54.642 66.8156 55.1057ZM66.1529 55.2216V55.1057C66.1529 54.7561 66.1161 54.4322 66.0425 54.1341C65.9725 53.836 65.8639 53.5765 65.7166 53.3557C65.573 53.1312 65.3889 52.9564 65.1644 52.8313C64.9435 52.7062 64.6802 52.6436 64.3746 52.6436C64.058 52.6436 63.7874 52.697 63.5628 52.8037C63.3419 52.9067 63.1578 53.0447 63.0105 53.2177C62.8633 53.387 62.7473 53.5729 62.6626 53.7753C62.5779 53.9777 62.5153 54.1764 62.4748 54.3715V56.1325C62.5448 56.4122 62.6571 56.6716 62.8117 56.9108C62.9663 57.1464 63.1725 57.3359 63.4302 57.4794C63.6917 57.6193 64.0101 57.6892 64.3857 57.6892C64.6876 57.6892 64.949 57.6266 65.1699 57.5015C65.3908 57.3764 65.573 57.2016 65.7166 56.9771C65.8639 56.7526 65.9725 56.4913 66.0425 56.1932C66.1161 55.8951 66.1529 55.5712 66.1529 55.2216Z" fill="#E3F0FF"/>
<path d="M232.433 40C230.84 40 229.546 39.7188 228.549 39.1565C227.552 38.5794 226.785 37.7654 226.249 36.7148C225.714 35.6641 225.342 34.4284 225.133 33.0078C224.94 31.5723 224.843 29.9889 224.843 28.2575V24.4617H229.33V28.4351C229.33 31.1728 229.523 33.1336 229.91 34.3174C230.312 35.4865 231.168 36.071 232.477 36.071C233.385 36.071 234.047 35.8639 234.464 35.4495C234.896 35.0203 235.171 34.3396 235.29 33.4073C235.409 32.475 235.469 31.2468 235.469 29.7225C235.469 27.9763 235.156 26.4743 234.531 25.2164C233.921 23.9586 233.035 22.7525 231.875 21.5982L229.308 19.0455C228.563 18.2908 227.834 17.4695 227.12 16.5816C226.406 15.6789 225.81 14.6578 225.334 13.5183C224.873 12.3788 224.642 11.0766 224.642 9.61154C224.642 7.64336 224.85 5.94155 225.267 4.5061C225.684 3.07066 226.443 1.96078 227.544 1.17647C228.645 0.392157 230.208 0 232.232 0C233.824 0 235.097 0.27377 236.049 0.82131C237.016 1.36885 237.738 2.15316 238.214 3.17425C238.705 4.18054 239.025 5.37921 239.174 6.77026C239.338 8.1613 239.42 9.70033 239.42 11.3873V13.6959H235V11.0766C235 9.49316 234.933 8.1761 234.799 7.12542C234.68 6.05993 234.427 5.26082 234.04 4.72808C233.653 4.19534 233.05 3.92897 232.232 3.92897C231.488 3.92897 230.878 4.11395 230.401 4.48391C229.94 4.83907 229.605 5.39401 229.397 6.14872C229.189 6.90344 229.084 7.87273 229.084 9.0566C229.084 10.0925 229.211 10.9508 229.464 11.6315C229.717 12.2974 230.096 12.919 230.602 13.4961C231.123 14.0733 231.756 14.754 232.5 15.5383L235.178 18.3574C236.592 19.8224 237.746 21.465 238.638 23.2852C239.546 25.0906 240 27.192 240 29.5893C240 31.7499 239.784 33.6071 239.353 35.1609C238.936 36.7148 238.185 37.9134 237.098 38.7569C236.012 39.5856 234.457 40 232.433 40Z" fill="#B3C3D4"/>
<path d="M209.218 39.5555V0.487793H220.959V4.30577H213.838V17.6687H220.58V21.4867H213.838V35.7375H221.049V39.5555H209.218Z" fill="#B3C3D4"/>
<path d="M186.582 39.5555V0.487793H190.064L199.172 27.0805L198.703 15.7819V0.487793H202.788V39.5555H199.395L190.577 12.7408L190.845 22.5966V39.5555H186.582Z" fill="#B3C3D4"/>
<path d="M175.51 39.5555V0.487793H180.131V39.5555H175.51Z" fill="#B3C3D4"/>
<path d="M161.157 39.9332C158.88 39.9332 157.131 39.0009 155.911 37.1363C154.691 35.2717 154.081 32.2011 154.081 27.9243V11.5425C154.081 9.82593 154.2 8.2721 154.438 6.88106C154.691 5.47521 155.115 4.26174 155.71 3.24066C156.305 2.21957 157.116 1.43526 158.143 0.887716C159.185 0.340176 160.495 0.0664062 162.072 0.0664062C163.709 0.0664062 165.011 0.347575 165.978 0.909913C166.961 1.45745 167.705 2.24177 168.211 3.26285C168.717 4.28394 169.052 5.50481 169.215 6.92545C169.379 8.3461 169.461 9.91472 169.461 11.6313V14.6502H164.996V9.56696C164.996 7.67277 164.803 6.27432 164.416 5.37162C164.044 4.45412 163.263 3.99537 162.072 3.99537C160.807 3.99537 159.929 4.53551 159.438 5.6158C158.947 6.69608 158.701 8.60507 158.701 11.3428V27.769C158.701 30.7582 158.902 32.8966 159.304 34.1841C159.721 35.4715 160.599 36.1152 161.938 36.1152C163.218 36.1152 164.081 35.4715 164.527 34.1841C164.989 32.8818 165.219 30.7138 165.219 27.6802V22.5969H162.027V19.0453H169.461V39.5559H167.028L166.403 36.537C165.986 37.6321 165.324 38.4756 164.416 39.0675C163.523 39.6446 162.437 39.9332 161.157 39.9332Z" fill="#B3C3D4"/>
<path d="M131.892 39.5555V0.487793H135.374L144.482 27.0805L144.013 15.7819V0.487793H148.098V39.5555H144.705L135.888 12.7408L136.156 22.5966V39.5555H131.892Z" fill="#B3C3D4"/>
<path d="M115.016 39.5555V0.487793H126.758V4.30577H119.637V17.6687H126.378V21.4867H119.637V35.7375H126.847V39.5555H115.016Z" fill="#B3C3D4"/>
<path d="M84.0321 39.5555V0.487793H91.9343C93.4969 0.487793 94.7618 0.746764 95.7291 1.26471C96.7113 1.78265 97.4629 2.52997 97.9837 3.50666C98.5046 4.48335 98.8543 5.65982 99.0329 7.03607C99.2264 8.41232 99.3231 9.95875 99.3231 11.6754V12.2747C99.3231 14.894 99.1147 17.0916 98.6981 18.8674C98.2962 20.6432 97.5596 21.9824 96.4881 22.8851C95.4315 23.773 93.9136 24.217 91.9343 24.217H88.6529V39.5555H84.0321ZM88.6529 20.399H91.4655C92.3733 20.399 93.0579 20.1474 93.5192 19.6443C93.9805 19.1263 94.2931 18.2754 94.4568 17.0916C94.6353 15.9077 94.7246 14.3021 94.7246 12.2747V11.52C94.7246 9.00426 94.5312 7.14706 94.1442 5.94839C93.7573 4.73493 92.9016 4.12819 91.5771 4.12819H88.6529V20.399Z" fill="#B3C3D4"/>
<path d="M68.5406 39.5555L62.0001 0.487793H66.3977L69.0094 17.025L71.2417 31.5644H71.331L73.273 17.025L75.5276 0.487793H79.8805L73.9204 39.5555H68.5406Z" fill="#B3C3D4"/>
</svg>
