<svg width="280" height="24" viewBox="0 0 280 24" fill="none" xmlns="http://www.w3.org/2000/svg">
<path fill-rule="evenodd" clip-rule="evenodd" d="M253.818 0.999868H249.265V22.9984H253.818V12.5003H275.442V22.9984H280V0.999868H275.442V10.4991H253.818V0.999868ZM237.312 1.9996C233.96 1.04586 230.071 0.5 225.934 0.5C215.246 0.5 206.586 5.64881 206.586 11.9987C206.586 18.3512 215.246 23.5 225.934 23.5C230.071 23.5 233.96 22.9489 237.312 21.9969V19.6798C234.123 20.8254 230.186 21.5005 225.934 21.5005C217.917 21.5005 211.422 17.2438 211.422 11.9987C211.422 6.75356 217.917 2.50034 225.934 2.50034C230.186 2.50034 234.123 3.17291 237.312 4.3167V1.9996ZM174.025 16.4984L182.11 4.23165L190.201 16.4984H174.025ZM179.839 0.999868L165.04 22.9984H169.738L172.705 18.4987H191.517L194.484 22.9984H199.186L184.387 0.999868H179.839ZM130.891 3.00021H142.844C145.674 3.00021 147.968 4.67858 147.968 6.74922C147.968 8.81985 145.674 10.4991 142.844 10.4991H130.891V3.00021ZM145.691 12.4986C148.834 12.4986 151.381 14.4 151.381 16.7492C151.381 19.0966 148.834 20.9981 145.691 20.9981H130.891V12.4986H145.691ZM149.936 10.8714C151.53 9.8274 152.521 8.36598 152.521 6.74922C152.521 3.57384 148.697 0.999868 143.985 0.999868H126.338V22.9984H146.828C151.856 22.9984 155.933 20.2005 155.933 16.7492C155.933 14.0459 153.434 11.7436 149.936 10.8714ZM109.998 0.999868L99.0226 11.4988L88.0474 0.999868H83.0868L96.6756 13.9964V22.9984H101.37V13.9964L114.957 0.999868H109.998ZM70.6882 16.4984H54.5124L62.6013 4.23165L70.6882 16.4984ZM60.3245 0.999868L45.5276 22.9984H50.2274L53.1937 18.4987H72.0069L74.9732 22.9984H79.6721L64.8771 0.999868H60.3245ZM4.41042 4.69854L17.0727 15.3155L29.736 4.69854V22.9984H34.1455V0.999868H29.5928L17.0727 11.4988L4.55266 0.999868H0V22.9984H4.41042V4.69854Z" fill="#B3C3D4"/>
</svg>
