<svg width="280" height="200" viewBox="0 0 280 200" fill="none" xmlns="http://www.w3.org/2000/svg">
<g clip-path="url(#clip0_345_5711)">
<path d="M200.035 106.007C206.572 95.1357 210.018 82.6858 210 70C210 31.3396 178.658 0 139.999 0C101.339 0 70.0001 31.3408 70.0001 70C69.9821 82.6861 73.4286 95.1363 79.9677 106.007L79.7129 106.211L80.0172 106.093C92.2692 126.409 114.546 140 139.999 140C165.454 140 187.728 126.409 199.979 106.093L200.283 106.211L200.035 106.007ZM201.4 70C201.412 80.7199 198.602 91.2541 193.252 100.543L149.948 65.6658L141.067 8.63036C174.481 9.20082 201.4 36.4483 201.4 70ZM78.6063 70C78.6063 36.4496 105.523 9.20209 138.937 8.63036L130.056 65.6658L86.7523 100.543C81.4038 91.2535 78.5944 80.7196 78.6063 70ZM140.002 131.396C118.216 131.396 99.093 120.038 88.1962 102.931L140.002 82.8885L191.808 102.932C180.91 120.038 161.791 131.396 140.002 131.396Z" fill="#B3C3D4"/>
<path d="M179.666 187.094H190.086V189.121H179.666V187.094ZM6.34395 174.796L5.41254 195.148V195.501C5.41254 197.224 6.01621 197.58 9.28397 197.774V198.717C6.90544 198.563 5.96921 198.524 4.66548 198.524C3.35814 198.524 2.42552 198.563 0 198.717V197.774C3.26415 197.58 3.73287 197.265 3.82565 195.148L4.80525 175.895V175.664C4.80525 173.857 4.15098 173.466 0.935024 173.31V172.327C2.75085 172.446 3.45091 172.485 4.75826 172.485C6.23921 172.496 7.7196 172.432 9.19119 172.292L17.8643 192.13L26.6783 172.292C28.7809 172.446 29.7593 172.485 31.1594 172.485C32.321 172.485 33.0705 172.446 34.8417 172.327V173.31C31.6715 173.466 30.9679 173.857 30.9679 175.621V175.895L31.4824 195.148C31.533 197.265 31.9499 197.577 35.3092 197.774V198.717C32.3716 198.482 31.2498 198.401 29.4786 198.401C27.7037 198.401 26.5843 198.478 23.6467 198.717V197.774C26.8169 197.619 27.5169 197.186 27.5169 195.346V195.153L27.1012 174.84L19.4018 192.326L18.8439 193.622L18.1908 195.07L17.5811 196.565L17.069 197.857H16.3689L15.8581 196.603L15.2026 195.07L14.5507 193.543L13.9904 192.171L6.34395 174.796ZM41.3676 187.46C41.8351 182.952 43.6051 180.642 46.591 180.642C49.6238 180.642 51.1625 182.837 51.4408 187.46H41.3676ZM47.4332 197.733C43.1882 197.733 41.3194 194.988 41.2772 188.871H55.1773C55.0821 182.834 52.1433 179.618 46.6379 179.618C41.0447 179.618 37.5444 183.422 37.5444 189.461C37.5444 195.498 41.0459 199.026 47.0597 199.026C51.6312 199.026 54.6182 196.633 55.2206 192.595H53.353C52.7939 195.928 50.7419 197.733 47.4332 197.733ZM57.9522 181.068V180.364C60.6091 180.169 62.1972 179.934 64.1082 179.462C64.342 180.914 64.4347 181.539 64.5275 182.717V183.15C65.5565 180.914 67.5579 179.619 69.9858 179.619C72.3162 179.619 74.044 180.914 74.044 182.798C74.044 183.936 73.2512 184.679 72.0848 184.679C71.0124 184.679 70.1738 184.129 70.1738 183.347C70.1738 183.269 70.222 183.115 70.2642 182.952L70.357 182.562V182.206C70.357 181.657 69.7967 181.266 68.9568 181.266C66.5349 181.266 64.9962 183.735 64.9962 187.617V195.81C64.9962 197.5 65.4601 197.813 68.3074 197.929V198.714C65.7385 198.521 64.7601 198.477 63.1274 198.477C61.4489 198.477 60.4705 198.521 57.9064 198.714V197.929C60.7489 197.813 61.2622 197.5 61.2622 195.81V182.994C61.2176 181.306 60.9814 181.113 58.5595 181.071L57.9522 181.068ZM91.8878 179.268V185.739H90.8588C90.019 182.325 88.2947 180.679 85.4511 180.679C81.9496 180.679 79.9 183.858 79.9 189.464C79.9 194.951 81.7182 197.736 85.3089 197.736C88.2007 197.736 89.9262 196.012 90.4865 192.563H92.3975C91.7902 196.759 89.1322 199.032 84.9366 199.032C79.5253 199.032 75.843 195.188 75.843 189.467C75.843 183.622 79.5723 179.624 85.0764 179.624C87.0826 179.624 88.3417 180.056 89.837 181.272L91.0926 179.271H91.889L91.8878 179.268ZM99.5463 187.46C100.013 182.952 101.783 180.642 104.77 180.642C107.801 180.642 109.34 182.837 109.617 187.46H99.5463ZM105.61 197.733C101.365 197.733 99.5006 194.988 99.4536 188.871H113.351C113.258 182.834 110.317 179.618 104.818 179.618C99.2174 179.618 95.7183 183.422 95.7183 189.461C95.7183 195.498 99.2162 199.026 105.237 199.026C109.808 199.026 112.793 196.633 113.397 192.595H111.532C110.973 195.928 108.921 197.733 105.61 197.733ZM126.268 197.971C122.91 197.971 121.139 195.027 121.139 189.424C121.139 183.742 122.77 180.957 126.129 180.957C129.583 180.957 131.355 183.936 131.355 189.703C131.354 195.147 129.627 197.971 126.268 197.971ZM135.036 194.635V172C132.705 172.525 130.608 172.836 127.997 173.071V173.739C130.935 173.739 131.308 174.014 131.308 176.051V182.912C129.583 180.561 128.23 179.853 125.71 179.853C120.721 179.853 117.22 183.812 117.22 189.458C117.22 195.104 120.763 199.061 125.85 199.061C128.508 199.061 130.327 198.042 131.632 195.848C131.818 197.338 131.818 197.494 132.287 198.982C134.196 198.471 134.992 198.315 137.744 198.042L138.443 197.965V197.298C135.317 197.22 135.036 197.027 135.036 194.635ZM144.036 187.46C144.502 182.952 146.273 180.642 149.26 180.642C152.292 180.642 153.828 182.837 154.108 187.46H144.036ZM150.1 197.733C145.853 197.733 143.991 194.988 143.942 188.871H157.841C157.747 182.834 154.809 179.618 149.307 179.618C143.707 179.618 140.21 183.422 140.21 189.461C140.21 195.498 143.707 199.026 149.727 199.026C154.297 199.026 157.282 196.633 157.885 192.595H156.019C155.463 195.928 153.408 197.733 150.1 197.733ZM161.801 199.067V192.516L162.828 192.479C163.665 196.048 165.626 197.774 168.892 197.774C171.641 197.774 173.695 196.244 173.695 194.248C173.695 192.916 172.811 192.015 170.521 191.15L168.75 190.482L166.605 189.659C163.197 188.327 162.126 187.228 162.126 184.953C162.126 181.855 165.015 179.741 169.122 179.741C170.942 179.741 172.298 180.094 173.881 180.991L174.671 179.385H175.511V185.462H174.436C174.013 182.324 172.477 180.837 169.541 180.837C167.069 180.837 165.152 182.249 165.152 184.092C165.152 185.658 165.852 186.171 170.097 187.738L172.058 188.446C175.599 189.735 176.863 190.993 176.863 193.308C176.863 196.601 173.736 198.95 169.356 198.95C167.209 198.95 165.529 198.479 163.758 197.304L162.634 199.067H161.801ZM202.803 185.539C205.273 185.539 206.672 185.893 207.746 186.793C208.82 187.698 209.429 189.383 209.429 191.262C209.429 195.182 207.093 197.38 202.944 197.38H201.265C198.791 197.38 198.373 197.064 198.373 195.339V185.536L202.803 185.539ZM198.37 173.658H202.335C206.254 173.658 207.978 175.268 207.978 178.913C207.978 180.716 207.466 182.012 206.44 183.028C205.414 184.012 204.156 184.321 201.546 184.321H198.373V173.657H198.37V173.658ZM212.128 178.834C212.128 176.795 211.103 174.994 209.33 173.854C207.746 172.874 205.929 172.445 202.893 172.445H190.627V173.424C193.987 173.582 194.451 173.895 194.451 176.012V195.026C194.451 197.144 194.075 197.416 190.627 197.655V198.598H202.427C205.876 198.598 207.745 198.242 209.706 197.223C212.036 195.969 213.575 193.577 213.575 191.112C213.575 188.99 212.501 187.07 210.683 185.898C209.706 185.272 208.678 184.914 206.997 184.643C210.359 183.579 212.128 181.579 212.128 178.834ZM221.189 187.46C221.657 182.952 223.429 180.642 226.416 180.642C229.445 180.642 230.986 182.837 231.263 187.46H221.189ZM227.255 197.733C223.011 197.733 221.142 194.988 221.097 188.871H234.998C234.904 182.834 231.964 179.618 226.46 179.618C220.863 179.618 217.364 183.422 217.364 189.461C217.364 195.498 220.863 199.026 226.878 199.026C231.449 199.026 234.434 196.633 235.041 192.595H233.174C232.619 195.928 230.567 197.733 227.255 197.733ZM237.465 181.224V180.561C240.171 180.245 241.757 179.934 243.62 179.384C243.856 180.289 243.997 181.305 244.087 182.795C245.768 180.676 247.678 179.738 250.385 179.738C253.186 179.738 255.607 180.949 256.544 182.872C257.012 183.815 257.245 184.911 257.245 186.399V195.809C257.245 197.497 257.711 197.81 260.554 197.926V198.711C258.082 198.514 257.151 198.476 255.471 198.476C253.742 198.476 252.812 198.514 250.384 198.711V197.926C252.902 197.851 253.51 197.457 253.51 195.889V186.282C253.51 182.872 252.298 181.498 249.314 181.498C246.139 181.498 244.462 183.186 244.462 186.399V195.889C244.462 197.457 245.072 197.851 247.498 197.926V198.711C245.072 198.514 244.14 198.476 242.459 198.476C240.827 198.476 239.845 198.514 237.42 198.711V197.926C240.263 197.81 240.731 197.497 240.731 195.809V183.109C240.684 181.498 240.405 181.266 238.075 181.266C237.93 181.266 237.7 181.224 237.465 181.224ZM262.366 198.598L275.006 181.11H269.268C266.239 181.11 265.488 181.657 263.811 185.186H262.882L263.955 180.09H280L267.312 197.577H272.767C275.942 197.577 277.246 196.52 278.646 192.95H279.625L278.414 198.598H262.366Z" fill="#B3C3D4"/>
</g>
<defs>
<clipPath id="clip0_345_5711">
<rect width="280" height="200" fill="white"/>
</clipPath>
</defs>
</svg>
