<svg width="599" height="20" viewBox="0 0 599 20" fill="none" xmlns="http://www.w3.org/2000/svg">
<path fill-rule="evenodd" clip-rule="evenodd" d="M196.039 19.9994H229.165C230.665 19.9994 231.88 18.7917 231.88 17.3134V2.68749C231.88 1.2107 230.665 0.00146484 229.165 0.00146484H196.039C194.539 0.00146484 193.324 1.2107 193.324 2.68749V17.3134C193.325 18.7917 194.539 19.9994 196.039 19.9994ZM198.145 3.88178H227.21C227.708 3.88178 228.115 4.28535 228.115 4.77712V15.2253C228.115 15.717 227.708 16.1206 227.21 16.1206H198.145C197.647 16.1206 197.24 15.717 197.24 15.2253V4.77712C197.24 4.28386 197.647 3.88178 198.145 3.88178Z" fill="#B3C3D4"/>
<path fill-rule="evenodd" clip-rule="evenodd" d="M149.5 20H153.415V15.2258H185.192C186.766 15.2258 188.054 13.9493 188.054 12.3903V2.83751C188.054 1.27851 186.766 0.00201416 185.192 0.00201416H153.415H152.36H149.5V2.83751V12.3903V20ZM153.415 11.344V3.88233H154.468H180.07H182.932C183.593 3.88233 184.136 4.41894 184.136 5.07662V10.1512C184.136 10.8074 183.595 11.3455 182.932 11.3455H180.07H154.469L153.415 11.344Z" fill="#B3C3D4"/>
<path fill-rule="evenodd" clip-rule="evenodd" d="M237 19.9995H240.916V15.2253H269.143L271.617 19.9995H275.85L273.337 15.1521C274.603 14.8606 275.553 13.7291 275.553 12.3883V2.8355C275.553 1.2765 274.266 0 272.692 0H240.916H239.862H237V2.8355V12.3883V19.9995ZM240.916 11.3435V3.88181H241.97H267.571H270.432C271.095 3.88181 271.638 4.41842 271.638 5.0761V10.1507C271.638 10.8069 271.096 11.345 270.432 11.345H267.571H241.97L240.916 11.3435Z" fill="#B3C3D4"/>
<path fill-rule="evenodd" clip-rule="evenodd" d="M368.024 19.9995H371.941V11.9399H400.705V19.9995H404.621V0H400.705V8.06106H371.941V0H368.024V19.9995Z" fill="#B3C3D4"/>
<path fill-rule="evenodd" clip-rule="evenodd" d="M328.57 19.9995H362.152V16.0683C362.058 16.1012 361.956 16.1191 361.851 16.1191H330.676C330.181 16.1191 329.772 15.7156 329.772 15.2238V4.77566C329.772 4.28389 330.18 3.88031 330.676 3.88031H361.851C361.956 3.88031 362.058 3.89975 362.152 3.93263V0H328.57C327.072 0 325.857 1.20923 325.857 2.68603V17.3119C325.857 18.7917 327.072 19.9995 328.57 19.9995Z" fill="#B3C3D4"/>
<path fill-rule="evenodd" clip-rule="evenodd" d="M410.646 19.9995H412.906H414.562H449.5V16.1191H414.562V11.9399H449.5V8.06106H414.562V3.88181H449.5V0H414.562H412.906H410.646V19.9995Z" fill="#B3C3D4"/>
<path fill-rule="evenodd" clip-rule="evenodd" d="M286.398 5.67249V4.77566C286.398 4.28389 286.805 3.88031 287.301 3.88031H318.477C318.582 3.88031 318.684 3.89975 318.777 3.93263V0H285.195C283.695 0 282.48 1.20923 282.48 2.68603V3.88031V5.671V9.25237C282.48 10.7292 283.695 11.9384 285.195 11.9384H288.054V11.9892C288.149 11.9578 288.249 11.9384 288.354 11.9384H313.956C314.454 11.9384 314.861 12.342 314.861 12.8352V14.327V15.2238C314.861 15.7156 314.454 16.1191 313.956 16.1191H282.782C282.677 16.1191 282.575 16.1012 282.48 16.0683V19.9995H316.062C317.562 19.9995 318.777 18.7902 318.777 17.3134V16.1191V14.3285V10.7471C318.777 9.26881 317.562 8.05957 316.062 8.05957H313.206V8.00875C313.11 8.04164 313.01 8.05957 312.903 8.05957H287.3C286.803 8.05957 286.397 7.656 286.397 7.16274L286.398 5.67249Z" fill="#B3C3D4"/>
</svg>
