<svg width="280" height="116" viewBox="0 0 280 116" fill="none" xmlns="http://www.w3.org/2000/svg">
<path d="M125.984 0.223994C141.893 -0.340009 157.818 0.219994 173.7 1.246C175.372 1.392 177.066 1.38 178.712 1.734C179.602 1.95 180.565 2.29201 181.086 3.10601C181.561 3.99202 181.571 5.02602 181.694 6.00203C182.072 10.7961 182.183 15.6101 182.539 20.4041C181.851 20.4881 181.163 20.3821 180.475 20.3601C168.226 19.7221 155.967 19.1921 143.698 19.1761C137.344 19.1941 130.982 19.1321 124.634 19.4421C123.095 19.6701 121.353 20.1881 120.465 21.5681C125.268 22.4261 130.061 23.3521 134.863 24.2261C150.776 27.2222 166.701 30.1522 182.615 33.1442C182.601 36.1802 182.607 39.2162 182.613 42.2522C173.664 40.7622 164.731 39.1542 155.788 37.6162C136.549 34.2802 117.315 30.8982 98.07 27.5942C98.1077 24.2241 98.2509 20.8561 98.3205 17.4841C98.4418 14.8141 98.3662 12.1081 98.9666 9.48605C99.3702 7.63604 100.118 5.77603 101.511 4.45402C103.917 2.058 107.396 1.384 110.635 1.046C115.739 0.569996 120.864 0.413995 125.984 0.223994ZM97.9785 32.0282C125.542 37.1442 153.096 42.3462 180.656 47.4923C181.259 47.6403 181.903 47.6523 182.481 47.8743L182.551 48.0343C182.4 52.5823 182.312 57.1343 182.149 61.6824C182.044 64.4884 181.75 67.4244 180.314 69.8964C178.775 72.4524 175.908 73.8664 173.071 74.4004C168.89 75.1904 164.62 75.2424 160.385 75.4764C142.163 76.3084 123.904 75.8484 105.712 74.5884C104.259 74.4864 102.78 74.4604 101.368 74.0544C100.637 73.8224 99.8812 73.4484 99.4676 72.7684C99.0243 71.8764 98.9965 70.8584 98.8871 69.8864C98.4974 64.5804 98.2907 59.2643 98.0143 53.9523C107.398 54.5523 116.798 54.8883 126.2 55.0983C135.278 55.2463 144.356 55.2443 153.434 55.3343C155.393 55.4163 157.51 55.0403 158.995 53.6563C159.212 53.4063 159.564 53.1743 159.528 52.8003C155.436 52.1823 151.369 51.4143 147.285 50.7383C130.855 47.9123 114.417 45.1123 97.9885 42.2702C97.9686 38.8562 97.9924 35.4422 97.9785 32.0282Z" fill="#B3C3D4"/>
<path d="M170.8 99.8386V106.161H150.811V104.38C150.811 101.619 151.252 99.7941 154.474 99.7941H170.8V99.8386ZM153.238 95.9207C147.987 95.9207 145.56 98.7256 145.56 103.267V116H150.811V110.123H170.8V115.955H176.051V95.9207H153.238ZM182.538 95.9207V99.8386H194.893V115.955H200.145V99.8386H212.5V95.9207H182.538ZM111.847 108.253C111.847 111.058 112.421 112.082 115.51 112.082H137.441V116H114.274C109.023 116 106.552 113.596 106.552 109.099V95.9207H137.397V99.8386H111.803V103.757H136.337V107.608H111.803V108.275L111.847 108.253ZM74.2514 102.911C72.6187 102.777 72.3539 102.198 72.3539 101.219C72.3539 100.328 72.8393 99.7941 74.0749 99.7941H98.3004V95.9207H73.4571C69.927 95.9207 67.5 97.3009 67.5 101.263C67.5 105.226 69.3092 106.606 73.3688 106.962L93.0052 108.609C94.5055 108.743 94.9467 109.233 94.9467 110.346C94.9467 111.37 94.5055 112.038 93.1376 112.038H68.4708V115.955H93.5347C97.8591 115.955 99.7565 114.219 99.7565 110.123C99.7565 106.383 98.0356 104.87 93.8436 104.513L74.2514 102.911Z" fill="#B3C3D4"/>
</svg>
