<svg width="280" height="116" viewBox="0 0 280 116" fill="none" xmlns="http://www.w3.org/2000/svg">
<path d="M97.136 37.8809C97.1466 16.9709 115.135 -0.00399622 137.278 7.05693e-07C159.267 0.00399763 177.403 16.8251 177.374 37.9688C177.344 58.9227 159.396 75.8477 137.21 75.8217C114.974 75.7977 97.1466 58.7728 97.136 37.8809ZM173.952 37.9368C173.912 18.5298 157.302 3.28947 137.356 3.24551C117.155 3.20154 100.61 18.6517 100.578 37.8629C100.547 56.9222 116.834 72.5122 137.136 72.5802C157.348 72.6461 173.891 57.25 173.952 37.9368Z" fill="#B3C3D4"/>
<path d="M119.236 115.989C119.069 115.989 118.904 115.989 118.736 115.989C116.396 115.989 114.056 115.981 111.718 115.995C111.336 115.997 111.056 115.895 110.779 115.639C107.732 112.842 104.669 110.062 101.626 107.26C101.277 106.938 100.928 106.808 100.444 106.812C98.2538 106.832 96.064 106.822 93.8742 106.822C93.6754 106.822 93.4744 106.822 93.2205 106.822C93.2205 109.892 93.2205 112.892 93.2205 115.873C92.7571 116.015 87.874 116.033 87.2964 115.905C87.2964 108.107 87.2964 100.301 87.2964 92.4653C89.2513 92.4653 91.1703 92.4653 93.176 92.4653C93.2332 93.1907 93.1909 93.9242 93.1951 94.6576C93.1993 95.417 93.193 96.1784 93.1909 96.9379C93.1887 97.6813 93.1887 98.4227 93.1887 99.1661C93.1887 99.9076 93.1887 100.649 93.1887 101.428C93.3538 101.454 93.4934 101.494 93.6309 101.494C96.1571 101.504 98.6833 101.506 101.212 101.522C101.504 101.524 101.698 101.416 101.897 101.235C104.935 98.4287 107.984 95.6329 111.014 92.819C111.321 92.5332 111.623 92.4233 112.046 92.4253C114.329 92.4413 116.612 92.4333 118.897 92.4333C119.079 92.4333 119.261 92.4333 119.443 92.4333C119.462 92.4653 119.481 92.4973 119.5 92.5312C115.184 96.4582 110.866 100.383 106.488 104.364C110.764 108.223 115.038 112.036 119.293 115.867C119.274 115.909 119.255 115.949 119.236 115.989Z" fill="#B3C3D4"/>
<path d="M54.0362 110.995C54.2901 110.995 54.5335 110.995 54.7746 110.995C60.8955 110.995 67.0164 110.995 73.1372 110.995C73.3065 110.995 73.4736 110.999 73.6429 110.993C74.4257 110.973 74.9102 110.547 74.9335 109.807C74.9589 109.012 74.9462 108.217 74.942 107.421C74.942 107.11 74.925 106.796 74.9145 106.436C74.6119 106.436 74.3707 106.436 74.1316 106.436C68.4403 106.436 62.751 106.432 57.0597 106.44C56.1499 106.442 55.2634 106.35 54.4319 105.988C52.4981 105.147 51.4698 103.71 51.4148 101.7C51.3746 100.251 51.3662 98.7979 51.4169 97.349C51.5164 94.4673 54.0003 92.3469 57.0427 92.4448C57.0787 92.4468 57.1125 92.4648 57.231 92.5008C57.231 92.6626 57.231 92.8505 57.231 93.0364C57.231 95.3006 57.231 97.5629 57.231 99.8271C57.231 99.987 57.2247 100.145 57.2353 100.305C57.2733 100.942 57.7388 101.388 58.4137 101.436C58.5809 101.448 58.7501 101.44 58.9194 101.44C64.3844 101.44 69.8515 101.436 75.3164 101.448C75.8729 101.45 76.4441 101.492 76.9837 101.616C79.2792 102.143 80.7306 103.864 80.792 106.154C80.8343 107.763 80.8322 109.374 80.7941 110.981C80.7328 113.485 78.9725 115.435 76.3891 115.909C76.0422 115.973 75.6825 115.985 75.3291 115.985C67.3358 115.989 59.3425 115.989 51.3514 115.987C51.1884 115.987 51.0277 115.971 50.7695 115.957C51.8803 114.268 52.953 112.639 54.0362 110.995Z" fill="#B3C3D4"/>
<path d="M80.1787 92.4932C79.0975 94.1159 78.0524 95.6827 76.9987 97.2635C72.3335 97.2635 67.6789 97.2635 62.9777 97.2635C61.9388 95.7047 60.8852 94.1239 59.8252 92.5332C60.261 92.4152 79.271 92.3773 80.1787 92.4932Z" fill="#B3C3D4"/>
<path d="M190.622 100.854C190.606 98.5822 189.806 96.5938 188.103 94.965C186.327 93.2683 184.138 92.4869 181.639 92.4369C180.704 92.419 179.769 92.433 178.831 92.433C172.768 92.433 166.704 92.433 160.64 92.433C160.405 92.433 160.17 92.4429 159.919 92.4469C159.919 100.311 159.919 108.103 159.919 115.955C160.145 115.967 160.31 115.983 160.475 115.983C167.567 115.983 174.661 115.987 181.753 115.975C182.348 115.973 182.953 115.919 183.535 115.803C187.777 114.958 190.563 111.73 190.618 107.587C190.652 105.345 190.639 103.101 190.622 100.854ZM184.66 108.025C184.641 109.59 183.401 110.711 181.738 110.713C176.61 110.723 171.483 110.717 166.355 110.715C166.209 110.715 166.061 110.695 165.853 110.681C165.853 106.35 165.853 102.076 165.853 97.7569C165.999 97.7389 166.141 97.7089 166.281 97.7089C171.445 97.7069 176.612 97.6989 181.777 97.7129C183.395 97.7169 184.637 98.854 184.658 100.387C184.694 102.933 184.694 105.479 184.66 108.025Z" fill="#B3C3D4"/>
<path d="M153.167 100.671C153.161 99.0739 152.704 97.591 151.767 96.266C149.935 93.682 147.307 92.463 144.057 92.441C139.527 92.413 134.997 92.429 130.468 92.439C129.909 92.441 129.342 92.4769 128.792 92.5609C124.419 93.2344 121.368 96.5898 121.317 100.799C121.289 103.079 121.296 105.361 121.317 107.641C121.334 109.456 121.863 111.135 123.031 112.593C124.766 114.762 127.103 115.895 129.964 115.969C132.376 116.031 134.792 115.981 137.206 115.981C137.206 115.983 137.206 115.983 137.206 115.985C139.489 115.985 141.774 115.993 144.057 115.979C144.635 115.975 145.219 115.939 145.788 115.857C149.987 115.261 153.15 111.794 153.165 107.775C153.178 105.409 153.176 103.041 153.167 100.671ZM147.226 108.047C147.216 109.528 145.974 110.681 144.391 110.713C143.306 110.735 142.221 110.719 141.137 110.719C139.847 110.719 138.556 110.719 137.265 110.719C134.908 110.719 132.552 110.727 130.195 110.715C128.855 110.709 127.793 109.977 127.412 108.798C127.311 108.483 127.264 108.139 127.262 107.807C127.249 105.421 127.254 103.035 127.258 100.651C127.258 100.189 127.317 99.7334 127.537 99.3117C128.053 98.3225 128.893 97.7909 130.057 97.7149C130.15 97.7089 130.243 97.7109 130.338 97.7109C134.94 97.7109 139.542 97.7129 144.144 97.7089C144.618 97.7089 145.079 97.7549 145.508 97.9487C146.581 98.4344 147.207 99.2418 147.222 100.363C147.254 102.921 147.248 105.485 147.226 108.047Z" fill="#B3C3D4"/>
<path d="M228.989 115.481C224.504 107.933 220.016 100.385 215.541 92.8309C215.357 92.5211 215.156 92.4232 214.792 92.4252C212.397 92.4392 210 92.4432 207.605 92.4232C207.191 92.4192 206.977 92.5591 206.78 92.8928C202.314 100.431 197.835 107.963 193.36 115.497C193.282 115.631 193.216 115.773 193.121 115.957C193.341 115.969 193.504 115.983 193.667 115.985C195.482 115.987 197.297 115.971 199.113 115.997C199.557 116.003 199.775 115.855 199.98 115.503C201.512 112.891 203.065 110.291 204.614 107.689C204.717 107.514 204.832 107.346 204.971 107.128C205.128 107.352 205.231 107.498 205.331 107.645C206.171 108.901 207.015 110.152 207.84 111.415C207.999 111.658 208.174 111.772 208.471 111.738C208.6 111.724 208.733 111.736 208.864 111.736C212.325 111.736 215.789 111.752 219.25 111.72C219.828 111.714 220.116 111.894 220.367 112.358C220.896 113.331 221.491 114.274 222.058 115.23C222.204 115.475 222.356 115.717 222.498 115.949C224.741 115.949 226.954 115.949 229.23 115.949C229.133 115.757 229.07 115.615 228.989 115.481ZM205.119 106.83C207.117 103.471 209.078 100.171 211.092 96.7798C213.108 100.171 215.072 103.473 217.044 106.788C216.591 106.902 206.057 106.938 205.119 106.83Z" fill="#B3C3D4"/>
<path d="M138.613 22.9581C138.516 22.7582 138.423 22.5524 138.317 22.3525C136.946 19.7785 135.194 17.4483 133.224 15.26C131.413 13.2495 129.452 11.379 127.325 9.66629C127.228 9.58835 127.101 9.54039 126.987 9.47844C127.012 9.42448 127.038 9.37252 127.065 9.31856C127.998 9.08074 128.925 8.81495 129.864 8.60711C132.89 7.93562 135.962 7.74177 139.061 7.85169C139.817 7.87767 140.432 8.08351 141.029 8.56713C145.074 11.8546 148.32 15.7076 150.529 20.3141C151.919 23.2139 152.824 26.2455 153.294 29.3971C153.614 31.5375 153.764 33.6878 153.694 35.8482C153.523 41.266 152.408 46.506 150.343 51.5641C150.277 51.7279 150.209 51.8898 150.127 52.0937C150.275 52.1216 150.393 52.1636 150.514 52.1636C151.318 52.1696 152.124 52.1536 152.928 52.1736C153.25 52.1816 153.396 52.0517 153.495 51.7839C153.73 51.1544 153.988 50.5309 154.253 49.8654C158.086 50.349 161.33 51.8678 164.068 54.4718C161.345 57.0718 158.103 58.5907 154.261 59.0863C153.952 58.3309 153.654 57.5954 153.336 56.82C153.112 56.82 152.909 56.82 152.706 56.82C143.103 56.82 133.499 56.822 123.896 56.816C123.509 56.816 123.168 56.89 122.825 57.0618C121.7 57.6234 120.559 58.155 119.434 58.7146C118.958 58.9504 118.467 59.0703 117.929 59.0643C116.787 59.0523 115.646 59.0563 114.504 59.0643C114.246 59.0663 114.041 59.0103 113.859 58.8225C111.347 56.2345 109.312 53.3487 107.797 50.1412C107.767 50.0792 107.755 50.0113 107.719 49.8993C107.884 49.8834 108.023 49.8594 108.161 49.8594C111.157 49.8574 114.151 49.8614 117.147 49.8554C117.587 49.8554 117.995 49.9473 118.395 50.1152C119.882 50.7367 121.376 51.3462 122.863 51.9698C123.195 52.1096 123.53 52.1836 123.894 52.1736C124.435 52.1596 124.979 52.1716 125.523 52.1676C125.705 52.1656 125.887 52.1496 126.128 52.1376C126.079 51.704 126.043 51.3203 125.99 50.9386C125.722 49 125.218 47.1255 124.344 45.3449C122.948 42.501 120.764 40.3207 118.006 38.628C115.456 37.0652 112.67 36.004 109.76 35.2226C108.36 34.8449 106.938 34.5332 105.459 34.1754C105.459 34.0495 105.436 33.8777 105.463 33.7118C106.073 29.9727 107.31 26.4374 109.314 23.1519C109.369 23.06 109.439 22.9781 109.532 22.8442C110.099 22.9721 110.679 23.094 111.254 23.2359C115.156 24.1931 118.966 25.3902 122.546 27.1628C123.57 27.6704 124.545 28.27 125.523 28.8595C126.172 29.2512 126.155 29.2752 126.879 28.7976C126.737 28.6377 126.606 28.4738 126.46 28.3219C125.078 26.891 123.49 25.682 121.852 24.5309C119.025 22.5444 116.065 20.7558 112.993 19.125C112.833 19.0391 112.676 18.9492 112.473 18.8372C112.792 18.4835 113.074 18.1558 113.374 17.844C115.714 15.4259 118.361 13.3654 121.391 11.7527C121.757 11.5588 122.055 11.5389 122.438 11.6927C124.801 12.64 126.919 13.961 128.927 15.4498C131.823 17.5942 134.426 20.0343 136.903 22.5963C136.954 22.6483 137.003 22.7023 137.054 22.7542C137.646 23.3737 137.726 23.3857 138.613 22.9581ZM146.697 44.9252C146.704 42.8428 144.958 41.1701 142.768 41.1601C140.536 41.1501 138.767 42.8028 138.761 44.9072C138.755 47.0036 140.545 48.6983 142.749 48.6843C144.943 48.6683 146.691 47.0036 146.697 44.9252Z" fill="#B3C3D4"/>
</svg>
