<svg width="280" height="140" viewBox="0 0 280 140" fill="none" xmlns="http://www.w3.org/2000/svg">
<path d="M140 133.56C105.14 133.56 76.58 104.86 76.58 70C76.58 62.16 77.98 54.74 80.64 47.74L117.74 122.36C118.16 123.34 118.86 124.18 119.98 124.18C121.1 124.18 121.8 123.34 122.22 122.36L139.3 84.14C139.44 83.72 139.72 83.3 140.14 83.3C140.56 83.3 140.7 83.72 140.98 84.14L158.06 122.36C158.48 123.34 159.18 124.18 160.3 124.18C161.42 124.18 162.12 123.34 162.54 122.36L199.64 47.74C202.3 54.74 203.7 62.16 203.7 70C203.42 104.86 174.86 133.56 140 133.56ZM140 55.58C139.58 55.58 139.44 55.16 139.16 54.74L119.28 9.94C125.72 7.56 132.72 6.3 140 6.3C147.28 6.3 154.28 7.56 160.72 9.94L140.84 54.74C140.56 55.3 140.42 55.58 140 55.58ZM119.7 101.64C119.28 101.64 119.14 101.22 118.86 100.8L86.66 35.84C92.4 27.02 100.1 19.6 109.48 14.42L132.72 66.08C133 66.92 133.7 67.2 134.4 67.2H145.6C146.44 67.2 147 67.06 147.42 66.08L170.66 14.42C179.9 19.6 187.74 27.02 193.48 35.84L161 100.8C160.86 101.22 160.58 101.64 160.16 101.64C159.74 101.64 159.6 101.22 159.32 100.8L147.14 73.08C146.72 72.1 146.16 71.96 145.32 71.96H134.12C133.28 71.96 132.72 72.1 132.3 73.08L120.54 100.8C120.4 101.22 120.12 101.64 119.7 101.64ZM140 140C178.78 140 210 108.78 210 70C210 31.22 178.78 0 140 0C101.22 0 70 31.22 70 70C70 108.78 101.22 140 140 140Z" fill="#B3C3D4"/>
</svg>
