<svg width="24" height="24" viewBox="0 0 24 24" fill="currentColor" xmlns="http://www.w3.org/2000/svg">
<path d="M17.3767 0H6.62299C2.97108 0 0 2.97122 0 6.62313V17.3769C0 21.0289 2.97108 24 6.62299 24H17.3767C21.0289 24 24 21.0288 24 17.3769V6.62313C24.0001 2.97122 21.0289 0 17.3767 0ZM21.8707 17.3769C21.8707 19.8548 19.8548 21.8706 17.3769 21.8706H6.62299C4.14522 21.8707 2.1294 19.8548 2.1294 17.3769V6.62313C2.1294 4.14537 4.14522 2.1294 6.62299 2.1294H17.3767C19.8546 2.1294 21.8706 4.14537 21.8706 6.62313L21.8707 17.3769Z"/>
<path d="M12 5.81592C8.58997 5.81592 5.8158 8.5901 5.8158 12.0001C5.8158 15.41 8.58997 18.184 12 18.184C15.41 18.184 18.1842 15.41 18.1842 12.0001C18.1842 8.5901 15.41 5.81592 12 5.81592ZM12 16.0545C9.76427 16.0545 7.94519 14.2357 7.94519 12C7.94519 9.7641 9.76412 7.94517 12 7.94517C14.2359 7.94517 16.0548 9.7641 16.0548 12C16.0548 14.2357 14.2357 16.0545 12 16.0545Z" />
<path d="M18.4436 4.01074C18.0333 4.01074 17.6303 4.17684 17.3405 4.46785C17.0494 4.75745 16.882 5.16062 16.882 5.5723C16.882 5.98271 17.0495 6.38573 17.3405 6.67675C17.6301 6.96634 18.0333 7.13386 18.4436 7.13386C18.8553 7.13386 19.257 6.96634 19.548 6.67675C19.839 6.38573 20.0051 5.98256 20.0051 5.5723C20.0051 5.16062 19.839 4.75745 19.548 4.46785C19.2584 4.17684 18.8553 4.01074 18.4436 4.01074Z" />
</svg>
