<svg width="80" height="80" viewBox="0 0 80 80" fill="none" xmlns="http://www.w3.org/2000/svg">
<rect x="0.5" y="0.5" width="79" height="79" rx="39.5" stroke="#E3F0FF"/>
<path d="M27.1258 60.9801L34.7726 17.5376C35.1813 15.2157 37.3915 13.6654 39.7092 14.0748C42.027 14.4842 43.5745 16.6983 43.1659 19.0201L35.5194 62.4627C35.1107 64.7846 32.9002 66.3349 30.5824 65.9255C28.2647 65.5161 26.7171 63.302 27.1258 60.9801Z" fill="#B3C3D4"/>
<path d="M35.5068 60.9801L27.86 17.5376C27.4513 15.2157 25.2411 13.6654 22.9233 14.0748C20.6056 14.4842 19.058 16.6983 19.4667 19.0201L27.1132 62.4627C27.5219 64.7846 29.7324 66.3349 32.0502 65.9255C34.3679 65.5161 35.9155 63.302 35.5068 60.9801Z" fill="#E3F0FF"/>
<path d="M50.832 60.9801L43.1852 17.5376C42.7765 15.2157 40.5663 13.6654 38.2485 14.0748C35.9308 14.4842 34.3832 16.6983 34.7919 19.0201L42.4384 62.4627C42.8471 64.7846 45.0576 66.3349 47.3754 65.9255C49.6931 65.5161 51.2407 63.302 50.832 60.9801Z" fill="#E3F0FF"/>
<path d="M61.2736 24.5894V28.2174C61.2736 28.3481 61.2305 28.4734 61.1444 28.5932C61.0583 28.7131 60.9507 28.7839 60.8216 28.8057L57.8349 29.2633C57.6304 29.8516 57.4206 30.3473 57.2053 30.7504C57.582 31.2952 58.1578 32.0469 58.9327 33.0057C59.0403 33.1364 59.0942 33.2726 59.0942 33.4142C59.0942 33.5559 59.0457 33.6811 58.9489 33.7901C58.6583 34.1932 58.1255 34.7815 57.3506 35.5551C56.5757 36.3286 56.0699 36.7154 55.8331 36.7154C55.7039 36.7154 55.564 36.6663 55.4133 36.5683L53.1855 34.8033C52.7119 35.0539 52.2222 35.2609 51.7164 35.4243C51.5442 36.906 51.3881 37.9192 51.2482 38.464C51.1728 38.769 50.9791 38.9216 50.667 38.9216H47.083C46.9324 38.9216 46.8005 38.8753 46.6875 38.7827C46.5745 38.6901 46.5126 38.5729 46.5019 38.4313L46.0498 35.4243C45.5225 35.25 45.0381 35.0485 44.5969 34.8197L42.3206 36.5683C42.2129 36.6663 42.0784 36.7154 41.917 36.7154C41.7663 36.7154 41.6318 36.6554 41.5134 36.5356C40.1573 35.2936 39.2693 34.3784 38.8496 33.7901C38.7743 33.6811 38.7366 33.5559 38.7366 33.4142C38.7366 33.2835 38.7796 33.1582 38.8657 33.0384C39.0272 32.8096 39.3016 32.4473 39.6891 31.9516C40.0765 31.4559 40.3671 31.0718 40.5609 30.7995C40.2703 30.2547 40.0496 29.7154 39.899 29.1816L36.9446 28.7403C36.8047 28.7185 36.6917 28.6504 36.6056 28.5361C36.5195 28.4217 36.4764 28.2936 36.4764 28.152V24.524C36.4764 24.3933 36.5195 24.268 36.6056 24.1481C36.6917 24.0283 36.7939 23.9575 36.9123 23.9357L39.9151 23.4781C40.0658 22.977 40.2757 22.4758 40.5447 21.9746C40.1142 21.3536 39.5384 20.6019 38.8173 19.7194C38.7097 19.5887 38.6559 19.4579 38.6559 19.3272C38.6559 19.2182 38.7043 19.0929 38.8012 18.9513C39.081 18.5591 39.6111 17.9735 40.3914 17.1945C41.1716 16.4155 41.6802 16.026 41.917 16.026C42.0569 16.026 42.1968 16.0805 42.3367 16.1895L44.5646 17.9381C45.0381 17.6875 45.5278 17.4805 46.0337 17.3171C46.2059 15.8354 46.3619 14.8222 46.5019 14.2774C46.5772 13.9724 46.7709 13.8198 47.083 13.8198H50.667C50.8177 13.8198 50.9495 13.8661 51.0625 13.9587C51.1755 14.0513 51.2374 14.1685 51.2482 14.3101L51.7002 17.3171C52.2276 17.4914 52.7119 17.6929 53.1532 17.9217L55.4456 16.1731C55.5425 16.0751 55.6716 16.026 55.8331 16.026C55.973 16.026 56.1075 16.0805 56.2367 16.1895C57.6251 17.4859 58.513 18.412 58.9004 18.9676C58.9758 19.0548 59.0134 19.1746 59.0134 19.3272C59.0134 19.4579 58.9704 19.5832 58.8843 19.703C58.7228 19.9318 58.4484 20.2941 58.0609 20.7898C57.6735 21.2855 57.3829 21.6696 57.1892 21.9419C57.469 22.4867 57.6896 23.0205 57.8511 23.5435L60.8054 24.0011C60.9453 24.0229 61.0583 24.0909 61.1444 24.2053C61.2305 24.3197 61.2736 24.4478 61.2736 24.5894Z" fill="#E3F0FF"/>
<ellipse cx="48.7446" cy="26.3706" rx="4.17636" ry="4.18363" fill="#B3C3D4"/>
</svg>
